<?xml version="1.0" encoding="UTF-8" standalone="no"?>
<!DOCTYPE svg PUBLIC "-//W3C//DTD SVG 1.1//EN"
 "http://www.w3.org/Graphics/SVG/1.1/DTD/svg11.dtd">
<!-- Generated by graphviz version 2.43.0 (0)
 -->
<!-- Title: tree Pages: 1 -->
<svg width="2236pt" height="1020pt"
 viewBox="0.00 0.00 2236.29 1019.93" xmlns="http://www.w3.org/2000/svg" xmlns:xlink="http://www.w3.org/1999/xlink">
<g id="graph0" class="graph" transform="scale(1 1) rotate(0) translate(4 1015.93)">
<title>tree</title>
<polygon fill="white" stroke="transparent" points="-4,4 -4,-1015.93 2232.29,-1015.93 2232.29,4 -4,4"/>
<!-- (val: 0.0, idx: 101, rnd:[0.22211639]) -->
<g id="node1" class="node">
<title>(val: 0.0, idx: 101, rnd:[0.22211639])</title>
<ellipse fill="none" stroke="black" cx="1235.29" cy="-937.18" rx="74.99" ry="74.99"/>
<text text-anchor="middle" x="1235.29" y="-933.48" font-family="Times,serif" font-size="14.00">subject&lt;=0.0</text>
</g>
<!-- (val: 0.0, idx: 2, rnd:[0.11635465]) -->
<g id="node2" class="node">
<title>(val: 0.0, idx: 2, rnd:[0.11635465])</title>
<ellipse fill="none" stroke="black" cx="854.29" cy="-765.34" rx="60.39" ry="60.39"/>
<text text-anchor="middle" x="854.29" y="-761.64" font-family="Times,serif" font-size="14.00">http&lt;=0.0</text>
</g>
<!-- (val: 0.0, idx: 101, rnd:[0.22211639])&#45;&gt;(val: 0.0, idx: 2, rnd:[0.11635465]) -->
<g id="edge1" class="edge">
<title>(val: 0.0, idx: 101, rnd:[0.22211639])&#45;&gt;(val: 0.0, idx: 2, rnd:[0.11635465])</title>
<path fill="none" stroke="black" d="M1167.18,-905.82C1096.75,-874.43 987.63,-825.78 918.63,-795.02"/>
<polygon fill="black" stroke="black" points="919.73,-791.68 909.17,-790.81 916.88,-798.07 919.73,-791.68"/>
</g>
<!-- (val: 0.0, idx: 115, rnd:[0.21683228]) -->
<g id="node3" class="node">
<title>(val: 0.0, idx: 115, rnd:[0.21683228])</title>
<ellipse fill="none" stroke="black" cx="1461.29" cy="-765.34" rx="61.19" ry="61.19"/>
<text text-anchor="middle" x="1461.29" y="-761.64" font-family="Times,serif" font-size="14.00">stop&lt;=0.0</text>
</g>
<!-- (val: 0.0, idx: 101, rnd:[0.22211639])&#45;&gt;(val: 0.0, idx: 115, rnd:[0.21683228]) -->
<g id="edge2" class="edge">
<title>(val: 0.0, idx: 101, rnd:[0.22211639])&#45;&gt;(val: 0.0, idx: 115, rnd:[0.21683228])</title>
<path fill="none" stroke="black" d="M1294.67,-891.56C1328.55,-866.1 1370.8,-834.35 1404.28,-809.19"/>
<polygon fill="black" stroke="black" points="1406.7,-811.75 1412.59,-802.95 1402.49,-806.16 1406.7,-811.75"/>
</g>
<!-- (val: 0.0, idx: 161, rnd:[0.65796906]) -->
<g id="node4" class="node">
<title>(val: 0.0, idx: 161, rnd:[0.65796906])</title>
<ellipse fill="none" stroke="black" cx="463.29" cy="-592.86" rx="73.39" ry="73.39"/>
<text text-anchor="middle" x="463.29" y="-589.16" font-family="Times,serif" font-size="14.00">energy&lt;=0.0</text>
</g>
<!-- (val: 0.0, idx: 2, rnd:[0.11635465])&#45;&gt;(val: 0.0, idx: 161, rnd:[0.65796906]) -->
<g id="edge4" class="edge">
<title>(val: 0.0, idx: 2, rnd:[0.11635465])&#45;&gt;(val: 0.0, idx: 161, rnd:[0.65796906])</title>
<path fill="none" stroke="black" d="M799.1,-740.28C731.37,-710.75 616.16,-660.51 539.89,-627.25"/>
<polygon fill="black" stroke="black" points="540.89,-623.87 530.32,-623.08 538.09,-630.29 540.89,-623.87"/>
</g>
<!-- (val: 0.0, idx: 226, rnd:[0.21368423]) -->
<g id="node5" class="node">
<title>(val: 0.0, idx: 226, rnd:[0.21368423])</title>
<ellipse fill="none" stroke="black" cx="854.29" cy="-592.86" rx="72.29" ry="72.29"/>
<text text-anchor="middle" x="854.29" y="-589.16" font-family="Times,serif" font-size="14.00">thanks&lt;=0.0</text>
</g>
<!-- (val: 0.0, idx: 2, rnd:[0.11635465])&#45;&gt;(val: 0.0, idx: 226, rnd:[0.21368423]) -->
<g id="edge3" class="edge">
<title>(val: 0.0, idx: 2, rnd:[0.11635465])&#45;&gt;(val: 0.0, idx: 226, rnd:[0.21368423])</title>
<path fill="none" stroke="black" d="M854.29,-704.72C854.29,-695.24 854.29,-685.29 854.29,-675.42"/>
<polygon fill="black" stroke="black" points="857.79,-675.17 854.29,-665.17 850.79,-675.17 857.79,-675.17"/>
</g>
<!-- (val: 0.0, idx: 162, rnd:[0.7473353]) -->
<g id="node6" class="node">
<title>(val: 0.0, idx: 162, rnd:[0.7473353])</title>
<ellipse fill="none" stroke="black" cx="1461.29" cy="-592.86" rx="75.29" ry="75.29"/>
<text text-anchor="middle" x="1461.29" y="-589.16" font-family="Times,serif" font-size="14.00">remove&lt;=0.0</text>
</g>
<!-- (val: 0.0, idx: 115, rnd:[0.21683228])&#45;&gt;(val: 0.0, idx: 162, rnd:[0.7473353]) -->
<g id="edge5" class="edge">
<title>(val: 0.0, idx: 115, rnd:[0.21683228])&#45;&gt;(val: 0.0, idx: 162, rnd:[0.7473353])</title>
<path fill="none" stroke="black" d="M1461.29,-704.24C1461.29,-695.9 1461.29,-687.21 1461.29,-678.53"/>
<polygon fill="black" stroke="black" points="1464.79,-678.36 1461.29,-668.36 1457.79,-678.36 1464.79,-678.36"/>
</g>
<!-- (val: 0.0, idx: 61, rnd:[0.72104168]) -->
<g id="node7" class="node">
<title>(val: 0.0, idx: 61, rnd:[0.72104168])</title>
<ellipse fill="none" stroke="black" cx="1866.29" cy="-592.86" rx="63.09" ry="63.09"/>
<text text-anchor="middle" x="1866.29" y="-589.16" font-family="Times,serif" font-size="14.00">send&lt;=0.0</text>
</g>
<!-- (val: 0.0, idx: 115, rnd:[0.21683228])&#45;&gt;(val: 0.0, idx: 61, rnd:[0.72104168]) -->
<g id="edge6" class="edge">
<title>(val: 0.0, idx: 115, rnd:[0.21683228])&#45;&gt;(val: 0.0, idx: 61, rnd:[0.72104168])</title>
<path fill="none" stroke="black" d="M1517.61,-740.64C1591.33,-709.6 1720.42,-655.26 1799.15,-622.12"/>
<polygon fill="black" stroke="black" points="1800.64,-625.29 1808.5,-618.19 1797.92,-618.84 1800.64,-625.29"/>
</g>
<!-- (val: 0.0, idx: 5, rnd:[0.7936274]) -->
<g id="node8" class="node">
<title>(val: 0.0, idx: 5, rnd:[0.7936274])</title>
<ellipse fill="none" stroke="black" cx="208.29" cy="-380.07" rx="94.78" ry="94.78"/>
<text text-anchor="middle" x="208.29" y="-376.37" font-family="Times,serif" font-size="14.00">information&lt;=0.0</text>
</g>
<!-- (val: 0.0, idx: 161, rnd:[0.65796906])&#45;&gt;(val: 0.0, idx: 5, rnd:[0.7936274]) -->
<g id="edge8" class="edge">
<title>(val: 0.0, idx: 161, rnd:[0.65796906])&#45;&gt;(val: 0.0, idx: 5, rnd:[0.7936274])</title>
<path fill="none" stroke="black" d="M407.02,-545.34C372.51,-516.82 327.76,-479.82 289.46,-448.16"/>
<polygon fill="black" stroke="black" points="291.33,-445.17 281.39,-441.49 286.87,-450.56 291.33,-445.17"/>
</g>
<!-- (val: 0.0, idx: 222, rnd:[0.46284813]) -->
<g id="node9" class="node">
<title>(val: 0.0, idx: 222, rnd:[0.46284813])</title>
<ellipse fill="none" stroke="black" cx="463.29" cy="-380.07" rx="101.28" ry="101.28"/>
<text text-anchor="middle" x="463.29" y="-376.37" font-family="Times,serif" font-size="14.00">management&lt;=0.0</text>
</g>
<!-- (val: 0.0, idx: 161, rnd:[0.65796906])&#45;&gt;(val: 0.0, idx: 222, rnd:[0.46284813]) -->
<g id="edge7" class="edge">
<title>(val: 0.0, idx: 161, rnd:[0.65796906])&#45;&gt;(val: 0.0, idx: 222, rnd:[0.46284813])</title>
<path fill="none" stroke="black" d="M463.29,-519.32C463.29,-510.4 463.29,-501.13 463.29,-491.8"/>
<polygon fill="black" stroke="black" points="466.79,-491.68 463.29,-481.68 459.79,-491.68 466.79,-491.68"/>
</g>
<!-- (val: 0.0, idx: 296, rnd:[0.22930088]) -->
<g id="node10" class="node">
<title>(val: 0.0, idx: 296, rnd:[0.22930088])</title>
<ellipse fill="none" stroke="black" cx="778.29" cy="-380.07" rx="61.99" ry="61.99"/>
<text text-anchor="middle" x="778.29" y="-376.37" font-family="Times,serif" font-size="14.00">date&lt;=0.0</text>
</g>
<!-- (val: 0.0, idx: 226, rnd:[0.21368423])&#45;&gt;(val: 0.0, idx: 296, rnd:[0.22930088]) -->
<g id="edge9" class="edge">
<title>(val: 0.0, idx: 226, rnd:[0.21368423])&#45;&gt;(val: 0.0, idx: 296, rnd:[0.22930088])</title>
<path fill="none" stroke="black" d="M830.14,-524.87C821.28,-500.29 811.25,-472.48 802.39,-447.91"/>
<polygon fill="black" stroke="black" points="805.62,-446.53 798.93,-438.31 799.03,-448.9 805.62,-446.53"/>
</g>
<!-- (val: 0.0, idx: 108, rnd:[0.86833949]) -->
<g id="node11" class="node">
<title>(val: 0.0, idx: 108, rnd:[0.86833949])</title>
<ellipse fill="none" stroke="black" cx="931.29" cy="-380.07" rx="72.59" ry="72.59"/>
<text text-anchor="middle" x="931.29" y="-376.37" font-family="Times,serif" font-size="14.00">dollars&lt;=0.0</text>
</g>
<!-- (val: 0.0, idx: 226, rnd:[0.21368423])&#45;&gt;(val: 0.0, idx: 108, rnd:[0.86833949]) -->
<g id="edge10" class="edge">
<title>(val: 0.0, idx: 226, rnd:[0.21368423])&#45;&gt;(val: 0.0, idx: 108, rnd:[0.86833949])</title>
<path fill="none" stroke="black" d="M878.76,-524.87C886.51,-503.66 895.14,-480.05 903.13,-458.18"/>
<polygon fill="black" stroke="black" points="906.48,-459.2 906.62,-448.61 899.91,-456.8 906.48,-459.2"/>
</g>
<!-- (val: 0.0, idx: 73, rnd:[0.86121255]) -->
<g id="node12" class="node">
<title>(val: 0.0, idx: 73, rnd:[0.86121255])</title>
<ellipse fill="none" stroke="black" cx="1391.29" cy="-380.07" rx="57.39" ry="57.39"/>
<text text-anchor="middle" x="1391.29" y="-376.37" font-family="Times,serif" font-size="14.00">gas&lt;=0.0</text>
</g>
<!-- (val: 0.0, idx: 162, rnd:[0.7473353])&#45;&gt;(val: 0.0, idx: 73, rnd:[0.86121255]) -->
<g id="edge12" class="edge">
<title>(val: 0.0, idx: 162, rnd:[0.7473353])&#45;&gt;(val: 0.0, idx: 73, rnd:[0.86121255])</title>
<path fill="none" stroke="black" d="M1437.79,-521.08C1429.55,-496.27 1420.36,-468.59 1412.33,-444.43"/>
<polygon fill="black" stroke="black" points="1415.56,-443.05 1409.09,-434.66 1408.92,-445.25 1415.56,-443.05"/>
</g>
<!-- (val: 0.0, idx: 2, rnd:[0.15929769]) -->
<g id="node13" class="node">
<title>(val: 0.0, idx: 2, rnd:[0.15929769])</title>
<ellipse fill="none" stroke="black" cx="1530.29" cy="-380.07" rx="60.39" ry="60.39"/>
<text text-anchor="middle" x="1530.29" y="-376.37" font-family="Times,serif" font-size="14.00">http&lt;=0.0</text>
</g>
<!-- (val: 0.0, idx: 162, rnd:[0.7473353])&#45;&gt;(val: 0.0, idx: 2, rnd:[0.15929769]) -->
<g id="edge11" class="edge">
<title>(val: 0.0, idx: 162, rnd:[0.7473353])&#45;&gt;(val: 0.0, idx: 2, rnd:[0.15929769])</title>
<path fill="none" stroke="black" d="M1484.46,-521.08C1492.27,-497.22 1500.96,-470.7 1508.65,-447.21"/>
<polygon fill="black" stroke="black" points="1511.98,-448.28 1511.76,-437.69 1505.32,-446.1 1511.98,-448.28"/>
</g>
<!-- (val: 0.0, idx: 174, rnd:[0.47299367]) -->
<g id="node14" class="node">
<title>(val: 0.0, idx: 174, rnd:[0.47299367])</title>
<ellipse fill="none" stroke="black" cx="1866.29" cy="-380.07" rx="62.29" ry="62.29"/>
<text text-anchor="middle" x="1866.29" y="-376.37" font-family="Times,serif" font-size="14.00">back&lt;=0.0</text>
</g>
<!-- (val: 0.0, idx: 61, rnd:[0.72104168])&#45;&gt;(val: 0.0, idx: 174, rnd:[0.47299367]) -->
<g id="edge14" class="edge">
<title>(val: 0.0, idx: 61, rnd:[0.72104168])&#45;&gt;(val: 0.0, idx: 174, rnd:[0.47299367])</title>
<path fill="none" stroke="black" d="M1866.29,-529.75C1866.29,-505.63 1866.29,-477.85 1866.29,-452.88"/>
<polygon fill="black" stroke="black" points="1869.79,-452.73 1866.29,-442.73 1862.79,-452.73 1869.79,-452.73"/>
</g>
<!-- (val: 0.0, idx: 333, rnd:[0.44292893]) -->
<g id="node15" class="node">
<title>(val: 0.0, idx: 333, rnd:[0.44292893])</title>
<ellipse fill="none" stroke="black" cx="2062.29" cy="-380.07" rx="79.89" ry="79.89"/>
<text text-anchor="middle" x="2062.29" y="-376.37" font-family="Times,serif" font-size="14.00">contains&lt;=0.0</text>
</g>
<!-- (val: 0.0, idx: 61, rnd:[0.72104168])&#45;&gt;(val: 0.0, idx: 333, rnd:[0.44292893]) -->
<g id="edge13" class="edge">
<title>(val: 0.0, idx: 61, rnd:[0.72104168])&#45;&gt;(val: 0.0, idx: 333, rnd:[0.44292893])</title>
<path fill="none" stroke="black" d="M1908.82,-546.12C1935.82,-517.09 1971.19,-479.05 2001.17,-446.81"/>
<polygon fill="black" stroke="black" points="2004.02,-448.88 2008.27,-439.17 1998.9,-444.11 2004.02,-448.88"/>
</g>
<!-- (val: 3.0, idx: 4, rnd:[0.30725799]) -->
<g id="node16" class="node">
<title>(val: 3.0, idx: 4, rnd:[0.30725799])</title>
<ellipse fill="none" stroke="black" cx="66.29" cy="-158.84" rx="66.09" ry="66.09"/>
<text text-anchor="middle" x="66.29" y="-155.14" font-family="Times,serif" font-size="14.00">email&lt;=3.0</text>
</g>
<!-- (val: 0.0, idx: 5, rnd:[0.7936274])&#45;&gt;(val: 3.0, idx: 4, rnd:[0.30725799]) -->
<g id="edge16" class="edge">
<title>(val: 0.0, idx: 5, rnd:[0.7936274])&#45;&gt;(val: 3.0, idx: 4, rnd:[0.30725799])</title>
<path fill="none" stroke="black" d="M157.03,-299.92C140.76,-274.8 122.98,-247.36 107.51,-223.47"/>
<polygon fill="black" stroke="black" points="110.29,-221.33 101.92,-214.84 104.42,-225.14 110.29,-221.33"/>
</g>
<!-- (val: 0.0, idx: 267, rnd:[0.97187541]) -->
<g id="node17" class="node">
<title>(val: 0.0, idx: 267, rnd:[0.97187541])</title>
<ellipse fill="none" stroke="black" cx="208.29" cy="-158.84" rx="57.69" ry="57.69"/>
<text text-anchor="middle" x="208.29" y="-155.14" font-family="Times,serif" font-size="14.00">feel&lt;=0.0</text>
</g>
<!-- (val: 0.0, idx: 5, rnd:[0.7936274])&#45;&gt;(val: 0.0, idx: 267, rnd:[0.97187541]) -->
<g id="edge15" class="edge">
<title>(val: 0.0, idx: 5, rnd:[0.7936274])&#45;&gt;(val: 0.0, idx: 267, rnd:[0.97187541])</title>
<path fill="none" stroke="black" d="M208.29,-285.14C208.29,-265.53 208.29,-245.24 208.29,-226.84"/>
<polygon fill="black" stroke="black" points="211.79,-226.83 208.29,-216.83 204.79,-226.83 211.79,-226.83"/>
</g>
<!-- (val: 0.0, idx: 16, rnd:[0.17921445]) -->
<g id="node18" class="node">
<title>(val: 0.0, idx: 16, rnd:[0.17921445])</title>
<ellipse fill="none" stroke="black" cx="355.29" cy="-158.84" rx="71.49" ry="71.49"/>
<text text-anchor="middle" x="355.29" y="-155.14" font-family="Times,serif" font-size="14.00">money&lt;=0.0</text>
</g>
<!-- (val: 0.0, idx: 222, rnd:[0.46284813])&#45;&gt;(val: 0.0, idx: 16, rnd:[0.17921445]) -->
<g id="edge18" class="edge">
<title>(val: 0.0, idx: 222, rnd:[0.46284813])&#45;&gt;(val: 0.0, idx: 16, rnd:[0.17921445])</title>
<path fill="none" stroke="black" d="M418.74,-288.64C409.54,-269.95 399.96,-250.5 391.11,-232.55"/>
<polygon fill="black" stroke="black" points="394.12,-230.73 386.56,-223.31 387.84,-233.83 394.12,-230.73"/>
</g>
<!-- (val: 0.0, idx: 111, rnd:[0.98873649]) -->
<g id="node19" class="node">
<title>(val: 0.0, idx: 111, rnd:[0.98873649])</title>
<ellipse fill="none" stroke="black" cx="504.29" cy="-158.84" rx="59.59" ry="59.59"/>
<text text-anchor="middle" x="504.29" y="-155.14" font-family="Times,serif" font-size="14.00">web&lt;=0.0</text>
</g>
<!-- (val: 0.0, idx: 222, rnd:[0.46284813])&#45;&gt;(val: 0.0, idx: 111, rnd:[0.98873649]) -->
<g id="edge17" class="edge">
<title>(val: 0.0, idx: 222, rnd:[0.46284813])&#45;&gt;(val: 0.0, idx: 111, rnd:[0.98873649])</title>
<path fill="none" stroke="black" d="M481.76,-280.36C485.06,-262.66 488.44,-244.59 491.55,-228"/>
<polygon fill="black" stroke="black" points="495.04,-228.35 493.44,-217.87 488.16,-227.06 495.04,-228.35"/>
</g>
<!-- (val: 0.0, idx: 4, rnd:[0.43220945]) -->
<g id="node20" class="node">
<title>(val: 0.0, idx: 4, rnd:[0.43220945])</title>
<ellipse fill="none" stroke="black" cx="648.29" cy="-158.84" rx="66.09" ry="66.09"/>
<text text-anchor="middle" x="648.29" y="-155.14" font-family="Times,serif" font-size="14.00">email&lt;=0.0</text>
</g>
<!-- (val: 0.0, idx: 296, rnd:[0.22930088])&#45;&gt;(val: 0.0, idx: 4, rnd:[0.43220945]) -->
<g id="edge20" class="edge">
<title>(val: 0.0, idx: 296, rnd:[0.22930088])&#45;&gt;(val: 0.0, idx: 4, rnd:[0.43220945])</title>
<path fill="none" stroke="black" d="M747.16,-326.56C729.1,-296.11 706.2,-257.5 686.99,-225.1"/>
<polygon fill="black" stroke="black" points="689.79,-222.96 681.68,-216.14 683.77,-226.53 689.79,-222.96"/>
</g>
<!-- (val: 0.0, idx: 73, rnd:[0.48202995]) -->
<g id="node21" class="node">
<title>(val: 0.0, idx: 73, rnd:[0.48202995])</title>
<ellipse fill="none" stroke="black" cx="789.29" cy="-158.84" rx="57.39" ry="57.39"/>
<text text-anchor="middle" x="789.29" y="-155.14" font-family="Times,serif" font-size="14.00">gas&lt;=0.0</text>
</g>
<!-- (val: 0.0, idx: 296, rnd:[0.22930088])&#45;&gt;(val: 0.0, idx: 73, rnd:[0.48202995]) -->
<g id="edge19" class="edge">
<title>(val: 0.0, idx: 296, rnd:[0.22930088])&#45;&gt;(val: 0.0, idx: 73, rnd:[0.48202995])</title>
<path fill="none" stroke="black" d="M781.34,-318.3C782.78,-289.73 784.49,-255.6 785.96,-226.35"/>
<polygon fill="black" stroke="black" points="789.46,-226.38 786.47,-216.22 782.47,-226.03 789.46,-226.38"/>
</g>
<!-- (val: 0.0, idx: 73, rnd:[0.46508686]) -->
<g id="node22" class="node">
<title>(val: 0.0, idx: 73, rnd:[0.46508686])</title>
<ellipse fill="none" stroke="black" cx="921.29" cy="-158.84" rx="57.39" ry="57.39"/>
<text text-anchor="middle" x="921.29" y="-155.14" font-family="Times,serif" font-size="14.00">gas&lt;=0.0</text>
</g>
<!-- (val: 0.0, idx: 108, rnd:[0.86833949])&#45;&gt;(val: 0.0, idx: 73, rnd:[0.46508686]) -->
<g id="edge22" class="edge">
<title>(val: 0.0, idx: 108, rnd:[0.86833949])&#45;&gt;(val: 0.0, idx: 73, rnd:[0.46508686])</title>
<path fill="none" stroke="black" d="M928.02,-307.29C926.83,-281.16 925.49,-251.76 924.32,-226.13"/>
<polygon fill="black" stroke="black" points="927.81,-225.97 923.86,-216.14 920.82,-226.29 927.81,-225.97"/>
</g>
<!-- (val: 0.0, idx: 94, rnd:[0.00177214]) -->
<g id="node23" class="node">
<title>(val: 0.0, idx: 94, rnd:[0.00177214])</title>
<ellipse fill="none" stroke="black" cx="1074.29" cy="-158.84" rx="77.19" ry="77.19"/>
<text text-anchor="middle" x="1074.29" y="-155.14" font-family="Times,serif" font-size="14.00">product&lt;=0.0</text>
</g>
<!-- (val: 0.0, idx: 108, rnd:[0.86833949])&#45;&gt;(val: 0.0, idx: 94, rnd:[0.00177214]) -->
<g id="edge21" class="edge">
<title>(val: 0.0, idx: 108, rnd:[0.86833949])&#45;&gt;(val: 0.0, idx: 94, rnd:[0.00177214])</title>
<path fill="none" stroke="black" d="M970.75,-318.59C988.13,-291.94 1008.7,-260.41 1026.9,-232.5"/>
<polygon fill="black" stroke="black" points="1029.94,-234.25 1032.47,-223.96 1024.08,-230.42 1029.94,-234.25"/>
</g>
<!-- (val: 0.0, idx: 4, rnd:[0.33419149]) -->
<g id="node24" class="node">
<title>(val: 0.0, idx: 4, rnd:[0.33419149])</title>
<ellipse fill="none" stroke="black" cx="1236.29" cy="-158.84" rx="66.09" ry="66.09"/>
<text text-anchor="middle" x="1236.29" y="-155.14" font-family="Times,serif" font-size="14.00">email&lt;=0.0</text>
</g>
<!-- (val: 0.0, idx: 73, rnd:[0.86121255])&#45;&gt;(val: 0.0, idx: 4, rnd:[0.33419149]) -->
<g id="edge23" class="edge">
<title>(val: 0.0, idx: 73, rnd:[0.86121255])&#45;&gt;(val: 0.0, idx: 4, rnd:[0.33419149])</title>
<path fill="none" stroke="black" d="M1358.61,-332.85C1335.75,-300.51 1304.97,-256.97 1280,-221.66"/>
<polygon fill="black" stroke="black" points="1282.75,-219.48 1274.12,-213.33 1277.03,-223.52 1282.75,-219.48"/>
</g>
<!-- (val: 4.0, idx: 6, rnd:[0.53054706]) -->
<g id="node25" class="node">
<title>(val: 4.0, idx: 6, rnd:[0.53054706])</title>
<ellipse fill="none" stroke="black" cx="1391.29" cy="-158.84" rx="70.69" ry="70.69"/>
<text text-anchor="middle" x="1391.29" y="-155.14" font-family="Times,serif" font-size="14.00">please&lt;=4.0</text>
</g>
<!-- (val: 0.0, idx: 73, rnd:[0.86121255])&#45;&gt;(val: 4.0, idx: 6, rnd:[0.53054706]) -->
<g id="edge24" class="edge">
<title>(val: 0.0, idx: 73, rnd:[0.86121255])&#45;&gt;(val: 4.0, idx: 6, rnd:[0.53054706])</title>
<path fill="none" stroke="black" d="M1391.29,-322.61C1391.29,-297.53 1391.29,-267.54 1391.29,-240.18"/>
<polygon fill="black" stroke="black" points="1394.79,-239.83 1391.29,-229.83 1387.79,-239.83 1394.79,-239.83"/>
</g>
<!-- (val: 1.0, idx: 312, rnd:[0.86103234]) -->
<g id="node26" class="node">
<title>(val: 1.0, idx: 312, rnd:[0.86103234])</title>
<ellipse fill="none" stroke="black" cx="1530.29" cy="-158.84" rx="50.09" ry="50.09"/>
<text text-anchor="middle" x="1530.29" y="-155.14" font-family="Times,serif" font-size="14.00">id&lt;=1.0</text>
</g>
<!-- (val: 0.0, idx: 2, rnd:[0.15929769])&#45;&gt;(val: 1.0, idx: 312, rnd:[0.86103234]) -->
<g id="edge26" class="edge">
<title>(val: 0.0, idx: 2, rnd:[0.15929769])&#45;&gt;(val: 1.0, idx: 312, rnd:[0.86103234])</title>
<path fill="none" stroke="black" d="M1530.29,-319.46C1530.29,-288.36 1530.29,-250.42 1530.29,-219.34"/>
<polygon fill="black" stroke="black" points="1533.79,-219.08 1530.29,-209.08 1526.79,-219.08 1533.79,-219.08"/>
</g>
<!-- (val: 0.0, idx: 259, rnd:[0.48555847]) -->
<g id="node27" class="node">
<title>(val: 0.0, idx: 259, rnd:[0.48555847])</title>
<ellipse fill="none" stroke="black" cx="1682.29" cy="-158.84" rx="83.69" ry="83.69"/>
<text text-anchor="middle" x="1682.29" y="-155.14" font-family="Times,serif" font-size="14.00">thousand&lt;=0.0</text>
</g>
<!-- (val: 0.0, idx: 2, rnd:[0.15929769])&#45;&gt;(val: 0.0, idx: 259, rnd:[0.48555847]) -->
<g id="edge25" class="edge">
<title>(val: 0.0, idx: 2, rnd:[0.15929769])&#45;&gt;(val: 0.0, idx: 259, rnd:[0.48555847])</title>
<path fill="none" stroke="black" d="M1564.41,-329.87C1583.37,-302.52 1607.39,-267.88 1628.79,-237.01"/>
<polygon fill="black" stroke="black" points="1631.93,-238.62 1634.75,-228.41 1626.18,-234.63 1631.93,-238.62"/>
</g>
<!-- (val: 2.0, idx: 77, rnd:[0.39912217]) -->
<g id="node28" class="node">
<title>(val: 2.0, idx: 77, rnd:[0.39912217])</title>
<ellipse fill="none" stroke="black" cx="1830.29" cy="-158.84" rx="46.29" ry="46.29"/>
<text text-anchor="middle" x="1830.29" y="-155.14" font-family="Times,serif" font-size="14.00">c&lt;=2.0</text>
</g>
<!-- (val: 0.0, idx: 174, rnd:[0.47299367])&#45;&gt;(val: 2.0, idx: 77, rnd:[0.39912217]) -->
<g id="edge27" class="edge">
<title>(val: 0.0, idx: 174, rnd:[0.47299367])&#45;&gt;(val: 2.0, idx: 77, rnd:[0.39912217])</title>
<path fill="none" stroke="black" d="M1856.31,-318.3C1850.98,-285.82 1844.47,-246.16 1839.29,-214.64"/>
<polygon fill="black" stroke="black" points="1842.74,-214.01 1837.66,-204.71 1835.83,-215.15 1842.74,-214.01"/>
</g>
<!-- (val: 0.0, idx: 4, rnd:[0.95892124]) -->
<g id="node29" class="node">
<title>(val: 0.0, idx: 4, rnd:[0.95892124])</title>
<ellipse fill="none" stroke="black" cx="1960.29" cy="-158.84" rx="66.09" ry="66.09"/>
<text text-anchor="middle" x="1960.29" y="-155.14" font-family="Times,serif" font-size="14.00">email&lt;=0.0</text>
</g>
<!-- (val: 0.0, idx: 174, rnd:[0.47299367])&#45;&gt;(val: 0.0, idx: 4, rnd:[0.95892124]) -->
<g id="edge28" class="edge">
<title>(val: 0.0, idx: 174, rnd:[0.47299367])&#45;&gt;(val: 0.0, idx: 4, rnd:[0.95892124])</title>
<path fill="none" stroke="black" d="M1890.62,-322.33C1902.75,-294.05 1917.52,-259.6 1930.33,-229.71"/>
<polygon fill="black" stroke="black" points="1933.7,-230.75 1934.42,-220.18 1927.26,-227.99 1933.7,-230.75"/>
</g>
<!-- (val: 1 rnd:[0.14639412]) -->
<g id="node30" class="node">
<title>(val: 1 rnd:[0.14639412])</title>
<ellipse fill="none" stroke="black" cx="2062.29" cy="-158.84" rx="18" ry="18"/>
<text text-anchor="middle" x="2062.29" y="-155.14" font-family="Times,serif" font-size="14.00">1</text>
</g>
<!-- (val: 0.0, idx: 333, rnd:[0.44292893])&#45;&gt;(val: 1 rnd:[0.14639412]) -->
<g id="edge30" class="edge">
<title>(val: 0.0, idx: 333, rnd:[0.44292893])&#45;&gt;(val: 1 rnd:[0.14639412])</title>
<path fill="none" stroke="black" d="M2062.29,-299.92C2062.29,-260.51 2062.29,-215.39 2062.29,-187.25"/>
<polygon fill="black" stroke="black" points="2065.79,-187 2062.29,-177 2058.79,-187 2065.79,-187"/>
</g>
<!-- (val: 0.0, idx: 118, rnd:[0.06567748]) -->
<g id="node31" class="node">
<title>(val: 0.0, idx: 118, rnd:[0.06567748])</title>
<ellipse fill="none" stroke="black" cx="2163.29" cy="-158.84" rx="64.99" ry="64.99"/>
<text text-anchor="middle" x="2163.29" y="-155.14" font-family="Times,serif" font-size="14.00">reply&lt;=0.0</text>
</g>
<!-- (val: 0.0, idx: 333, rnd:[0.44292893])&#45;&gt;(val: 0.0, idx: 118, rnd:[0.06567748]) -->
<g id="edge29" class="edge">
<title>(val: 0.0, idx: 333, rnd:[0.44292893])&#45;&gt;(val: 0.0, idx: 118, rnd:[0.06567748])</title>
<path fill="none" stroke="black" d="M2095.37,-307.29C2107.2,-281.6 2120.49,-252.74 2132.16,-227.42"/>
<polygon fill="black" stroke="black" points="2135.37,-228.81 2136.38,-218.26 2129.02,-225.88 2135.37,-228.81"/>
</g>
<!-- (val: &#45;1 rnd:[0.98394213]) -->
<g id="node32" class="node">
<title>(val: &#45;1 rnd:[0.98394213])</title>
<ellipse fill="none" stroke="black" cx="39.29" cy="-19.5" rx="19.5" ry="19.5"/>
<text text-anchor="middle" x="39.29" y="-15.8" font-family="Times,serif" font-size="14.00">&#45;1</text>
</g>
<!-- (val: 3.0, idx: 4, rnd:[0.30725799])&#45;&gt;(val: &#45;1 rnd:[0.98394213]) -->
<g id="edge31" class="edge">
<title>(val: 3.0, idx: 4, rnd:[0.30725799])&#45;&gt;(val: &#45;1 rnd:[0.98394213])</title>
<path fill="none" stroke="black" d="M53.66,-93.59C50.58,-77.88 47.43,-61.87 44.87,-48.84"/>
<polygon fill="black" stroke="black" points="48.23,-47.82 42.87,-38.68 41.36,-49.17 48.23,-47.82"/>
</g>
<!-- (val: 1 rnd:[0.37953331]) -->
<g id="node33" class="node">
<title>(val: 1 rnd:[0.37953331])</title>
<ellipse fill="none" stroke="black" cx="94.29" cy="-19.5" rx="18" ry="18"/>
<text text-anchor="middle" x="94.29" y="-15.8" font-family="Times,serif" font-size="14.00">1</text>
</g>
<!-- (val: 3.0, idx: 4, rnd:[0.30725799])&#45;&gt;(val: 1 rnd:[0.37953331]) -->
<g id="edge32" class="edge">
<title>(val: 3.0, idx: 4, rnd:[0.30725799])&#45;&gt;(val: 1 rnd:[0.37953331])</title>
<path fill="none" stroke="black" d="M79.39,-93.59C82.74,-77.18 86.15,-60.42 88.87,-47.1"/>
<polygon fill="black" stroke="black" points="92.32,-47.73 90.88,-37.23 85.46,-46.33 92.32,-47.73"/>
</g>
<!-- (val: &#45;1 rnd:[0.2710407]) -->
<g id="node34" class="node">
<title>(val: &#45;1 rnd:[0.2710407])</title>
<ellipse fill="none" stroke="black" cx="181.29" cy="-19.5" rx="19.5" ry="19.5"/>
<text text-anchor="middle" x="181.29" y="-15.8" font-family="Times,serif" font-size="14.00">&#45;1</text>
</g>
<!-- (val: 0.0, idx: 267, rnd:[0.97187541])&#45;&gt;(val: &#45;1 rnd:[0.2710407]) -->
<g id="edge33" class="edge">
<title>(val: 0.0, idx: 267, rnd:[0.97187541])&#45;&gt;(val: &#45;1 rnd:[0.2710407])</title>
<path fill="none" stroke="black" d="M197.31,-101.98C193.71,-83.63 189.85,-64.03 186.83,-48.64"/>
<polygon fill="black" stroke="black" points="190.24,-47.87 184.88,-38.74 183.37,-49.22 190.24,-47.87"/>
</g>
<!-- (val: 1 rnd:[0.5395047]) -->
<g id="node35" class="node">
<title>(val: 1 rnd:[0.5395047])</title>
<ellipse fill="none" stroke="black" cx="236.29" cy="-19.5" rx="18" ry="18"/>
<text text-anchor="middle" x="236.29" y="-15.8" font-family="Times,serif" font-size="14.00">1</text>
</g>
<!-- (val: 0.0, idx: 267, rnd:[0.97187541])&#45;&gt;(val: 1 rnd:[0.5395047]) -->
<g id="edge34" class="edge">
<title>(val: 0.0, idx: 267, rnd:[0.97187541])&#45;&gt;(val: 1 rnd:[0.5395047])</title>
<path fill="none" stroke="black" d="M219.68,-101.98C223.52,-83.15 227.63,-62.99 230.8,-47.44"/>
<polygon fill="black" stroke="black" points="234.26,-47.97 232.83,-37.48 227.41,-46.58 234.26,-47.97"/>
</g>
<!-- (val: &#45;1 rnd:[0.17977]) -->
<g id="node36" class="node">
<title>(val: &#45;1 rnd:[0.17977])</title>
<ellipse fill="none" stroke="black" cx="342.29" cy="-19.5" rx="19.5" ry="19.5"/>
<text text-anchor="middle" x="342.29" y="-15.8" font-family="Times,serif" font-size="14.00">&#45;1</text>
</g>
<!-- (val: 0.0, idx: 16, rnd:[0.17921445])&#45;&gt;(val: &#45;1 rnd:[0.17977]) -->
<g id="edge35" class="edge">
<title>(val: 0.0, idx: 16, rnd:[0.17921445])&#45;&gt;(val: &#45;1 rnd:[0.17977])</title>
<path fill="none" stroke="black" d="M348.64,-87.56C347.35,-73.96 346.07,-60.44 345.01,-49.14"/>
<polygon fill="black" stroke="black" points="348.48,-48.68 344.05,-39.06 341.51,-49.34 348.48,-48.68"/>
</g>
<!-- (val: 1 rnd:[0.87409995]) -->
<g id="node37" class="node">
<title>(val: 1 rnd:[0.87409995])</title>
<ellipse fill="none" stroke="black" cx="397.29" cy="-19.5" rx="18" ry="18"/>
<text text-anchor="middle" x="397.29" y="-15.8" font-family="Times,serif" font-size="14.00">1</text>
</g>
<!-- (val: 0.0, idx: 16, rnd:[0.17921445])&#45;&gt;(val: 1 rnd:[0.87409995]) -->
<g id="edge36" class="edge">
<title>(val: 0.0, idx: 16, rnd:[0.17921445])&#45;&gt;(val: 1 rnd:[0.87409995])</title>
<path fill="none" stroke="black" d="M375.92,-90.38C380.69,-74.79 385.48,-59.13 389.31,-46.59"/>
<polygon fill="black" stroke="black" points="392.71,-47.45 392.29,-36.87 386.02,-45.41 392.71,-47.45"/>
</g>
<!-- (val: 1 rnd:[0.32331166]) -->
<g id="node38" class="node">
<title>(val: 1 rnd:[0.32331166])</title>
<ellipse fill="none" stroke="black" cx="462.29" cy="-19.5" rx="18" ry="18"/>
<text text-anchor="middle" x="462.29" y="-15.8" font-family="Times,serif" font-size="14.00">1</text>
</g>
<!-- (val: 0.0, idx: 111, rnd:[0.98873649])&#45;&gt;(val: 1 rnd:[0.32331166]) -->
<g id="edge37" class="edge">
<title>(val: 0.0, idx: 111, rnd:[0.98873649])&#45;&gt;(val: 1 rnd:[0.32331166])</title>
<path fill="none" stroke="black" d="M486.97,-101.18C481.2,-82.33 475.06,-62.23 470.34,-46.81"/>
<polygon fill="black" stroke="black" points="473.6,-45.5 467.33,-36.96 466.9,-47.54 473.6,-45.5"/>
</g>
<!-- (val: 1 rnd:[0.65066208]) -->
<g id="node39" class="node">
<title>(val: 1 rnd:[0.65066208])</title>
<ellipse fill="none" stroke="black" cx="516.29" cy="-19.5" rx="18" ry="18"/>
<text text-anchor="middle" x="516.29" y="-15.8" font-family="Times,serif" font-size="14.00">1</text>
</g>
<!-- (val: 0.0, idx: 111, rnd:[0.98873649])&#45;&gt;(val: 1 rnd:[0.65066208]) -->
<g id="edge38" class="edge">
<title>(val: 0.0, idx: 111, rnd:[0.98873649])&#45;&gt;(val: 1 rnd:[0.65066208])</title>
<path fill="none" stroke="black" d="M509.42,-99.2C510.97,-81.42 512.6,-62.72 513.89,-48.02"/>
<polygon fill="black" stroke="black" points="517.41,-47.9 514.8,-37.63 510.44,-47.29 517.41,-47.9"/>
</g>
<!-- (val: &#45;1 rnd:[0.39552769]) -->
<g id="node40" class="node">
<title>(val: &#45;1 rnd:[0.39552769])</title>
<ellipse fill="none" stroke="black" cx="628.29" cy="-19.5" rx="19.5" ry="19.5"/>
<text text-anchor="middle" x="628.29" y="-15.8" font-family="Times,serif" font-size="14.00">&#45;1</text>
</g>
<!-- (val: 0.0, idx: 4, rnd:[0.43220945])&#45;&gt;(val: &#45;1 rnd:[0.39552769]) -->
<g id="edge39" class="edge">
<title>(val: 0.0, idx: 4, rnd:[0.43220945])&#45;&gt;(val: &#45;1 rnd:[0.39552769])</title>
<path fill="none" stroke="black" d="M638.88,-93.19C636.62,-77.64 634.31,-61.82 632.43,-48.93"/>
<polygon fill="black" stroke="black" points="635.87,-48.24 630.97,-38.85 628.94,-49.25 635.87,-48.24"/>
</g>
<!-- (val: 1 rnd:[0.47282576]) -->
<g id="node41" class="node">
<title>(val: 1 rnd:[0.47282576])</title>
<ellipse fill="none" stroke="black" cx="683.29" cy="-19.5" rx="18" ry="18"/>
<text text-anchor="middle" x="683.29" y="-15.8" font-family="Times,serif" font-size="14.00">1</text>
</g>
<!-- (val: 0.0, idx: 4, rnd:[0.43220945])&#45;&gt;(val: 1 rnd:[0.47282576]) -->
<g id="edge40" class="edge">
<title>(val: 0.0, idx: 4, rnd:[0.43220945])&#45;&gt;(val: 1 rnd:[0.47282576])</title>
<path fill="none" stroke="black" d="M664.46,-94.39C668.7,-77.76 673.05,-60.71 676.49,-47.18"/>
<polygon fill="black" stroke="black" points="679.97,-47.72 679.05,-37.17 673.18,-46 679.97,-47.72"/>
</g>
<!-- (val: &#45;1 rnd:[0.48509991]) -->
<g id="node42" class="node">
<title>(val: &#45;1 rnd:[0.48509991])</title>
<ellipse fill="none" stroke="black" cx="764.29" cy="-19.5" rx="19.5" ry="19.5"/>
<text text-anchor="middle" x="764.29" y="-15.8" font-family="Times,serif" font-size="14.00">&#45;1</text>
</g>
<!-- (val: 0.0, idx: 73, rnd:[0.48202995])&#45;&gt;(val: &#45;1 rnd:[0.48509991]) -->
<g id="edge42" class="edge">
<title>(val: 0.0, idx: 73, rnd:[0.48202995])&#45;&gt;(val: &#45;1 rnd:[0.48509991])</title>
<path fill="none" stroke="black" d="M779.2,-102.37C775.85,-83.98 772.26,-64.28 769.45,-48.82"/>
<polygon fill="black" stroke="black" points="772.87,-48.06 767.63,-38.85 765.98,-49.32 772.87,-48.06"/>
</g>
<!-- (val: 1 rnd:[0.84267894]) -->
<g id="node43" class="node">
<title>(val: 1 rnd:[0.84267894])</title>
<ellipse fill="none" stroke="black" cx="819.29" cy="-19.5" rx="18" ry="18"/>
<text text-anchor="middle" x="819.29" y="-15.8" font-family="Times,serif" font-size="14.00">1</text>
</g>
<!-- (val: 0.0, idx: 73, rnd:[0.48202995])&#45;&gt;(val: 1 rnd:[0.84267894]) -->
<g id="edge41" class="edge">
<title>(val: 0.0, idx: 73, rnd:[0.48202995])&#45;&gt;(val: 1 rnd:[0.84267894])</title>
<path fill="none" stroke="black" d="M801.32,-102.77C805.48,-83.73 809.96,-63.24 813.4,-47.47"/>
<polygon fill="black" stroke="black" points="816.89,-47.9 815.61,-37.38 810.05,-46.4 816.89,-47.9"/>
</g>
<!-- (val: &#45;1 rnd:[0.67142663]) -->
<g id="node44" class="node">
<title>(val: &#45;1 rnd:[0.67142663])</title>
<ellipse fill="none" stroke="black" cx="885.29" cy="-19.5" rx="19.5" ry="19.5"/>
<text text-anchor="middle" x="885.29" y="-15.8" font-family="Times,serif" font-size="14.00">&#45;1</text>
</g>
<!-- (val: 0.0, idx: 73, rnd:[0.46508686])&#45;&gt;(val: &#45;1 rnd:[0.67142663]) -->
<g id="edge44" class="edge">
<title>(val: 0.0, idx: 73, rnd:[0.46508686])&#45;&gt;(val: &#45;1 rnd:[0.67142663])</title>
<path fill="none" stroke="black" d="M906.96,-103.16C902.06,-84.44 896.77,-64.28 892.65,-48.55"/>
<polygon fill="black" stroke="black" points="895.92,-47.22 890,-38.44 889.15,-49 895.92,-47.22"/>
</g>
<!-- (val: 1 rnd:[0.74632053]) -->
<g id="node45" class="node">
<title>(val: 1 rnd:[0.74632053])</title>
<ellipse fill="none" stroke="black" cx="940.29" cy="-19.5" rx="18" ry="18"/>
<text text-anchor="middle" x="940.29" y="-15.8" font-family="Times,serif" font-size="14.00">1</text>
</g>
<!-- (val: 0.0, idx: 73, rnd:[0.46508686])&#45;&gt;(val: 1 rnd:[0.74632053]) -->
<g id="edge43" class="edge">
<title>(val: 0.0, idx: 73, rnd:[0.46508686])&#45;&gt;(val: 1 rnd:[0.74632053])</title>
<path fill="none" stroke="black" d="M929.02,-101.98C931.63,-83.15 934.42,-62.99 936.57,-47.44"/>
<polygon fill="black" stroke="black" points="940.04,-47.86 937.95,-37.48 933.11,-46.9 940.04,-47.86"/>
</g>
<!-- (val: &#45;1 rnd:[0.24503083]) -->
<g id="node46" class="node">
<title>(val: &#45;1 rnd:[0.24503083])</title>
<ellipse fill="none" stroke="black" cx="1046.29" cy="-19.5" rx="19.5" ry="19.5"/>
<text text-anchor="middle" x="1046.29" y="-15.8" font-family="Times,serif" font-size="14.00">&#45;1</text>
</g>
<!-- (val: 0.0, idx: 94, rnd:[0.00177214])&#45;&gt;(val: &#45;1 rnd:[0.24503083]) -->
<g id="edge45" class="edge">
<title>(val: 0.0, idx: 94, rnd:[0.00177214])&#45;&gt;(val: &#45;1 rnd:[0.24503083])</title>
<path fill="none" stroke="black" d="M1058.98,-82.74C1056.53,-70.69 1054.12,-58.91 1052.08,-48.89"/>
<polygon fill="black" stroke="black" points="1055.45,-47.89 1050.02,-38.79 1048.59,-49.29 1055.45,-47.89"/>
</g>
<!-- (val: 1 rnd:[0.84066229]) -->
<g id="node47" class="node">
<title>(val: 1 rnd:[0.84066229])</title>
<ellipse fill="none" stroke="black" cx="1101.29" cy="-19.5" rx="18" ry="18"/>
<text text-anchor="middle" x="1101.29" y="-15.8" font-family="Times,serif" font-size="14.00">1</text>
</g>
<!-- (val: 0.0, idx: 94, rnd:[0.00177214])&#45;&gt;(val: 1 rnd:[0.84066229]) -->
<g id="edge46" class="edge">
<title>(val: 0.0, idx: 94, rnd:[0.00177214])&#45;&gt;(val: 1 rnd:[0.84066229])</title>
<path fill="none" stroke="black" d="M1089.06,-82.74C1091.56,-70 1094.01,-57.57 1096.04,-47.2"/>
<polygon fill="black" stroke="black" points="1099.51,-47.71 1098.01,-37.22 1092.64,-46.36 1099.51,-47.71"/>
</g>
<!-- (val: 1 rnd:[0.69878082]) -->
<g id="node48" class="node">
<title>(val: 1 rnd:[0.69878082])</title>
<ellipse fill="none" stroke="black" cx="1204.29" cy="-19.5" rx="18" ry="18"/>
<text text-anchor="middle" x="1204.29" y="-15.8" font-family="Times,serif" font-size="14.00">1</text>
</g>
<!-- (val: 0.0, idx: 4, rnd:[0.33419149])&#45;&gt;(val: 1 rnd:[0.69878082]) -->
<g id="edge47" class="edge">
<title>(val: 0.0, idx: 4, rnd:[0.33419149])&#45;&gt;(val: 1 rnd:[0.69878082])</title>
<path fill="none" stroke="black" d="M1221.42,-93.99C1217.58,-77.52 1213.66,-60.68 1210.53,-47.28"/>
<polygon fill="black" stroke="black" points="1213.9,-46.29 1208.22,-37.34 1207.08,-47.88 1213.9,-46.29"/>
</g>
<!-- (val: 1 rnd:[0.67209698]) -->
<g id="node49" class="node">
<title>(val: 1 rnd:[0.67209698])</title>
<ellipse fill="none" stroke="black" cx="1258.29" cy="-19.5" rx="18" ry="18"/>
<text text-anchor="middle" x="1258.29" y="-15.8" font-family="Times,serif" font-size="14.00">1</text>
</g>
<!-- (val: 0.0, idx: 4, rnd:[0.33419149])&#45;&gt;(val: 1 rnd:[0.67209698]) -->
<g id="edge48" class="edge">
<title>(val: 0.0, idx: 4, rnd:[0.33419149])&#45;&gt;(val: 1 rnd:[0.67209698])</title>
<path fill="none" stroke="black" d="M1246.65,-93.19C1249.23,-77.1 1251.85,-60.72 1253.96,-47.59"/>
<polygon fill="black" stroke="black" points="1257.46,-47.83 1255.59,-37.4 1250.55,-46.72 1257.46,-47.83"/>
</g>
<!-- (val: &#45;1 rnd:[0.87136497]) -->
<g id="node50" class="node">
<title>(val: &#45;1 rnd:[0.87136497])</title>
<ellipse fill="none" stroke="black" cx="1350.29" cy="-19.5" rx="19.5" ry="19.5"/>
<text text-anchor="middle" x="1350.29" y="-15.8" font-family="Times,serif" font-size="14.00">&#45;1</text>
</g>
<!-- (val: 4.0, idx: 6, rnd:[0.53054706])&#45;&gt;(val: &#45;1 rnd:[0.87136497]) -->
<g id="edge49" class="edge">
<title>(val: 4.0, idx: 6, rnd:[0.53054706])&#45;&gt;(val: &#45;1 rnd:[0.87136497])</title>
<path fill="none" stroke="black" d="M1371.27,-90.78C1366.76,-75.67 1362.22,-60.46 1358.52,-48.07"/>
<polygon fill="black" stroke="black" points="1361.85,-46.97 1355.64,-38.39 1355.14,-48.97 1361.85,-46.97"/>
</g>
<!-- (val: 1 rnd:[0.87850081]) -->
<g id="node51" class="node">
<title>(val: 1 rnd:[0.87850081])</title>
<ellipse fill="none" stroke="black" cx="1405.29" cy="-19.5" rx="18" ry="18"/>
<text text-anchor="middle" x="1405.29" y="-15.8" font-family="Times,serif" font-size="14.00">1</text>
</g>
<!-- (val: 4.0, idx: 6, rnd:[0.53054706])&#45;&gt;(val: 1 rnd:[0.87850081]) -->
<g id="edge50" class="edge">
<title>(val: 4.0, idx: 6, rnd:[0.53054706])&#45;&gt;(val: 1 rnd:[0.87850081])</title>
<path fill="none" stroke="black" d="M1398.42,-87.96C1399.89,-73.55 1401.35,-59.22 1402.54,-47.49"/>
<polygon fill="black" stroke="black" points="1406.03,-47.83 1403.56,-37.52 1399.06,-47.12 1406.03,-47.83"/>
</g>
<!-- (val: &#45;1 rnd:[0.50140195]) -->
<g id="node52" class="node">
<title>(val: &#45;1 rnd:[0.50140195])</title>
<ellipse fill="none" stroke="black" cx="1496.29" cy="-19.5" rx="19.5" ry="19.5"/>
<text text-anchor="middle" x="1496.29" y="-15.8" font-family="Times,serif" font-size="14.00">&#45;1</text>
</g>
<!-- (val: 1.0, idx: 312, rnd:[0.86103234])&#45;&gt;(val: &#45;1 rnd:[0.50140195]) -->
<g id="edge51" class="edge">
<title>(val: 1.0, idx: 312, rnd:[0.86103234])&#45;&gt;(val: &#45;1 rnd:[0.50140195])</title>
<path fill="none" stroke="black" d="M1518.5,-110.19C1513.4,-89.59 1507.61,-66.21 1503.22,-48.48"/>
<polygon fill="black" stroke="black" points="1506.62,-47.63 1500.81,-38.76 1499.82,-49.31 1506.62,-47.63"/>
</g>
<!-- (val: 1 rnd:[0.08509341]) -->
<g id="node53" class="node">
<title>(val: 1 rnd:[0.08509341])</title>
<ellipse fill="none" stroke="black" cx="1551.29" cy="-19.5" rx="18" ry="18"/>
<text text-anchor="middle" x="1551.29" y="-15.8" font-family="Times,serif" font-size="14.00">1</text>
</g>
<!-- (val: 1.0, idx: 312, rnd:[0.86103234])&#45;&gt;(val: 1 rnd:[0.08509341]) -->
<g id="edge52" class="edge">
<title>(val: 1.0, idx: 312, rnd:[0.86103234])&#45;&gt;(val: 1 rnd:[0.08509341])</title>
<path fill="none" stroke="black" d="M1537.76,-109.03C1540.92,-88.34 1544.49,-65.03 1547.16,-47.51"/>
<polygon fill="black" stroke="black" points="1550.65,-47.85 1548.7,-37.44 1543.73,-46.79 1550.65,-47.85"/>
</g>
<!-- (val: &#45;1 rnd:[0.82684943]) -->
<g id="node54" class="node">
<title>(val: &#45;1 rnd:[0.82684943])</title>
<ellipse fill="none" stroke="black" cx="1647.29" cy="-19.5" rx="19.5" ry="19.5"/>
<text text-anchor="middle" x="1647.29" y="-15.8" font-family="Times,serif" font-size="14.00">&#45;1</text>
</g>
<!-- (val: 0.0, idx: 259, rnd:[0.48555847])&#45;&gt;(val: &#45;1 rnd:[0.82684943]) -->
<g id="edge53" class="edge">
<title>(val: 0.0, idx: 259, rnd:[0.48555847])&#45;&gt;(val: &#45;1 rnd:[0.82684943])</title>
<path fill="none" stroke="black" d="M1661.73,-77.15C1659.11,-66.86 1656.58,-56.94 1654.39,-48.35"/>
<polygon fill="black" stroke="black" points="1657.77,-47.43 1651.91,-38.6 1650.99,-49.16 1657.77,-47.43"/>
</g>
<!-- (val: 1 rnd:[0.57199571]) -->
<g id="node55" class="node">
<title>(val: 1 rnd:[0.57199571])</title>
<ellipse fill="none" stroke="black" cx="1702.29" cy="-19.5" rx="18" ry="18"/>
<text text-anchor="middle" x="1702.29" y="-15.8" font-family="Times,serif" font-size="14.00">1</text>
</g>
<!-- (val: 0.0, idx: 259, rnd:[0.48555847])&#45;&gt;(val: 1 rnd:[0.57199571]) -->
<g id="edge54" class="edge">
<title>(val: 0.0, idx: 259, rnd:[0.48555847])&#45;&gt;(val: 1 rnd:[0.57199571])</title>
<path fill="none" stroke="black" d="M1694.27,-75.57C1695.73,-65.56 1697.13,-55.95 1698.34,-47.64"/>
<polygon fill="black" stroke="black" points="1701.83,-47.94 1699.81,-37.54 1694.91,-46.93 1701.83,-47.94"/>
</g>
<!-- (val: 1 rnd:[0.08573152]) -->
<g id="node56" class="node">
<title>(val: 1 rnd:[0.08573152])</title>
<ellipse fill="none" stroke="black" cx="1786.29" cy="-19.5" rx="18" ry="18"/>
<text text-anchor="middle" x="1786.29" y="-15.8" font-family="Times,serif" font-size="14.00">1</text>
</g>
<!-- (val: 2.0, idx: 77, rnd:[0.39912217])&#45;&gt;(val: 1 rnd:[0.08573152]) -->
<g id="edge55" class="edge">
<title>(val: 2.0, idx: 77, rnd:[0.39912217])&#45;&gt;(val: 1 rnd:[0.08573152])</title>
<path fill="none" stroke="black" d="M1816.49,-114.76C1809.31,-92.36 1800.78,-65.71 1794.62,-46.47"/>
<polygon fill="black" stroke="black" points="1797.93,-45.34 1791.54,-36.89 1791.26,-47.48 1797.93,-45.34"/>
</g>
<!-- (val: 1 rnd:[0.38724599]) -->
<g id="node57" class="node">
<title>(val: 1 rnd:[0.38724599])</title>
<ellipse fill="none" stroke="black" cx="1840.29" cy="-19.5" rx="18" ry="18"/>
<text text-anchor="middle" x="1840.29" y="-15.8" font-family="Times,serif" font-size="14.00">1</text>
</g>
<!-- (val: 2.0, idx: 77, rnd:[0.39912217])&#45;&gt;(val: 1 rnd:[0.38724599]) -->
<g id="edge56" class="edge">
<title>(val: 2.0, idx: 77, rnd:[0.39912217])&#45;&gt;(val: 1 rnd:[0.38724599])</title>
<path fill="none" stroke="black" d="M1833.6,-112.49C1835.16,-91.06 1836.97,-66.21 1838.31,-47.73"/>
<polygon fill="black" stroke="black" points="1841.81,-47.9 1839.04,-37.67 1834.83,-47.39 1841.81,-47.9"/>
</g>
<!-- (val: &#45;1 rnd:[0.38045991]) -->
<g id="node58" class="node">
<title>(val: &#45;1 rnd:[0.38045991])</title>
<ellipse fill="none" stroke="black" cx="1932.29" cy="-19.5" rx="19.5" ry="19.5"/>
<text text-anchor="middle" x="1932.29" y="-15.8" font-family="Times,serif" font-size="14.00">&#45;1</text>
</g>
<!-- (val: 0.0, idx: 4, rnd:[0.95892124])&#45;&gt;(val: &#45;1 rnd:[0.38045991]) -->
<g id="edge57" class="edge">
<title>(val: 0.0, idx: 4, rnd:[0.95892124])&#45;&gt;(val: &#45;1 rnd:[0.38045991])</title>
<path fill="none" stroke="black" d="M1947.2,-93.59C1943.99,-77.88 1940.73,-61.87 1938.07,-48.84"/>
<polygon fill="black" stroke="black" points="1941.43,-47.78 1936,-38.68 1934.57,-49.18 1941.43,-47.78"/>
</g>
<!-- (val: 1 rnd:[0.15459325]) -->
<g id="node59" class="node">
<title>(val: 1 rnd:[0.15459325])</title>
<ellipse fill="none" stroke="black" cx="1987.29" cy="-19.5" rx="18" ry="18"/>
<text text-anchor="middle" x="1987.29" y="-15.8" font-family="Times,serif" font-size="14.00">1</text>
</g>
<!-- (val: 0.0, idx: 4, rnd:[0.95892124])&#45;&gt;(val: 1 rnd:[0.15459325]) -->
<g id="edge58" class="edge">
<title>(val: 0.0, idx: 4, rnd:[0.95892124])&#45;&gt;(val: 1 rnd:[0.15459325])</title>
<path fill="none" stroke="black" d="M1972.92,-93.59C1976.15,-77.18 1979.45,-60.42 1982.06,-47.1"/>
<polygon fill="black" stroke="black" points="1985.51,-47.72 1984.01,-37.23 1978.64,-46.37 1985.51,-47.72"/>
</g>
<!-- (val: &#45;1 rnd:[0.47973409]) -->
<g id="node60" class="node">
<title>(val: &#45;1 rnd:[0.47973409])</title>
<ellipse fill="none" stroke="black" cx="2135.29" cy="-19.5" rx="19.5" ry="19.5"/>
<text text-anchor="middle" x="2135.29" y="-15.8" font-family="Times,serif" font-size="14.00">&#45;1</text>
</g>
<!-- (val: 0.0, idx: 118, rnd:[0.06567748])&#45;&gt;(val: &#45;1 rnd:[0.47973409]) -->
<g id="edge59" class="edge">
<title>(val: 0.0, idx: 118, rnd:[0.06567748])&#45;&gt;(val: &#45;1 rnd:[0.47973409])</title>
<path fill="none" stroke="black" d="M2150.44,-94.8C2147.15,-78.66 2143.78,-62.11 2141.05,-48.73"/>
<polygon fill="black" stroke="black" points="2144.44,-47.86 2139.02,-38.76 2137.58,-49.25 2144.44,-47.86"/>
</g>
<!-- (val: 1 rnd:[0.58122582]) -->
<g id="node61" class="node">
<title>(val: 1 rnd:[0.58122582])</title>
<ellipse fill="none" stroke="black" cx="2190.29" cy="-19.5" rx="18" ry="18"/>
<text text-anchor="middle" x="2190.29" y="-15.8" font-family="Times,serif" font-size="14.00">1</text>
</g>
<!-- (val: 0.0, idx: 118, rnd:[0.06567748])&#45;&gt;(val: 1 rnd:[0.58122582]) -->
<g id="edge60" class="edge">
<title>(val: 0.0, idx: 118, rnd:[0.06567748])&#45;&gt;(val: 1 rnd:[0.58122582])</title>
<path fill="none" stroke="black" d="M2175.69,-94.8C2178.97,-78.1 2182.34,-60.96 2185.01,-47.36"/>
<polygon fill="black" stroke="black" points="2188.5,-47.77 2186.99,-37.28 2181.63,-46.42 2188.5,-47.77"/>
</g>
</g>
</svg>
