<?xml version="1.0" encoding="UTF-8" standalone="no"?>
<!DOCTYPE svg PUBLIC "-//W3C//DTD SVG 1.1//EN"
 "http://www.w3.org/Graphics/SVG/1.1/DTD/svg11.dtd">
<!-- Generated by graphviz version 2.43.0 (0)
 -->
<!-- Title: tree Pages: 1 -->
<svg width="1809pt" height="954pt"
 viewBox="0.00 0.00 1808.89 953.63" xmlns="http://www.w3.org/2000/svg" xmlns:xlink="http://www.w3.org/1999/xlink">
<g id="graph0" class="graph" transform="scale(1 1) rotate(0) translate(4 949.63)">
<title>tree</title>
<polygon fill="white" stroke="transparent" points="-4,4 -4,-949.63 1804.89,-949.63 1804.89,4 -4,4"/>
<!-- (val: 0.0, idx: 2, rnd:[0.2092189]) -->
<g id="node1" class="node">
<title>(val: 0.0, idx: 2, rnd:[0.2092189])</title>
<ellipse fill="none" stroke="black" cx="1023.64" cy="-885.19" rx="60.39" ry="60.39"/>
<text text-anchor="middle" x="1023.64" y="-881.49" font-family="Times,serif" font-size="14.00">http&lt;=0.0</text>
</g>
<!-- (val: 0.0, idx: 16, rnd:[0.04403197]) -->
<g id="node2" class="node">
<title>(val: 0.0, idx: 16, rnd:[0.04403197])</title>
<ellipse fill="none" stroke="black" cx="846.64" cy="-717.25" rx="71.49" ry="71.49"/>
<text text-anchor="middle" x="846.64" y="-713.55" font-family="Times,serif" font-size="14.00">money&lt;=0.0</text>
</g>
<!-- (val: 0.0, idx: 2, rnd:[0.2092189])&#45;&gt;(val: 0.0, idx: 16, rnd:[0.04403197]) -->
<g id="edge1" class="edge">
<title>(val: 0.0, idx: 2, rnd:[0.2092189])&#45;&gt;(val: 0.0, idx: 16, rnd:[0.04403197])</title>
<path fill="none" stroke="black" d="M979.89,-843.17C957.53,-822.21 930,-796.4 905.78,-773.69"/>
<polygon fill="black" stroke="black" points="908.07,-771.04 898.38,-766.75 903.28,-776.15 908.07,-771.04"/>
</g>
<!-- (val: 0.0, idx: 268, rnd:[0.12403471]) -->
<g id="node3" class="node">
<title>(val: 0.0, idx: 268, rnd:[0.12403471])</title>
<ellipse fill="none" stroke="black" cx="1121.64" cy="-717.25" rx="58.49" ry="58.49"/>
<text text-anchor="middle" x="1121.64" y="-713.55" font-family="Times,serif" font-size="14.00">php&lt;=0.0</text>
</g>
<!-- (val: 0.0, idx: 2, rnd:[0.2092189])&#45;&gt;(val: 0.0, idx: 268, rnd:[0.12403471]) -->
<g id="edge2" class="edge">
<title>(val: 0.0, idx: 2, rnd:[0.2092189])&#45;&gt;(val: 0.0, idx: 268, rnd:[0.12403471])</title>
<path fill="none" stroke="black" d="M1054.11,-832.59C1064.54,-814.93 1076.29,-795.05 1087.02,-776.87"/>
<polygon fill="black" stroke="black" points="1090.13,-778.5 1092.2,-768.11 1084.1,-774.94 1090.13,-778.5"/>
</g>
<!-- (val: 0.0, idx: 23, rnd:[0.08972914]) -->
<g id="node4" class="node">
<title>(val: 0.0, idx: 23, rnd:[0.08972914])</title>
<ellipse fill="none" stroke="black" cx="457.64" cy="-543.46" rx="61.99" ry="61.99"/>
<text text-anchor="middle" x="457.64" y="-539.76" font-family="Times,serif" font-size="14.00">click&lt;=0.0</text>
</g>
<!-- (val: 0.0, idx: 16, rnd:[0.04403197])&#45;&gt;(val: 0.0, idx: 23, rnd:[0.08972914]) -->
<g id="edge3" class="edge">
<title>(val: 0.0, idx: 16, rnd:[0.04403197])&#45;&gt;(val: 0.0, idx: 23, rnd:[0.08972914])</title>
<path fill="none" stroke="black" d="M781.53,-687.5C709.81,-655.82 595.13,-605.18 523.22,-573.42"/>
<polygon fill="black" stroke="black" points="524.36,-570.1 513.8,-569.26 521.53,-576.5 524.36,-570.1"/>
</g>
<!-- (val: 0.0, idx: 4, rnd:[0.59817385]) -->
<g id="node5" class="node">
<title>(val: 0.0, idx: 4, rnd:[0.59817385])</title>
<ellipse fill="none" stroke="black" cx="846.64" cy="-543.46" rx="66.09" ry="66.09"/>
<text text-anchor="middle" x="846.64" y="-539.76" font-family="Times,serif" font-size="14.00">email&lt;=0.0</text>
</g>
<!-- (val: 0.0, idx: 16, rnd:[0.04403197])&#45;&gt;(val: 0.0, idx: 4, rnd:[0.59817385]) -->
<g id="edge4" class="edge">
<title>(val: 0.0, idx: 16, rnd:[0.04403197])&#45;&gt;(val: 0.0, idx: 4, rnd:[0.59817385])</title>
<path fill="none" stroke="black" d="M846.64,-645.38C846.64,-637.04 846.64,-628.5 846.64,-620.09"/>
<polygon fill="black" stroke="black" points="850.14,-619.93 846.64,-609.93 843.14,-619.93 850.14,-619.93"/>
</g>
<!-- (val: 1 rnd:[0.05373772]) -->
<g id="node6" class="node">
<title>(val: 1 rnd:[0.05373772])</title>
<ellipse fill="none" stroke="black" cx="1121.64" cy="-543.46" rx="18" ry="18"/>
<text text-anchor="middle" x="1121.64" y="-539.76" font-family="Times,serif" font-size="14.00">1</text>
</g>
<!-- (val: 0.0, idx: 268, rnd:[0.12403471])&#45;&gt;(val: 1 rnd:[0.05373772]) -->
<g id="edge6" class="edge">
<title>(val: 0.0, idx: 268, rnd:[0.12403471])&#45;&gt;(val: 1 rnd:[0.05373772])</title>
<path fill="none" stroke="black" d="M1121.64,-658.57C1121.64,-629.29 1121.64,-595.08 1121.64,-571.81"/>
<polygon fill="black" stroke="black" points="1125.14,-571.64 1121.64,-561.64 1118.14,-571.64 1125.14,-571.64"/>
</g>
<!-- (val: 0.0, idx: 73, rnd:[0.47726363]) -->
<g id="node7" class="node">
<title>(val: 0.0, idx: 73, rnd:[0.47726363])</title>
<ellipse fill="none" stroke="black" cx="1302.64" cy="-543.46" rx="57.39" ry="57.39"/>
<text text-anchor="middle" x="1302.64" y="-539.76" font-family="Times,serif" font-size="14.00">gas&lt;=0.0</text>
</g>
<!-- (val: 0.0, idx: 268, rnd:[0.12403471])&#45;&gt;(val: 0.0, idx: 73, rnd:[0.47726363]) -->
<g id="edge5" class="edge">
<title>(val: 0.0, idx: 268, rnd:[0.12403471])&#45;&gt;(val: 0.0, idx: 73, rnd:[0.47726363])</title>
<path fill="none" stroke="black" d="M1163.62,-676.41C1190.66,-650.75 1225.89,-617.31 1254.13,-590.51"/>
<polygon fill="black" stroke="black" points="1256.67,-592.92 1261.52,-583.5 1251.85,-587.84 1256.67,-592.92"/>
</g>
<!-- (val: 0.0, idx: 289, rnd:[0.57216772]) -->
<g id="node8" class="node">
<title>(val: 0.0, idx: 289, rnd:[0.57216772])</title>
<ellipse fill="none" stroke="black" cx="210.64" cy="-358.62" rx="53.09" ry="53.09"/>
<text text-anchor="middle" x="210.64" y="-354.92" font-family="Times,serif" font-size="14.00">let&lt;=0.0</text>
</g>
<!-- (val: 0.0, idx: 23, rnd:[0.08972914])&#45;&gt;(val: 0.0, idx: 289, rnd:[0.57216772]) -->
<g id="edge7" class="edge">
<title>(val: 0.0, idx: 23, rnd:[0.08972914])&#45;&gt;(val: 0.0, idx: 289, rnd:[0.57216772])</title>
<path fill="none" stroke="black" d="M408.25,-505.9C365.67,-474.38 304.42,-429.04 261.43,-397.22"/>
<polygon fill="black" stroke="black" points="263.48,-394.38 253.36,-391.24 259.31,-400.01 263.48,-394.38"/>
</g>
<!-- (val: 2.0, idx: 456, rnd:[0.08401604]) -->
<g id="node9" class="node">
<title>(val: 2.0, idx: 456, rnd:[0.08401604])</title>
<ellipse fill="none" stroke="black" cx="457.64" cy="-358.62" rx="76.89" ry="76.89"/>
<text text-anchor="middle" x="457.64" y="-354.92" font-family="Times,serif" font-size="14.00">request&lt;=2.0</text>
</g>
<!-- (val: 0.0, idx: 23, rnd:[0.08972914])&#45;&gt;(val: 2.0, idx: 456, rnd:[0.08401604]) -->
<g id="edge8" class="edge">
<title>(val: 0.0, idx: 23, rnd:[0.08972914])&#45;&gt;(val: 2.0, idx: 456, rnd:[0.08401604])</title>
<path fill="none" stroke="black" d="M457.64,-481.58C457.64,-470.06 457.64,-457.8 457.64,-445.67"/>
<polygon fill="black" stroke="black" points="461.14,-445.53 457.64,-435.53 454.14,-445.53 461.14,-445.53"/>
</g>
<!-- (val: 0.0, idx: 1, rnd:[0.20790342]) -->
<g id="node10" class="node">
<title>(val: 0.0, idx: 1, rnd:[0.20790342])</title>
<ellipse fill="none" stroke="black" cx="761.64" cy="-358.62" rx="82.59" ry="82.59"/>
<text text-anchor="middle" x="761.64" y="-354.92" font-family="Times,serif" font-size="14.00">company&lt;=0.0</text>
</g>
<!-- (val: 0.0, idx: 4, rnd:[0.59817385])&#45;&gt;(val: 0.0, idx: 1, rnd:[0.20790342]) -->
<g id="edge10" class="edge">
<title>(val: 0.0, idx: 4, rnd:[0.59817385])&#45;&gt;(val: 0.0, idx: 1, rnd:[0.20790342])</title>
<path fill="none" stroke="black" d="M819.05,-483.1C813.1,-470.31 806.71,-456.55 800.42,-443.04"/>
<polygon fill="black" stroke="black" points="803.49,-441.33 796.1,-433.73 797.14,-444.28 803.49,-441.33"/>
</g>
<!-- (val: 1.0, idx: 331, rnd:[0.93311288]) -->
<g id="node11" class="node">
<title>(val: 1.0, idx: 331, rnd:[0.93311288])</title>
<ellipse fill="none" stroke="black" cx="931.64" cy="-358.62" rx="69.59" ry="69.59"/>
<text text-anchor="middle" x="931.64" y="-354.92" font-family="Times,serif" font-size="14.00">power&lt;=1.0</text>
</g>
<!-- (val: 0.0, idx: 4, rnd:[0.59817385])&#45;&gt;(val: 1.0, idx: 331, rnd:[0.93311288]) -->
<g id="edge9" class="edge">
<title>(val: 0.0, idx: 4, rnd:[0.59817385])&#45;&gt;(val: 1.0, idx: 331, rnd:[0.93311288])</title>
<path fill="none" stroke="black" d="M874.24,-483.1C881.89,-466.65 890.28,-448.61 898.22,-431.52"/>
<polygon fill="black" stroke="black" points="901.54,-432.69 902.58,-422.15 895.19,-429.74 901.54,-432.69"/>
</g>
<!-- (val: 1.0, idx: 130, rnd:[0.18850402]) -->
<g id="node12" class="node">
<title>(val: 1.0, idx: 130, rnd:[0.18850402])</title>
<ellipse fill="none" stroke="black" cx="1302.64" cy="-358.62" rx="61.19" ry="61.19"/>
<text text-anchor="middle" x="1302.64" y="-354.92" font-family="Times,serif" font-size="14.00">visit&lt;=1.0</text>
</g>
<!-- (val: 0.0, idx: 73, rnd:[0.47726363])&#45;&gt;(val: 1.0, idx: 130, rnd:[0.18850402]) -->
<g id="edge12" class="edge">
<title>(val: 0.0, idx: 73, rnd:[0.47726363])&#45;&gt;(val: 1.0, idx: 130, rnd:[0.18850402])</title>
<path fill="none" stroke="black" d="M1302.64,-486.11C1302.64,-468.41 1302.64,-448.63 1302.64,-430.07"/>
<polygon fill="black" stroke="black" points="1306.14,-429.91 1302.64,-419.91 1299.14,-429.91 1306.14,-429.91"/>
</g>
<!-- (val: 0.0, idx: 111, rnd:[0.66055286]) -->
<g id="node13" class="node">
<title>(val: 0.0, idx: 111, rnd:[0.66055286])</title>
<ellipse fill="none" stroke="black" cx="1548.64" cy="-358.62" rx="59.59" ry="59.59"/>
<text text-anchor="middle" x="1548.64" y="-354.92" font-family="Times,serif" font-size="14.00">web&lt;=0.0</text>
</g>
<!-- (val: 0.0, idx: 73, rnd:[0.47726363])&#45;&gt;(val: 0.0, idx: 111, rnd:[0.66055286]) -->
<g id="edge11" class="edge">
<title>(val: 0.0, idx: 73, rnd:[0.47726363])&#45;&gt;(val: 0.0, idx: 111, rnd:[0.66055286])</title>
<path fill="none" stroke="black" d="M1348.34,-508.5C1389.2,-478.13 1449.19,-433.54 1492.87,-401.08"/>
<polygon fill="black" stroke="black" points="1495.16,-403.74 1501.1,-394.96 1490.98,-398.12 1495.16,-403.74"/>
</g>
<!-- (val: 0.0, idx: 84, rnd:[0.21831203]) -->
<g id="node14" class="node">
<title>(val: 0.0, idx: 84, rnd:[0.21831203])</title>
<ellipse fill="none" stroke="black" cx="65.64" cy="-157.54" rx="65.79" ry="65.79"/>
<text text-anchor="middle" x="65.64" y="-153.84" font-family="Times,serif" font-size="14.00">know&lt;=0.0</text>
</g>
<!-- (val: 0.0, idx: 289, rnd:[0.57216772])&#45;&gt;(val: 0.0, idx: 84, rnd:[0.21831203]) -->
<g id="edge14" class="edge">
<title>(val: 0.0, idx: 289, rnd:[0.57216772])&#45;&gt;(val: 0.0, idx: 84, rnd:[0.21831203])</title>
<path fill="none" stroke="black" d="M179.54,-314.92C159.22,-287.02 132.38,-250.16 109.85,-219.24"/>
<polygon fill="black" stroke="black" points="112.64,-217.12 103.93,-211.1 106.98,-221.24 112.64,-217.12"/>
</g>
<!-- (val: 0.0, idx: 115, rnd:[0.00939593]) -->
<g id="node15" class="node">
<title>(val: 0.0, idx: 115, rnd:[0.00939593])</title>
<ellipse fill="none" stroke="black" cx="210.64" cy="-157.54" rx="61.19" ry="61.19"/>
<text text-anchor="middle" x="210.64" y="-153.84" font-family="Times,serif" font-size="14.00">stop&lt;=0.0</text>
</g>
<!-- (val: 0.0, idx: 289, rnd:[0.57216772])&#45;&gt;(val: 0.0, idx: 115, rnd:[0.00939593]) -->
<g id="edge13" class="edge">
<title>(val: 0.0, idx: 289, rnd:[0.57216772])&#45;&gt;(val: 0.0, idx: 115, rnd:[0.00939593])</title>
<path fill="none" stroke="black" d="M210.64,-305.32C210.64,-282.03 210.64,-254.25 210.64,-229.16"/>
<polygon fill="black" stroke="black" points="214.14,-228.96 210.64,-218.96 207.14,-228.96 214.14,-228.96"/>
</g>
<!-- (val: 0.0, idx: 112, rnd:[0.22728371]) -->
<g id="node16" class="node">
<title>(val: 0.0, idx: 112, rnd:[0.22728371])</title>
<ellipse fill="none" stroke="black" cx="372.64" cy="-157.54" rx="82.59" ry="82.59"/>
<text text-anchor="middle" x="372.64" y="-153.84" font-family="Times,serif" font-size="14.00">available&lt;=0.0</text>
</g>
<!-- (val: 2.0, idx: 456, rnd:[0.08401604])&#45;&gt;(val: 0.0, idx: 112, rnd:[0.22728371]) -->
<g id="edge15" class="edge">
<title>(val: 2.0, idx: 456, rnd:[0.08401604])&#45;&gt;(val: 0.0, idx: 112, rnd:[0.22728371])</title>
<path fill="none" stroke="black" d="M427.8,-287.71C421.62,-273.24 415.04,-257.85 408.67,-242.92"/>
<polygon fill="black" stroke="black" points="411.88,-241.52 404.73,-233.7 405.44,-244.27 411.88,-241.52"/>
</g>
<!-- (val: 3.0, idx: 6, rnd:[0.36486588]) -->
<g id="node17" class="node">
<title>(val: 3.0, idx: 6, rnd:[0.36486588])</title>
<ellipse fill="none" stroke="black" cx="543.64" cy="-157.54" rx="70.69" ry="70.69"/>
<text text-anchor="middle" x="543.64" y="-153.84" font-family="Times,serif" font-size="14.00">please&lt;=3.0</text>
</g>
<!-- (val: 2.0, idx: 456, rnd:[0.08401604])&#45;&gt;(val: 3.0, idx: 6, rnd:[0.36486588]) -->
<g id="edge16" class="edge">
<title>(val: 2.0, idx: 456, rnd:[0.08401604])&#45;&gt;(val: 3.0, idx: 6, rnd:[0.36486588])</title>
<path fill="none" stroke="black" d="M487.72,-287.99C495.52,-269.95 503.94,-250.45 511.82,-232.21"/>
<polygon fill="black" stroke="black" points="515.13,-233.36 515.89,-222.79 508.71,-230.59 515.13,-233.36"/>
</g>
<!-- (val: 1 rnd:[0.34120711]) -->
<g id="node18" class="node">
<title>(val: 1 rnd:[0.34120711])</title>
<ellipse fill="none" stroke="black" cx="650.64" cy="-157.54" rx="18" ry="18"/>
<text text-anchor="middle" x="650.64" y="-153.84" font-family="Times,serif" font-size="14.00">1</text>
</g>
<!-- (val: 0.0, idx: 1, rnd:[0.20790342])&#45;&gt;(val: 1 rnd:[0.34120711]) -->
<g id="edge18" class="edge">
<title>(val: 0.0, idx: 1, rnd:[0.20790342])&#45;&gt;(val: 1 rnd:[0.34120711])</title>
<path fill="none" stroke="black" d="M710.67,-293.64C698.78,-276.84 686.9,-258.31 677.64,-240.08 668.78,-222.63 661.91,-201.64 657.31,-185.33"/>
<polygon fill="black" stroke="black" points="660.61,-184.11 654.63,-175.37 653.85,-185.93 660.61,-184.11"/>
</g>
<!-- (val: 0.0, idx: 35, rnd:[0.99491477]) -->
<g id="node19" class="node">
<title>(val: 0.0, idx: 35, rnd:[0.99491477])</title>
<ellipse fill="none" stroke="black" cx="763.64" cy="-157.54" rx="77.19" ry="77.19"/>
<text text-anchor="middle" x="763.64" y="-153.84" font-family="Times,serif" font-size="14.00">address&lt;=0.0</text>
</g>
<!-- (val: 0.0, idx: 1, rnd:[0.20790342])&#45;&gt;(val: 0.0, idx: 35, rnd:[0.99491477]) -->
<g id="edge17" class="edge">
<title>(val: 0.0, idx: 1, rnd:[0.20790342])&#45;&gt;(val: 0.0, idx: 35, rnd:[0.99491477])</title>
<path fill="none" stroke="black" d="M762.46,-276.07C762.57,-265.93 762.67,-255.52 762.77,-245.3"/>
<polygon fill="black" stroke="black" points="766.27,-245.19 762.87,-235.15 759.27,-245.12 766.27,-245.19"/>
</g>
<!-- (val: 0.0, idx: 48, rnd:[0.38240154]) -->
<g id="node20" class="node">
<title>(val: 0.0, idx: 48, rnd:[0.38240154])</title>
<ellipse fill="none" stroke="black" cx="928.64" cy="-157.54" rx="69.59" ry="69.59"/>
<text text-anchor="middle" x="928.64" y="-153.84" font-family="Times,serif" font-size="14.00">online&lt;=0.0</text>
</g>
<!-- (val: 1.0, idx: 331, rnd:[0.93311288])&#45;&gt;(val: 0.0, idx: 48, rnd:[0.38240154]) -->
<g id="edge19" class="edge">
<title>(val: 1.0, idx: 331, rnd:[0.93311288])&#45;&gt;(val: 0.0, idx: 48, rnd:[0.38240154])</title>
<path fill="none" stroke="black" d="M930.61,-288.83C930.36,-272.36 930.09,-254.64 929.84,-237.73"/>
<polygon fill="black" stroke="black" points="933.33,-237.28 929.68,-227.33 926.33,-237.39 933.33,-237.28"/>
</g>
<!-- (val: 0.0, idx: 230, rnd:[0.52090646]) -->
<g id="node21" class="node">
<title>(val: 0.0, idx: 230, rnd:[0.52090646])</title>
<ellipse fill="none" stroke="black" cx="1081.64" cy="-157.54" rx="64.99" ry="64.99"/>
<text text-anchor="middle" x="1081.64" y="-153.84" font-family="Times,serif" font-size="14.00">week&lt;=0.0</text>
</g>
<!-- (val: 1.0, idx: 331, rnd:[0.93311288])&#45;&gt;(val: 0.0, idx: 230, rnd:[0.52090646]) -->
<g id="edge20" class="edge">
<title>(val: 1.0, idx: 331, rnd:[0.93311288])&#45;&gt;(val: 0.0, idx: 230, rnd:[0.52090646])</title>
<path fill="none" stroke="black" d="M973.03,-302.7C992.83,-276.41 1016.58,-244.89 1036.81,-218.04"/>
<polygon fill="black" stroke="black" points="1039.75,-219.96 1042.97,-209.87 1034.16,-215.75 1039.75,-219.96"/>
</g>
<!-- (val: 7.0, idx: 0, rnd:[0.64264533]) -->
<g id="node22" class="node">
<title>(val: 7.0, idx: 0, rnd:[0.64264533])</title>
<ellipse fill="none" stroke="black" cx="1224.64" cy="-157.54" rx="59.59" ry="59.59"/>
<text text-anchor="middle" x="1224.64" y="-153.84" font-family="Times,serif" font-size="14.00">com&lt;=7.0</text>
</g>
<!-- (val: 1.0, idx: 130, rnd:[0.18850402])&#45;&gt;(val: 7.0, idx: 0, rnd:[0.64264533]) -->
<g id="edge22" class="edge">
<title>(val: 1.0, idx: 130, rnd:[0.18850402])&#45;&gt;(val: 7.0, idx: 0, rnd:[0.64264533])</title>
<path fill="none" stroke="black" d="M1280.61,-301.37C1271.06,-277 1259.83,-248.34 1249.94,-223.11"/>
<polygon fill="black" stroke="black" points="1253.13,-221.65 1246.22,-213.62 1246.61,-224.21 1253.13,-221.65"/>
</g>
<!-- (val: 2.0, idx: 229, rnd:[0.50099679]) -->
<g id="node23" class="node">
<title>(val: 2.0, idx: 229, rnd:[0.50099679])</title>
<ellipse fill="none" stroke="black" cx="1380.64" cy="-157.54" rx="78.79" ry="78.79"/>
<text text-anchor="middle" x="1380.64" y="-153.84" font-family="Times,serif" font-size="14.00">transfer&lt;=2.0</text>
</g>
<!-- (val: 1.0, idx: 130, rnd:[0.18850402])&#45;&gt;(val: 2.0, idx: 229, rnd:[0.50099679]) -->
<g id="edge21" class="edge">
<title>(val: 1.0, idx: 130, rnd:[0.18850402])&#45;&gt;(val: 2.0, idx: 229, rnd:[0.50099679])</title>
<path fill="none" stroke="black" d="M1324.68,-301.37C1332.11,-282.43 1340.55,-260.88 1348.58,-240.38"/>
<polygon fill="black" stroke="black" points="1351.85,-241.63 1352.24,-231.04 1345.33,-239.07 1351.85,-241.63"/>
</g>
<!-- (val: 0.0, idx: 16, rnd:[0.38253636]) -->
<g id="node24" class="node">
<title>(val: 0.0, idx: 16, rnd:[0.38253636])</title>
<ellipse fill="none" stroke="black" cx="1548.64" cy="-157.54" rx="71.49" ry="71.49"/>
<text text-anchor="middle" x="1548.64" y="-153.84" font-family="Times,serif" font-size="14.00">money&lt;=0.0</text>
</g>
<!-- (val: 0.0, idx: 111, rnd:[0.66055286])&#45;&gt;(val: 0.0, idx: 16, rnd:[0.38253636]) -->
<g id="edge23" class="edge">
<title>(val: 0.0, idx: 111, rnd:[0.66055286])&#45;&gt;(val: 0.0, idx: 16, rnd:[0.38253636])</title>
<path fill="none" stroke="black" d="M1548.64,-298.7C1548.64,-280.15 1548.64,-259.33 1548.64,-239.52"/>
<polygon fill="black" stroke="black" points="1552.14,-239.27 1548.64,-229.27 1545.14,-239.27 1552.14,-239.27"/>
</g>
<!-- (val: 0.0, idx: 54, rnd:[0.14569321]) -->
<g id="node25" class="node">
<title>(val: 0.0, idx: 54, rnd:[0.14569321])</title>
<ellipse fill="none" stroke="black" cx="1719.64" cy="-157.54" rx="81.49" ry="81.49"/>
<text text-anchor="middle" x="1719.64" y="-153.84" font-family="Times,serif" font-size="14.00">software&lt;=0.0</text>
</g>
<!-- (val: 0.0, idx: 111, rnd:[0.66055286])&#45;&gt;(val: 0.0, idx: 54, rnd:[0.14569321]) -->
<g id="edge24" class="edge">
<title>(val: 0.0, idx: 111, rnd:[0.66055286])&#45;&gt;(val: 0.0, idx: 54, rnd:[0.14569321])</title>
<path fill="none" stroke="black" d="M1587.45,-312.45C1608.97,-287.39 1636.2,-255.69 1660.34,-227.59"/>
<polygon fill="black" stroke="black" points="1663.2,-229.63 1667.06,-219.76 1657.89,-225.07 1663.2,-229.63"/>
</g>
<!-- (val: &#45;1 rnd:[0.46995713]) -->
<g id="node26" class="node">
<title>(val: &#45;1 rnd:[0.46995713])</title>
<ellipse fill="none" stroke="black" cx="37.64" cy="-19.5" rx="19.5" ry="19.5"/>
<text text-anchor="middle" x="37.64" y="-15.8" font-family="Times,serif" font-size="14.00">&#45;1</text>
</g>
<!-- (val: 0.0, idx: 84, rnd:[0.21831203])&#45;&gt;(val: &#45;1 rnd:[0.46995713]) -->
<g id="edge25" class="edge">
<title>(val: 0.0, idx: 84, rnd:[0.21831203])&#45;&gt;(val: &#45;1 rnd:[0.46995713])</title>
<path fill="none" stroke="black" d="M52.55,-92.9C49.37,-77.45 46.12,-61.69 43.48,-48.84"/>
<polygon fill="black" stroke="black" points="46.86,-47.89 41.41,-38.8 40,-49.3 46.86,-47.89"/>
</g>
<!-- (val: &#45;1 rnd:[0.7632774]) -->
<g id="node27" class="node">
<title>(val: &#45;1 rnd:[0.7632774])</title>
<ellipse fill="none" stroke="black" cx="94.64" cy="-19.5" rx="19.5" ry="19.5"/>
<text text-anchor="middle" x="94.64" y="-15.8" font-family="Times,serif" font-size="14.00">&#45;1</text>
</g>
<!-- (val: 0.0, idx: 84, rnd:[0.21831203])&#45;&gt;(val: &#45;1 rnd:[0.7632774]) -->
<g id="edge26" class="edge">
<title>(val: 0.0, idx: 84, rnd:[0.21831203])&#45;&gt;(val: &#45;1 rnd:[0.7632774])</title>
<path fill="none" stroke="black" d="M79.21,-92.9C82.5,-77.45 85.86,-61.69 88.6,-48.84"/>
<polygon fill="black" stroke="black" points="92.08,-49.31 90.74,-38.8 85.23,-47.86 92.08,-49.31"/>
</g>
<!-- (val: &#45;1 rnd:[0.96972736]) -->
<g id="node28" class="node">
<title>(val: &#45;1 rnd:[0.96972736])</title>
<ellipse fill="none" stroke="black" cx="183.64" cy="-19.5" rx="19.5" ry="19.5"/>
<text text-anchor="middle" x="183.64" y="-15.8" font-family="Times,serif" font-size="14.00">&#45;1</text>
</g>
<!-- (val: 0.0, idx: 115, rnd:[0.00939593])&#45;&gt;(val: &#45;1 rnd:[0.96972736]) -->
<g id="edge27" class="edge">
<title>(val: 0.0, idx: 115, rnd:[0.00939593])&#45;&gt;(val: &#45;1 rnd:[0.96972736])</title>
<path fill="none" stroke="black" d="M198.88,-97.27C195.55,-80.49 192.08,-62.99 189.29,-48.95"/>
<polygon fill="black" stroke="black" points="192.69,-48.08 187.31,-38.95 185.82,-49.44 192.69,-48.08"/>
</g>
<!-- (val: 1 rnd:[0.18884151]) -->
<g id="node29" class="node">
<title>(val: 1 rnd:[0.18884151])</title>
<ellipse fill="none" stroke="black" cx="238.64" cy="-19.5" rx="18" ry="18"/>
<text text-anchor="middle" x="238.64" y="-15.8" font-family="Times,serif" font-size="14.00">1</text>
</g>
<!-- (val: 0.0, idx: 115, rnd:[0.00939593])&#45;&gt;(val: 1 rnd:[0.18884151]) -->
<g id="edge28" class="edge">
<title>(val: 0.0, idx: 115, rnd:[0.00939593])&#45;&gt;(val: 1 rnd:[0.18884151])</title>
<path fill="none" stroke="black" d="M222.84,-97.27C226.41,-79.92 230.14,-61.8 233.08,-47.53"/>
<polygon fill="black" stroke="black" points="236.57,-47.94 235.16,-37.44 229.71,-46.52 236.57,-47.94"/>
</g>
<!-- (val: &#45;1 rnd:[0.45375592]) -->
<g id="node30" class="node">
<title>(val: &#45;1 rnd:[0.45375592])</title>
<ellipse fill="none" stroke="black" cx="346.64" cy="-19.5" rx="19.5" ry="19.5"/>
<text text-anchor="middle" x="346.64" y="-15.8" font-family="Times,serif" font-size="14.00">&#45;1</text>
</g>
<!-- (val: 0.0, idx: 112, rnd:[0.22728371])&#45;&gt;(val: &#45;1 rnd:[0.45375592]) -->
<g id="edge30" class="edge">
<title>(val: 0.0, idx: 112, rnd:[0.22728371])&#45;&gt;(val: &#45;1 rnd:[0.45375592])</title>
<path fill="none" stroke="black" d="M357.29,-76.22C355.43,-66.46 353.63,-57.05 352.06,-48.83"/>
<polygon fill="black" stroke="black" points="355.45,-47.95 350.14,-38.78 348.58,-49.26 355.45,-47.95"/>
</g>
<!-- (val: 1 rnd:[0.70845691]) -->
<g id="node31" class="node">
<title>(val: 1 rnd:[0.70845691])</title>
<ellipse fill="none" stroke="black" cx="401.64" cy="-19.5" rx="18" ry="18"/>
<text text-anchor="middle" x="401.64" y="-15.8" font-family="Times,serif" font-size="14.00">1</text>
</g>
<!-- (val: 0.0, idx: 112, rnd:[0.22728371])&#45;&gt;(val: 1 rnd:[0.70845691]) -->
<g id="edge29" class="edge">
<title>(val: 0.0, idx: 112, rnd:[0.22728371])&#45;&gt;(val: 1 rnd:[0.70845691])</title>
<path fill="none" stroke="black" d="M389.68,-76.62C391.93,-66.09 394.09,-55.96 395.94,-47.27"/>
<polygon fill="black" stroke="black" points="399.37,-47.96 398.03,-37.45 392.52,-46.5 399.37,-47.96"/>
</g>
<!-- (val: &#45;1 rnd:[0.4862129]) -->
<g id="node32" class="node">
<title>(val: &#45;1 rnd:[0.4862129])</title>
<ellipse fill="none" stroke="black" cx="516.64" cy="-19.5" rx="19.5" ry="19.5"/>
<text text-anchor="middle" x="516.64" y="-15.8" font-family="Times,serif" font-size="14.00">&#45;1</text>
</g>
<!-- (val: 3.0, idx: 6, rnd:[0.36486588])&#45;&gt;(val: &#45;1 rnd:[0.4862129]) -->
<g id="edge31" class="edge">
<title>(val: 3.0, idx: 6, rnd:[0.36486588])&#45;&gt;(val: &#45;1 rnd:[0.4862129])</title>
<path fill="none" stroke="black" d="M529.99,-87.72C527.27,-74.04 524.56,-60.4 522.3,-49.01"/>
<polygon fill="black" stroke="black" points="525.67,-47.99 520.29,-38.87 518.8,-49.36 525.67,-47.99"/>
</g>
<!-- (val: 1 rnd:[0.57225539]) -->
<g id="node33" class="node">
<title>(val: 1 rnd:[0.57225539])</title>
<ellipse fill="none" stroke="black" cx="571.64" cy="-19.5" rx="18" ry="18"/>
<text text-anchor="middle" x="571.64" y="-15.8" font-family="Times,serif" font-size="14.00">1</text>
</g>
<!-- (val: 3.0, idx: 6, rnd:[0.36486588])&#45;&gt;(val: 1 rnd:[0.57225539]) -->
<g id="edge32" class="edge">
<title>(val: 3.0, idx: 6, rnd:[0.36486588])&#45;&gt;(val: 1 rnd:[0.57225539])</title>
<path fill="none" stroke="black" d="M557.81,-87.72C560.78,-73.29 563.74,-58.91 566.15,-47.17"/>
<polygon fill="black" stroke="black" points="569.62,-47.71 568.2,-37.21 562.76,-46.3 569.62,-47.71"/>
</g>
<!-- (val: 1 rnd:[0.73469781]) -->
<g id="node34" class="node">
<title>(val: 1 rnd:[0.73469781])</title>
<ellipse fill="none" stroke="black" cx="736.64" cy="-19.5" rx="18" ry="18"/>
<text text-anchor="middle" x="736.64" y="-15.8" font-family="Times,serif" font-size="14.00">1</text>
</g>
<!-- (val: 0.0, idx: 35, rnd:[0.99491477])&#45;&gt;(val: 1 rnd:[0.73469781]) -->
<g id="edge33" class="edge">
<title>(val: 0.0, idx: 35, rnd:[0.99491477])&#45;&gt;(val: 1 rnd:[0.73469781])</title>
<path fill="none" stroke="black" d="M748.72,-81.36C746.3,-69.17 743.95,-57.3 741.97,-47.32"/>
<polygon fill="black" stroke="black" points="745.36,-46.44 739.98,-37.31 738.5,-47.8 745.36,-46.44"/>
</g>
<!-- (val: 1 rnd:[0.96921141]) -->
<g id="node35" class="node">
<title>(val: 1 rnd:[0.96921141])</title>
<ellipse fill="none" stroke="black" cx="790.64" cy="-19.5" rx="18" ry="18"/>
<text text-anchor="middle" x="790.64" y="-15.8" font-family="Times,serif" font-size="14.00">1</text>
</g>
<!-- (val: 0.0, idx: 35, rnd:[0.99491477])&#45;&gt;(val: 1 rnd:[0.96921141]) -->
<g id="edge34" class="edge">
<title>(val: 0.0, idx: 35, rnd:[0.99491477])&#45;&gt;(val: 1 rnd:[0.96921141])</title>
<path fill="none" stroke="black" d="M778.57,-81.36C780.98,-69.17 783.34,-57.3 785.32,-47.32"/>
<polygon fill="black" stroke="black" points="788.79,-47.8 787.31,-37.31 781.93,-46.44 788.79,-47.8"/>
</g>
<!-- (val: 1 rnd:[0.84812858]) -->
<g id="node36" class="node">
<title>(val: 1 rnd:[0.84812858])</title>
<ellipse fill="none" stroke="black" cx="901.64" cy="-19.5" rx="18" ry="18"/>
<text text-anchor="middle" x="901.64" y="-15.8" font-family="Times,serif" font-size="14.00">1</text>
</g>
<!-- (val: 0.0, idx: 48, rnd:[0.38240154])&#45;&gt;(val: 1 rnd:[0.84812858]) -->
<g id="edge35" class="edge">
<title>(val: 0.0, idx: 48, rnd:[0.38240154])&#45;&gt;(val: 1 rnd:[0.84812858])</title>
<path fill="none" stroke="black" d="M915.22,-88.92C912.28,-74.06 909.32,-59.18 906.93,-47.11"/>
<polygon fill="black" stroke="black" points="910.36,-46.43 904.98,-37.3 903.49,-47.79 910.36,-46.43"/>
</g>
<!-- (val: 1 rnd:[0.89146022]) -->
<g id="node37" class="node">
<title>(val: 1 rnd:[0.89146022])</title>
<ellipse fill="none" stroke="black" cx="955.64" cy="-19.5" rx="18" ry="18"/>
<text text-anchor="middle" x="955.64" y="-15.8" font-family="Times,serif" font-size="14.00">1</text>
</g>
<!-- (val: 0.0, idx: 48, rnd:[0.38240154])&#45;&gt;(val: 1 rnd:[0.89146022]) -->
<g id="edge36" class="edge">
<title>(val: 0.0, idx: 48, rnd:[0.38240154])&#45;&gt;(val: 1 rnd:[0.89146022])</title>
<path fill="none" stroke="black" d="M942.07,-88.92C945.01,-74.06 947.97,-59.18 950.36,-47.11"/>
<polygon fill="black" stroke="black" points="953.8,-47.79 952.31,-37.3 946.93,-46.43 953.8,-47.79"/>
</g>
<!-- (val: &#45;1 rnd:[0.34084842]) -->
<g id="node38" class="node">
<title>(val: &#45;1 rnd:[0.34084842])</title>
<ellipse fill="none" stroke="black" cx="1063.64" cy="-19.5" rx="19.5" ry="19.5"/>
<text text-anchor="middle" x="1063.64" y="-15.8" font-family="Times,serif" font-size="14.00">&#45;1</text>
</g>
<!-- (val: 0.0, idx: 230, rnd:[0.52090646])&#45;&gt;(val: &#45;1 rnd:[0.34084842]) -->
<g id="edge37" class="edge">
<title>(val: 0.0, idx: 230, rnd:[0.52090646])&#45;&gt;(val: &#45;1 rnd:[0.34084842])</title>
<path fill="none" stroke="black" d="M1073.22,-92.9C1071.19,-77.56 1069.12,-61.92 1067.43,-49.11"/>
<polygon fill="black" stroke="black" points="1070.89,-48.55 1066.11,-39.1 1063.95,-49.47 1070.89,-48.55"/>
</g>
<!-- (val: &#45;1 rnd:[0.8241524]) -->
<g id="node39" class="node">
<title>(val: &#45;1 rnd:[0.8241524])</title>
<ellipse fill="none" stroke="black" cx="1120.64" cy="-19.5" rx="19.5" ry="19.5"/>
<text text-anchor="middle" x="1120.64" y="-15.8" font-family="Times,serif" font-size="14.00">&#45;1</text>
</g>
<!-- (val: 0.0, idx: 230, rnd:[0.52090646])&#45;&gt;(val: &#45;1 rnd:[0.8241524]) -->
<g id="edge38" class="edge">
<title>(val: 0.0, idx: 230, rnd:[0.52090646])&#45;&gt;(val: &#45;1 rnd:[0.8241524])</title>
<path fill="none" stroke="black" d="M1099.32,-94.89C1104.01,-78.53 1108.84,-61.67 1112.72,-48.15"/>
<polygon fill="black" stroke="black" points="1116.08,-49.11 1115.48,-38.53 1109.36,-47.18 1116.08,-49.11"/>
</g>
<!-- (val: &#45;1 rnd:[0.77731068]) -->
<g id="node40" class="node">
<title>(val: &#45;1 rnd:[0.77731068])</title>
<ellipse fill="none" stroke="black" cx="1186.64" cy="-19.5" rx="19.5" ry="19.5"/>
<text text-anchor="middle" x="1186.64" y="-15.8" font-family="Times,serif" font-size="14.00">&#45;1</text>
</g>
<!-- (val: 7.0, idx: 0, rnd:[0.64264533])&#45;&gt;(val: &#45;1 rnd:[0.77731068]) -->
<g id="edge40" class="edge">
<title>(val: 7.0, idx: 0, rnd:[0.64264533])&#45;&gt;(val: &#45;1 rnd:[0.77731068])</title>
<path fill="none" stroke="black" d="M1208.75,-99.63C1203.81,-81.94 1198.58,-63.21 1194.44,-48.42"/>
<polygon fill="black" stroke="black" points="1197.71,-47.11 1191.65,-38.42 1190.97,-48.99 1197.71,-47.11"/>
</g>
<!-- (val: 1 rnd:[0.24566388]) -->
<g id="node41" class="node">
<title>(val: 1 rnd:[0.24566388])</title>
<ellipse fill="none" stroke="black" cx="1241.64" cy="-19.5" rx="18" ry="18"/>
<text text-anchor="middle" x="1241.64" y="-15.8" font-family="Times,serif" font-size="14.00">1</text>
</g>
<!-- (val: 7.0, idx: 0, rnd:[0.64264533])&#45;&gt;(val: 1 rnd:[0.24566388]) -->
<g id="edge39" class="edge">
<title>(val: 7.0, idx: 0, rnd:[0.64264533])&#45;&gt;(val: 1 rnd:[0.24566388])</title>
<path fill="none" stroke="black" d="M1231.95,-98.06C1234.13,-80.61 1236.42,-62.31 1238.22,-47.87"/>
<polygon fill="black" stroke="black" points="1241.73,-48.02 1239.5,-37.66 1234.79,-47.15 1241.73,-48.02"/>
</g>
<!-- (val: &#45;1 rnd:[0.19443021]) -->
<g id="node42" class="node">
<title>(val: &#45;1 rnd:[0.19443021])</title>
<ellipse fill="none" stroke="black" cx="1352.64" cy="-19.5" rx="19.5" ry="19.5"/>
<text text-anchor="middle" x="1352.64" y="-15.8" font-family="Times,serif" font-size="14.00">&#45;1</text>
</g>
<!-- (val: 2.0, idx: 229, rnd:[0.50099679])&#45;&gt;(val: &#45;1 rnd:[0.19443021]) -->
<g id="edge41" class="edge">
<title>(val: 2.0, idx: 229, rnd:[0.50099679])&#45;&gt;(val: &#45;1 rnd:[0.19443021])</title>
<path fill="none" stroke="black" d="M1364.93,-80.17C1362.61,-68.9 1360.35,-57.95 1358.42,-48.56"/>
<polygon fill="black" stroke="black" points="1361.84,-47.79 1356.39,-38.7 1354.98,-49.2 1361.84,-47.79"/>
</g>
<!-- (val: 1 rnd:[0.09192362]) -->
<g id="node43" class="node">
<title>(val: 1 rnd:[0.09192362])</title>
<ellipse fill="none" stroke="black" cx="1407.64" cy="-19.5" rx="18" ry="18"/>
<text text-anchor="middle" x="1407.64" y="-15.8" font-family="Times,serif" font-size="14.00">1</text>
</g>
<!-- (val: 2.0, idx: 229, rnd:[0.50099679])&#45;&gt;(val: 1 rnd:[0.09192362]) -->
<g id="edge42" class="edge">
<title>(val: 2.0, idx: 229, rnd:[0.50099679])&#45;&gt;(val: 1 rnd:[0.09192362])</title>
<path fill="none" stroke="black" d="M1395.8,-80.17C1398.12,-68.46 1400.38,-57.09 1402.29,-47.47"/>
<polygon fill="black" stroke="black" points="1405.77,-47.92 1404.28,-37.43 1398.9,-46.56 1405.77,-47.92"/>
</g>
<!-- (val: 1 rnd:[0.42751857]) -->
<g id="node44" class="node">
<title>(val: 1 rnd:[0.42751857])</title>
<ellipse fill="none" stroke="black" cx="1521.64" cy="-19.5" rx="18" ry="18"/>
<text text-anchor="middle" x="1521.64" y="-15.8" font-family="Times,serif" font-size="14.00">1</text>
</g>
<!-- (val: 0.0, idx: 16, rnd:[0.38253636])&#45;&gt;(val: 1 rnd:[0.42751857]) -->
<g id="edge43" class="edge">
<title>(val: 0.0, idx: 16, rnd:[0.38253636])&#45;&gt;(val: 1 rnd:[0.42751857])</title>
<path fill="none" stroke="black" d="M1534.91,-87.32C1532.07,-73.05 1529.26,-58.85 1526.95,-47.23"/>
<polygon fill="black" stroke="black" points="1530.37,-46.49 1524.99,-37.36 1523.5,-47.85 1530.37,-46.49"/>
</g>
<!-- (val: 1 rnd:[0.03499704]) -->
<g id="node45" class="node">
<title>(val: 1 rnd:[0.03499704])</title>
<ellipse fill="none" stroke="black" cx="1575.64" cy="-19.5" rx="18" ry="18"/>
<text text-anchor="middle" x="1575.64" y="-15.8" font-family="Times,serif" font-size="14.00">1</text>
</g>
<!-- (val: 0.0, idx: 16, rnd:[0.38253636])&#45;&gt;(val: 1 rnd:[0.03499704]) -->
<g id="edge44" class="edge">
<title>(val: 0.0, idx: 16, rnd:[0.38253636])&#45;&gt;(val: 1 rnd:[0.03499704])</title>
<path fill="none" stroke="black" d="M1562.38,-87.32C1565.21,-73.05 1568.03,-58.85 1570.34,-47.23"/>
<polygon fill="black" stroke="black" points="1573.78,-47.85 1572.3,-37.36 1566.92,-46.49 1573.78,-47.85"/>
</g>
<!-- (val: &#45;1 rnd:[0.93756273]) -->
<g id="node46" class="node">
<title>(val: &#45;1 rnd:[0.93756273])</title>
<ellipse fill="none" stroke="black" cx="1691.64" cy="-19.5" rx="19.5" ry="19.5"/>
<text text-anchor="middle" x="1691.64" y="-15.8" font-family="Times,serif" font-size="14.00">&#45;1</text>
</g>
<!-- (val: 0.0, idx: 54, rnd:[0.14569321])&#45;&gt;(val: &#45;1 rnd:[0.93756273]) -->
<g id="edge45" class="edge">
<title>(val: 0.0, idx: 54, rnd:[0.14569321])&#45;&gt;(val: &#45;1 rnd:[0.93756273])</title>
<path fill="none" stroke="black" d="M1703.44,-77.8C1701.31,-67.44 1699.24,-57.42 1697.46,-48.73"/>
<polygon fill="black" stroke="black" points="1700.87,-47.96 1695.42,-38.87 1694.01,-49.37 1700.87,-47.96"/>
</g>
<!-- (val: 1 rnd:[0.51692968]) -->
<g id="node47" class="node">
<title>(val: 1 rnd:[0.51692968])</title>
<ellipse fill="none" stroke="black" cx="1746.64" cy="-19.5" rx="18" ry="18"/>
<text text-anchor="middle" x="1746.64" y="-15.8" font-family="Times,serif" font-size="14.00">1</text>
</g>
<!-- (val: 0.0, idx: 54, rnd:[0.14569321])&#45;&gt;(val: 1 rnd:[0.51692968]) -->
<g id="edge46" class="edge">
<title>(val: 0.0, idx: 54, rnd:[0.14569321])&#45;&gt;(val: 1 rnd:[0.51692968])</title>
<path fill="none" stroke="black" d="M1735.27,-77.8C1737.45,-66.82 1739.55,-56.22 1741.35,-47.19"/>
<polygon fill="black" stroke="black" points="1744.78,-47.86 1743.29,-37.37 1737.92,-46.5 1744.78,-47.86"/>
</g>
</g>
</svg>
