<?xml version="1.0" encoding="UTF-8" standalone="no"?>
<!DOCTYPE svg PUBLIC "-//W3C//DTD SVG 1.1//EN"
 "http://www.w3.org/Graphics/SVG/1.1/DTD/svg11.dtd">
<!-- Generated by graphviz version 2.43.0 (0)
 -->
<!-- Title: tree Pages: 1 -->
<svg width="1744pt" height="1032pt"
 viewBox="0.00 0.00 1743.99 1031.63" xmlns="http://www.w3.org/2000/svg" xmlns:xlink="http://www.w3.org/1999/xlink">
<g id="graph0" class="graph" transform="scale(1 1) rotate(0) translate(4 1027.63)">
<title>tree</title>
<polygon fill="white" stroke="transparent" points="-4,4 -4,-1027.63 1739.99,-1027.63 1739.99,4 -4,4"/>
<!-- (val: 0.0, idx: 6, rnd:[0.79371225]) -->
<g id="node1" class="node">
<title>(val: 0.0, idx: 6, rnd:[0.79371225])</title>
<ellipse fill="none" stroke="black" cx="649.5" cy="-952.78" rx="70.69" ry="70.69"/>
<text text-anchor="middle" x="649.5" y="-949.08" font-family="Times,serif" font-size="14.00">please&lt;=0.0</text>
</g>
<!-- (val: 0.0, idx: 462, rnd:[0.53666557]) -->
<g id="node2" class="node">
<title>(val: 0.0, idx: 462, rnd:[0.53666557])</title>
<ellipse fill="none" stroke="black" cx="528.5" cy="-773.14" rx="55.49" ry="55.49"/>
<text text-anchor="middle" x="528.5" y="-769.44" font-family="Times,serif" font-size="14.00">file&lt;=0.0</text>
</g>
<!-- (val: 0.0, idx: 6, rnd:[0.79371225])&#45;&gt;(val: 0.0, idx: 462, rnd:[0.53666557]) -->
<g id="edge1" class="edge">
<title>(val: 0.0, idx: 6, rnd:[0.79371225])&#45;&gt;(val: 0.0, idx: 462, rnd:[0.53666557])</title>
<path fill="none" stroke="black" d="M609.88,-893.62C595.4,-872.36 579.1,-848.44 564.92,-827.61"/>
<polygon fill="black" stroke="black" points="567.71,-825.49 559.19,-819.2 561.92,-829.43 567.71,-825.49"/>
</g>
<!-- (val: 0.0, idx: 46, rnd:[0.27721326]) -->
<g id="node3" class="node">
<title>(val: 0.0, idx: 46, rnd:[0.27721326])</title>
<ellipse fill="none" stroke="black" cx="936.5" cy="-773.14" rx="72.59" ry="72.59"/>
<text text-anchor="middle" x="936.5" y="-769.44" font-family="Times,serif" font-size="14.00">million&lt;=0.0</text>
</g>
<!-- (val: 0.0, idx: 6, rnd:[0.79371225])&#45;&gt;(val: 0.0, idx: 46, rnd:[0.27721326]) -->
<g id="edge2" class="edge">
<title>(val: 0.0, idx: 6, rnd:[0.79371225])&#45;&gt;(val: 0.0, idx: 46, rnd:[0.27721326])</title>
<path fill="none" stroke="black" d="M709.31,-914.76C754.94,-886.52 817.91,-847.55 865.98,-817.79"/>
<polygon fill="black" stroke="black" points="868.12,-820.58 874.78,-812.35 864.43,-814.63 868.12,-820.58"/>
</g>
<!-- (val: 1.0, idx: 42, rnd:[0.56073892]) -->
<g id="node4" class="node">
<title>(val: 1.0, idx: 42, rnd:[0.56073892])</title>
<ellipse fill="none" stroke="black" cx="278.5" cy="-584.41" rx="68.79" ry="68.79"/>
<text text-anchor="middle" x="278.5" y="-580.71" font-family="Times,serif" font-size="14.00">adobe&lt;=1.0</text>
</g>
<!-- (val: 0.0, idx: 462, rnd:[0.53666557])&#45;&gt;(val: 1.0, idx: 42, rnd:[0.56073892]) -->
<g id="edge4" class="edge">
<title>(val: 0.0, idx: 462, rnd:[0.53666557])&#45;&gt;(val: 1.0, idx: 42, rnd:[0.56073892])</title>
<path fill="none" stroke="black" d="M484.67,-739.4C445.12,-709.86 386.47,-666.06 341.82,-632.71"/>
<polygon fill="black" stroke="black" points="343.77,-629.79 333.66,-626.61 339.58,-635.4 343.77,-629.79"/>
</g>
<!-- (val: 0.0, idx: 168, rnd:[0.71809579]) -->
<g id="node5" class="node">
<title>(val: 0.0, idx: 168, rnd:[0.71809579])</title>
<ellipse fill="none" stroke="black" cx="528.5" cy="-584.41" rx="70.39" ry="70.39"/>
<text text-anchor="middle" x="528.5" y="-580.71" font-family="Times,serif" font-size="14.00">viagra&lt;=0.0</text>
</g>
<!-- (val: 0.0, idx: 462, rnd:[0.53666557])&#45;&gt;(val: 0.0, idx: 168, rnd:[0.71809579]) -->
<g id="edge3" class="edge">
<title>(val: 0.0, idx: 462, rnd:[0.53666557])&#45;&gt;(val: 0.0, idx: 168, rnd:[0.71809579])</title>
<path fill="none" stroke="black" d="M528.5,-717.88C528.5,-701.41 528.5,-682.95 528.5,-665.17"/>
<polygon fill="black" stroke="black" points="532,-664.8 528.5,-654.8 525,-664.8 532,-664.8"/>
</g>
<!-- (val: 0.0, idx: 422, rnd:[0.12738988]) -->
<g id="node6" class="node">
<title>(val: 0.0, idx: 422, rnd:[0.12738988])</title>
<ellipse fill="none" stroke="black" cx="936.5" cy="-584.41" rx="79.89" ry="79.89"/>
<text text-anchor="middle" x="936.5" y="-580.71" font-family="Times,serif" font-size="14.00">hundred&lt;=0.0</text>
</g>
<!-- (val: 0.0, idx: 46, rnd:[0.27721326])&#45;&gt;(val: 0.0, idx: 422, rnd:[0.12738988]) -->
<g id="edge6" class="edge">
<title>(val: 0.0, idx: 46, rnd:[0.27721326])&#45;&gt;(val: 0.0, idx: 422, rnd:[0.12738988])</title>
<path fill="none" stroke="black" d="M936.5,-700.21C936.5,-691.8 936.5,-683.13 936.5,-674.52"/>
<polygon fill="black" stroke="black" points="940,-674.44 936.5,-664.44 933,-674.44 940,-674.44"/>
</g>
<!-- (val: 0.0, idx: 126, rnd:[0.43402008]) -->
<g id="node7" class="node">
<title>(val: 0.0, idx: 126, rnd:[0.43402008])</title>
<ellipse fill="none" stroke="black" cx="1222.5" cy="-584.41" rx="62.29" ry="62.29"/>
<text text-anchor="middle" x="1222.5" y="-580.71" font-family="Times,serif" font-size="14.00">wish&lt;=0.0</text>
</g>
<!-- (val: 0.0, idx: 46, rnd:[0.27721326])&#45;&gt;(val: 0.0, idx: 126, rnd:[0.43402008]) -->
<g id="edge5" class="edge">
<title>(val: 0.0, idx: 46, rnd:[0.27721326])&#45;&gt;(val: 0.0, idx: 126, rnd:[0.43402008])</title>
<path fill="none" stroke="black" d="M997.15,-732.54C1045.72,-700.83 1113.52,-656.56 1162.04,-624.88"/>
<polygon fill="black" stroke="black" points="1164.1,-627.72 1170.56,-619.32 1160.27,-621.86 1164.1,-627.72"/>
</g>
<!-- (val: 0.0, idx: 0, rnd:[0.49817114]) -->
<g id="node8" class="node">
<title>(val: 0.0, idx: 0, rnd:[0.49817114])</title>
<ellipse fill="none" stroke="black" cx="74.5" cy="-387.22" rx="59.59" ry="59.59"/>
<text text-anchor="middle" x="74.5" y="-383.52" font-family="Times,serif" font-size="14.00">com&lt;=0.0</text>
</g>
<!-- (val: 1.0, idx: 42, rnd:[0.56073892])&#45;&gt;(val: 0.0, idx: 0, rnd:[0.49817114]) -->
<g id="edge8" class="edge">
<title>(val: 1.0, idx: 42, rnd:[0.56073892])&#45;&gt;(val: 0.0, idx: 0, rnd:[0.49817114])</title>
<path fill="none" stroke="black" d="M229.12,-536.16C197.46,-505.87 156.49,-466.67 124.67,-436.23"/>
<polygon fill="black" stroke="black" points="126.85,-433.47 117.21,-429.09 122.01,-438.53 126.85,-433.47"/>
</g>
<!-- (val: 0.0, idx: 27, rnd:[0.46616982]) -->
<g id="node9" class="node">
<title>(val: 0.0, idx: 27, rnd:[0.46616982])</title>
<ellipse fill="none" stroke="black" cx="278.5" cy="-387.22" rx="81.49" ry="81.49"/>
<text text-anchor="middle" x="278.5" y="-383.52" font-family="Times,serif" font-size="14.00">message&lt;=0.0</text>
</g>
<!-- (val: 1.0, idx: 42, rnd:[0.56073892])&#45;&gt;(val: 0.0, idx: 27, rnd:[0.46616982]) -->
<g id="edge7" class="edge">
<title>(val: 1.0, idx: 42, rnd:[0.56073892])&#45;&gt;(val: 0.0, idx: 27, rnd:[0.46616982])</title>
<path fill="none" stroke="black" d="M278.5,-515.42C278.5,-503.64 278.5,-491.23 278.5,-478.96"/>
<polygon fill="black" stroke="black" points="282,-478.71 278.5,-468.71 275,-478.71 282,-478.71"/>
</g>
<!-- (val: 1 rnd:[0.962677]) -->
<g id="node10" class="node">
<title>(val: 1 rnd:[0.962677])</title>
<ellipse fill="none" stroke="black" cx="487.5" cy="-387.22" rx="18" ry="18"/>
<text text-anchor="middle" x="487.5" y="-383.52" font-family="Times,serif" font-size="14.00">1</text>
</g>
<!-- (val: 0.0, idx: 168, rnd:[0.71809579])&#45;&gt;(val: 1 rnd:[0.962677]) -->
<g id="edge10" class="edge">
<title>(val: 0.0, idx: 168, rnd:[0.71809579])&#45;&gt;(val: 1 rnd:[0.962677])</title>
<path fill="none" stroke="black" d="M514.22,-515.42C506.98,-480.95 498.59,-441.05 493.18,-415.26"/>
<polygon fill="black" stroke="black" points="496.53,-414.2 491.05,-405.13 489.68,-415.64 496.53,-414.2"/>
</g>
<!-- (val: 0.0, idx: 122, rnd:[0.0267318]) -->
<g id="node11" class="node">
<title>(val: 0.0, idx: 122, rnd:[0.0267318])</title>
<ellipse fill="none" stroke="black" cx="569.5" cy="-387.22" rx="46.29" ry="46.29"/>
<text text-anchor="middle" x="569.5" y="-383.52" font-family="Times,serif" font-size="14.00">v&lt;=0.0</text>
</g>
<!-- (val: 0.0, idx: 168, rnd:[0.71809579])&#45;&gt;(val: 0.0, idx: 122, rnd:[0.0267318]) -->
<g id="edge9" class="edge">
<title>(val: 0.0, idx: 168, rnd:[0.71809579])&#45;&gt;(val: 0.0, idx: 122, rnd:[0.0267318])</title>
<path fill="none" stroke="black" d="M542.78,-515.42C547.79,-491.56 553.35,-465.11 558.09,-442.53"/>
<polygon fill="black" stroke="black" points="561.58,-442.95 560.21,-432.45 554.73,-441.51 561.58,-442.95"/>
</g>
<!-- (val: 0.0, idx: 4, rnd:[0.41164697]) -->
<g id="node12" class="node">
<title>(val: 0.0, idx: 4, rnd:[0.41164697])</title>
<ellipse fill="none" stroke="black" cx="870.5" cy="-387.22" rx="66.09" ry="66.09"/>
<text text-anchor="middle" x="870.5" y="-383.52" font-family="Times,serif" font-size="14.00">email&lt;=0.0</text>
</g>
<!-- (val: 0.0, idx: 422, rnd:[0.12738988])&#45;&gt;(val: 0.0, idx: 4, rnd:[0.41164697]) -->
<g id="edge11" class="edge">
<title>(val: 0.0, idx: 422, rnd:[0.12738988])&#45;&gt;(val: 0.0, idx: 4, rnd:[0.41164697])</title>
<path fill="none" stroke="black" d="M911.17,-508.5C905.78,-492.57 900.1,-475.78 894.76,-459.96"/>
<polygon fill="black" stroke="black" points="897.99,-458.61 891.47,-450.26 891.36,-460.85 897.99,-458.61"/>
</g>
<!-- (val: 0.0, idx: 73, rnd:[0.87135283]) -->
<g id="node13" class="node">
<title>(val: 0.0, idx: 73, rnd:[0.87135283])</title>
<ellipse fill="none" stroke="black" cx="1011.5" cy="-387.22" rx="57.39" ry="57.39"/>
<text text-anchor="middle" x="1011.5" y="-383.52" font-family="Times,serif" font-size="14.00">gas&lt;=0.0</text>
</g>
<!-- (val: 0.0, idx: 422, rnd:[0.12738988])&#45;&gt;(val: 0.0, idx: 73, rnd:[0.87135283]) -->
<g id="edge12" class="edge">
<title>(val: 0.0, idx: 422, rnd:[0.12738988])&#45;&gt;(val: 0.0, idx: 73, rnd:[0.87135283])</title>
<path fill="none" stroke="black" d="M964.85,-509.62C972.38,-490.04 980.42,-469.1 987.68,-450.22"/>
<polygon fill="black" stroke="black" points="990.96,-451.43 991.28,-440.84 984.43,-448.92 990.96,-451.43"/>
</g>
<!-- (val: 0.0, idx: 38, rnd:[0.27622791]) -->
<g id="node14" class="node">
<title>(val: 0.0, idx: 38, rnd:[0.27622791])</title>
<ellipse fill="none" stroke="black" cx="1222.5" cy="-387.22" rx="51.99" ry="51.99"/>
<text text-anchor="middle" x="1222.5" y="-383.52" font-family="Times,serif" font-size="14.00">go&lt;=0.0</text>
</g>
<!-- (val: 0.0, idx: 126, rnd:[0.43402008])&#45;&gt;(val: 0.0, idx: 38, rnd:[0.27622791]) -->
<g id="edge14" class="edge">
<title>(val: 0.0, idx: 126, rnd:[0.43402008])&#45;&gt;(val: 0.0, idx: 38, rnd:[0.27622791])</title>
<path fill="none" stroke="black" d="M1222.5,-521.92C1222.5,-498.75 1222.5,-472.42 1222.5,-449.3"/>
<polygon fill="black" stroke="black" points="1226,-449.26 1222.5,-439.26 1219,-449.26 1226,-449.26"/>
</g>
<!-- (val: 0.0, idx: 118, rnd:[0.71187802]) -->
<g id="node15" class="node">
<title>(val: 0.0, idx: 118, rnd:[0.71187802])</title>
<ellipse fill="none" stroke="black" cx="1450.5" cy="-387.22" rx="64.99" ry="64.99"/>
<text text-anchor="middle" x="1450.5" y="-383.52" font-family="Times,serif" font-size="14.00">reply&lt;=0.0</text>
</g>
<!-- (val: 0.0, idx: 126, rnd:[0.43402008])&#45;&gt;(val: 0.0, idx: 118, rnd:[0.71187802]) -->
<g id="edge13" class="edge">
<title>(val: 0.0, idx: 126, rnd:[0.43402008])&#45;&gt;(val: 0.0, idx: 118, rnd:[0.71187802])</title>
<path fill="none" stroke="black" d="M1269.46,-543.2C1305.37,-512.47 1355.03,-469.95 1393.25,-437.23"/>
<polygon fill="black" stroke="black" points="1395.91,-439.56 1401.23,-430.4 1391.36,-434.24 1395.91,-439.56"/>
</g>
<!-- (val: &#45;1 rnd:[0.74135694]) -->
<g id="node16" class="node">
<title>(val: &#45;1 rnd:[0.74135694])</title>
<ellipse fill="none" stroke="black" cx="19.5" cy="-172.49" rx="19.5" ry="19.5"/>
<text text-anchor="middle" x="19.5" y="-168.79" font-family="Times,serif" font-size="14.00">&#45;1</text>
</g>
<!-- (val: 0.0, idx: 0, rnd:[0.49817114])&#45;&gt;(val: &#45;1 rnd:[0.74135694]) -->
<g id="edge16" class="edge">
<title>(val: 0.0, idx: 0, rnd:[0.49817114])&#45;&gt;(val: &#45;1 rnd:[0.74135694])</title>
<path fill="none" stroke="black" d="M59.76,-329.21C49.08,-287.9 35.1,-233.82 26.73,-201.48"/>
<polygon fill="black" stroke="black" points="30.12,-200.59 24.23,-191.78 23.34,-202.34 30.12,-200.59"/>
</g>
<!-- (val: 1 rnd:[0.2984902]) -->
<g id="node17" class="node">
<title>(val: 1 rnd:[0.2984902])</title>
<ellipse fill="none" stroke="black" cx="74.5" cy="-172.49" rx="18" ry="18"/>
<text text-anchor="middle" x="74.5" y="-168.79" font-family="Times,serif" font-size="14.00">1</text>
</g>
<!-- (val: 0.0, idx: 0, rnd:[0.49817114])&#45;&gt;(val: 1 rnd:[0.2984902]) -->
<g id="edge15" class="edge">
<title>(val: 0.0, idx: 0, rnd:[0.49817114])&#45;&gt;(val: 1 rnd:[0.2984902])</title>
<path fill="none" stroke="black" d="M74.5,-327.25C74.5,-286.11 74.5,-233.08 74.5,-201.27"/>
<polygon fill="black" stroke="black" points="78,-200.95 74.5,-190.95 71,-200.95 78,-200.95"/>
</g>
<!-- (val: 0.0, idx: 129, rnd:[0.05463088]) -->
<g id="node18" class="node">
<title>(val: 0.0, idx: 129, rnd:[0.05463088])</title>
<ellipse fill="none" stroke="black" cx="171.5" cy="-172.49" rx="61.19" ry="61.19"/>
<text text-anchor="middle" x="171.5" y="-168.79" font-family="Times,serif" font-size="14.00">sent&lt;=0.0</text>
</g>
<!-- (val: 0.0, idx: 27, rnd:[0.46616982])&#45;&gt;(val: 0.0, idx: 129, rnd:[0.05463088]) -->
<g id="edge18" class="edge">
<title>(val: 0.0, idx: 27, rnd:[0.46616982])&#45;&gt;(val: 0.0, idx: 129, rnd:[0.05463088])</title>
<path fill="none" stroke="black" d="M242.27,-314.2C229.59,-288.98 215.45,-260.86 203.16,-236.44"/>
<polygon fill="black" stroke="black" points="206.17,-234.63 198.55,-227.27 199.92,-237.78 206.17,-234.63"/>
</g>
<!-- (val: 0.0, idx: 403, rnd:[0.38167714]) -->
<g id="node19" class="node">
<title>(val: 0.0, idx: 403, rnd:[0.38167714])</title>
<ellipse fill="none" stroke="black" cx="322.5" cy="-172.49" rx="71.49" ry="71.49"/>
<text text-anchor="middle" x="322.5" y="-168.79" font-family="Times,serif" font-size="14.00">simply&lt;=0.0</text>
</g>
<!-- (val: 0.0, idx: 27, rnd:[0.46616982])&#45;&gt;(val: 0.0, idx: 403, rnd:[0.38167714]) -->
<g id="edge17" class="edge">
<title>(val: 0.0, idx: 27, rnd:[0.46616982])&#45;&gt;(val: 0.0, idx: 403, rnd:[0.38167714])</title>
<path fill="none" stroke="black" d="M294.76,-307.61C298.48,-289.64 302.43,-270.52 306.15,-252.53"/>
<polygon fill="black" stroke="black" points="309.59,-253.16 308.19,-242.66 302.74,-251.75 309.59,-253.16"/>
</g>
<!-- (val: 0.0, idx: 103, rnd:[0.50409955]) -->
<g id="node20" class="node">
<title>(val: 0.0, idx: 103, rnd:[0.50409955])</title>
<ellipse fill="none" stroke="black" cx="467.5" cy="-172.49" rx="55.79" ry="55.79"/>
<text text-anchor="middle" x="467.5" y="-168.79" font-family="Times,serif" font-size="14.00">life&lt;=0.0</text>
</g>
<!-- (val: 0.0, idx: 122, rnd:[0.0267318])&#45;&gt;(val: 0.0, idx: 103, rnd:[0.50409955]) -->
<g id="edge19" class="edge">
<title>(val: 0.0, idx: 122, rnd:[0.0267318])&#45;&gt;(val: 0.0, idx: 103, rnd:[0.50409955])</title>
<path fill="none" stroke="black" d="M549.83,-345.2C534.53,-313.28 513.08,-268.54 495.91,-232.74"/>
<polygon fill="black" stroke="black" points="498.89,-230.87 491.41,-223.36 492.58,-233.89 498.89,-230.87"/>
</g>
<!-- (val: 0.0, idx: 447, rnd:[0.95184825]) -->
<g id="node21" class="node">
<title>(val: 0.0, idx: 447, rnd:[0.95184825])</title>
<ellipse fill="none" stroke="black" cx="616.5" cy="-172.49" rx="75.29" ry="75.29"/>
<text text-anchor="middle" x="616.5" y="-168.79" font-family="Times,serif" font-size="14.00">trading&lt;=0.0</text>
</g>
<!-- (val: 0.0, idx: 122, rnd:[0.0267318])&#45;&gt;(val: 0.0, idx: 447, rnd:[0.95184825]) -->
<g id="edge20" class="edge">
<title>(val: 0.0, idx: 122, rnd:[0.0267318])&#45;&gt;(val: 0.0, idx: 447, rnd:[0.95184825])</title>
<path fill="none" stroke="black" d="M579.29,-341.88C584.78,-317.05 591.8,-285.28 598.26,-256.04"/>
<polygon fill="black" stroke="black" points="601.69,-256.76 600.43,-246.24 594.85,-255.25 601.69,-256.76"/>
</g>
<!-- (val: 0.0, idx: 252, rnd:[0.62299189]) -->
<g id="node22" class="node">
<title>(val: 0.0, idx: 252, rnd:[0.62299189])</title>
<ellipse fill="none" stroke="black" cx="767.5" cy="-172.49" rx="57.39" ry="57.39"/>
<text text-anchor="middle" x="767.5" y="-168.79" font-family="Times,serif" font-size="14.00">call&lt;=0.0</text>
</g>
<!-- (val: 0.0, idx: 4, rnd:[0.41164697])&#45;&gt;(val: 0.0, idx: 252, rnd:[0.62299189]) -->
<g id="edge21" class="edge">
<title>(val: 0.0, idx: 4, rnd:[0.41164697])&#45;&gt;(val: 0.0, idx: 252, rnd:[0.62299189])</title>
<path fill="none" stroke="black" d="M841.94,-327.25C827.81,-298.06 810.79,-262.9 796.59,-233.57"/>
<polygon fill="black" stroke="black" points="799.59,-231.74 792.08,-224.27 793.29,-234.79 799.59,-231.74"/>
</g>
<!-- (val: 5.0, idx: 0, rnd:[0.31641853]) -->
<g id="node23" class="node">
<title>(val: 5.0, idx: 0, rnd:[0.31641853])</title>
<ellipse fill="none" stroke="black" cx="902.5" cy="-172.49" rx="59.59" ry="59.59"/>
<text text-anchor="middle" x="902.5" y="-168.79" font-family="Times,serif" font-size="14.00">com&lt;=5.0</text>
</g>
<!-- (val: 0.0, idx: 4, rnd:[0.41164697])&#45;&gt;(val: 5.0, idx: 0, rnd:[0.31641853]) -->
<g id="edge22" class="edge">
<title>(val: 0.0, idx: 4, rnd:[0.41164697])&#45;&gt;(val: 5.0, idx: 0, rnd:[0.31641853])</title>
<path fill="none" stroke="black" d="M880.23,-321.53C884.03,-296.28 888.39,-267.3 892.23,-241.72"/>
<polygon fill="black" stroke="black" points="895.71,-242.14 893.74,-231.73 888.79,-241.1 895.71,-242.14"/>
</g>
<!-- (val: &#45;1 rnd:[0.16072761]) -->
<g id="node24" class="node">
<title>(val: &#45;1 rnd:[0.16072761])</title>
<ellipse fill="none" stroke="black" cx="999.5" cy="-172.49" rx="19.5" ry="19.5"/>
<text text-anchor="middle" x="999.5" y="-168.79" font-family="Times,serif" font-size="14.00">&#45;1</text>
</g>
<!-- (val: 0.0, idx: 73, rnd:[0.87135283])&#45;&gt;(val: &#45;1 rnd:[0.16072761]) -->
<g id="edge24" class="edge">
<title>(val: 0.0, idx: 73, rnd:[0.87135283])&#45;&gt;(val: &#45;1 rnd:[0.16072761])</title>
<path fill="none" stroke="black" d="M1008.33,-330.05C1006.02,-289.13 1002.99,-235.35 1001.14,-202.66"/>
<polygon fill="black" stroke="black" points="1004.62,-202.21 1000.57,-192.43 997.64,-202.61 1004.62,-202.21"/>
</g>
<!-- (val: 1 rnd:[0.47526698]) -->
<g id="node25" class="node">
<title>(val: 1 rnd:[0.47526698])</title>
<ellipse fill="none" stroke="black" cx="1054.5" cy="-172.49" rx="18" ry="18"/>
<text text-anchor="middle" x="1054.5" y="-168.79" font-family="Times,serif" font-size="14.00">1</text>
</g>
<!-- (val: 0.0, idx: 73, rnd:[0.87135283])&#45;&gt;(val: 1 rnd:[0.47526698]) -->
<g id="edge23" class="edge">
<title>(val: 0.0, idx: 73, rnd:[0.87135283])&#45;&gt;(val: 1 rnd:[0.47526698])</title>
<path fill="none" stroke="black" d="M1022.68,-330.88C1031.13,-289.07 1042.37,-233.48 1048.98,-200.78"/>
<polygon fill="black" stroke="black" points="1052.48,-201.12 1051.03,-190.63 1045.62,-199.73 1052.48,-201.12"/>
</g>
<!-- (val: 3.0, idx: 0, rnd:[0.45418379]) -->
<g id="node26" class="node">
<title>(val: 3.0, idx: 0, rnd:[0.45418379])</title>
<ellipse fill="none" stroke="black" cx="1150.5" cy="-172.49" rx="59.59" ry="59.59"/>
<text text-anchor="middle" x="1150.5" y="-168.79" font-family="Times,serif" font-size="14.00">com&lt;=3.0</text>
</g>
<!-- (val: 0.0, idx: 38, rnd:[0.27622791])&#45;&gt;(val: 3.0, idx: 0, rnd:[0.45418379]) -->
<g id="edge26" class="edge">
<title>(val: 0.0, idx: 38, rnd:[0.27622791])&#45;&gt;(val: 3.0, idx: 0, rnd:[0.45418379])</title>
<path fill="none" stroke="black" d="M1206.07,-337.68C1196.18,-308.46 1183.45,-270.86 1172.68,-239.02"/>
<polygon fill="black" stroke="black" points="1175.92,-237.69 1169.4,-229.34 1169.29,-239.93 1175.92,-237.69"/>
</g>
<!-- (val: 0.0, idx: 4, rnd:[0.54176102]) -->
<g id="node27" class="node">
<title>(val: 0.0, idx: 4, rnd:[0.54176102])</title>
<ellipse fill="none" stroke="black" cx="1294.5" cy="-172.49" rx="66.09" ry="66.09"/>
<text text-anchor="middle" x="1294.5" y="-168.79" font-family="Times,serif" font-size="14.00">email&lt;=0.0</text>
</g>
<!-- (val: 0.0, idx: 38, rnd:[0.27622791])&#45;&gt;(val: 0.0, idx: 4, rnd:[0.54176102]) -->
<g id="edge25" class="edge">
<title>(val: 0.0, idx: 38, rnd:[0.27622791])&#45;&gt;(val: 0.0, idx: 4, rnd:[0.54176102])</title>
<path fill="none" stroke="black" d="M1238.93,-337.68C1248.18,-310.35 1259.9,-275.7 1270.2,-245.28"/>
<polygon fill="black" stroke="black" points="1273.6,-246.16 1273.49,-235.57 1266.97,-243.92 1273.6,-246.16"/>
</g>
<!-- (val: 0.0, idx: 313, rnd:[0.98886285]) -->
<g id="node28" class="node">
<title>(val: 0.0, idx: 313, rnd:[0.98886285])</title>
<ellipse fill="none" stroke="black" cx="1450.5" cy="-172.49" rx="72.29" ry="72.29"/>
<text text-anchor="middle" x="1450.5" y="-168.79" font-family="Times,serif" font-size="14.00">mobile&lt;=0.0</text>
</g>
<!-- (val: 0.0, idx: 118, rnd:[0.71187802])&#45;&gt;(val: 0.0, idx: 313, rnd:[0.98886285]) -->
<g id="edge28" class="edge">
<title>(val: 0.0, idx: 118, rnd:[0.71187802])&#45;&gt;(val: 0.0, idx: 313, rnd:[0.98886285])</title>
<path fill="none" stroke="black" d="M1450.5,-322.11C1450.5,-300.99 1450.5,-277.23 1450.5,-255"/>
<polygon fill="black" stroke="black" points="1454,-254.91 1450.5,-244.91 1447,-254.91 1454,-254.91"/>
</g>
<!-- (val: 0.0, idx: 285, rnd:[0.08510738]) -->
<g id="node29" class="node">
<title>(val: 0.0, idx: 285, rnd:[0.08510738])</title>
<ellipse fill="none" stroke="black" cx="1638.5" cy="-172.49" rx="97.48" ry="97.48"/>
<text text-anchor="middle" x="1638.5" y="-168.79" font-family="Times,serif" font-size="14.00">unsubscribe&lt;=0.0</text>
</g>
<!-- (val: 0.0, idx: 118, rnd:[0.71187802])&#45;&gt;(val: 0.0, idx: 285, rnd:[0.08510738]) -->
<g id="edge27" class="edge">
<title>(val: 0.0, idx: 118, rnd:[0.71187802])&#45;&gt;(val: 0.0, idx: 285, rnd:[0.08510738])</title>
<path fill="none" stroke="black" d="M1493.16,-337.95C1515.14,-313.08 1542.52,-282.1 1567.57,-253.75"/>
<polygon fill="black" stroke="black" points="1570.22,-256.03 1574.22,-246.22 1564.98,-251.4 1570.22,-256.03"/>
</g>
<!-- (val: &#45;1 rnd:[0.42210336]) -->
<g id="node30" class="node">
<title>(val: &#45;1 rnd:[0.42210336])</title>
<ellipse fill="none" stroke="black" cx="144.5" cy="-19.5" rx="19.5" ry="19.5"/>
<text text-anchor="middle" x="144.5" y="-15.8" font-family="Times,serif" font-size="14.00">&#45;1</text>
</g>
<!-- (val: 0.0, idx: 129, rnd:[0.05463088])&#45;&gt;(val: &#45;1 rnd:[0.42210336]) -->
<g id="edge30" class="edge">
<title>(val: 0.0, idx: 129, rnd:[0.05463088])&#45;&gt;(val: &#45;1 rnd:[0.42210336])</title>
<path fill="none" stroke="black" d="M160.9,-112.25C157.02,-90.52 152.8,-66.92 149.61,-49.09"/>
<polygon fill="black" stroke="black" points="153.02,-48.29 147.82,-39.06 146.13,-49.52 153.02,-48.29"/>
</g>
<!-- (val: 1 rnd:[0.83695092]) -->
<g id="node31" class="node">
<title>(val: 1 rnd:[0.83695092])</title>
<ellipse fill="none" stroke="black" cx="199.5" cy="-19.5" rx="18" ry="18"/>
<text text-anchor="middle" x="199.5" y="-15.8" font-family="Times,serif" font-size="14.00">1</text>
</g>
<!-- (val: 0.0, idx: 129, rnd:[0.05463088])&#45;&gt;(val: 1 rnd:[0.83695092]) -->
<g id="edge29" class="edge">
<title>(val: 0.0, idx: 129, rnd:[0.05463088])&#45;&gt;(val: 1 rnd:[0.83695092])</title>
<path fill="none" stroke="black" d="M182.48,-112.25C186.64,-89.84 191.17,-65.42 194.51,-47.41"/>
<polygon fill="black" stroke="black" points="197.99,-47.83 196.37,-37.36 191.11,-46.56 197.99,-47.83"/>
</g>
<!-- (val: &#45;1 rnd:[0.15198017]) -->
<g id="node32" class="node">
<title>(val: &#45;1 rnd:[0.15198017])</title>
<ellipse fill="none" stroke="black" cx="295.5" cy="-19.5" rx="19.5" ry="19.5"/>
<text text-anchor="middle" x="295.5" y="-15.8" font-family="Times,serif" font-size="14.00">&#45;1</text>
</g>
<!-- (val: 0.0, idx: 403, rnd:[0.38167714])&#45;&gt;(val: &#45;1 rnd:[0.15198017]) -->
<g id="edge31" class="edge">
<title>(val: 0.0, idx: 403, rnd:[0.38167714])&#45;&gt;(val: &#45;1 rnd:[0.15198017])</title>
<path fill="none" stroke="black" d="M310.03,-101.74C306.69,-83.09 303.27,-63.96 300.59,-48.96"/>
<polygon fill="black" stroke="black" points="303.98,-48.05 298.78,-38.83 297.09,-49.29 303.98,-48.05"/>
</g>
<!-- (val: 1 rnd:[0.59613631]) -->
<g id="node33" class="node">
<title>(val: 1 rnd:[0.59613631])</title>
<ellipse fill="none" stroke="black" cx="350.5" cy="-19.5" rx="18" ry="18"/>
<text text-anchor="middle" x="350.5" y="-15.8" font-family="Times,serif" font-size="14.00">1</text>
</g>
<!-- (val: 0.0, idx: 403, rnd:[0.38167714])&#45;&gt;(val: 1 rnd:[0.59613631]) -->
<g id="edge32" class="edge">
<title>(val: 0.0, idx: 403, rnd:[0.38167714])&#45;&gt;(val: 1 rnd:[0.59613631])</title>
<path fill="none" stroke="black" d="M335.43,-101.74C339.01,-82.46 342.67,-62.69 345.5,-47.47"/>
<polygon fill="black" stroke="black" points="349.01,-47.74 347.39,-37.27 342.12,-46.47 349.01,-47.74"/>
</g>
<!-- (val: 1 rnd:[0.45454552]) -->
<g id="node34" class="node">
<title>(val: 1 rnd:[0.45454552])</title>
<ellipse fill="none" stroke="black" cx="440.5" cy="-19.5" rx="18" ry="18"/>
<text text-anchor="middle" x="440.5" y="-15.8" font-family="Times,serif" font-size="14.00">1</text>
</g>
<!-- (val: 0.0, idx: 103, rnd:[0.50409955])&#45;&gt;(val: 1 rnd:[0.45454552]) -->
<g id="edge33" class="edge">
<title>(val: 0.0, idx: 103, rnd:[0.50409955])&#45;&gt;(val: 1 rnd:[0.45454552])</title>
<path fill="none" stroke="black" d="M457.83,-117.4C453.59,-93.7 448.8,-66.93 445.33,-47.54"/>
<polygon fill="black" stroke="black" points="448.76,-46.82 443.55,-37.59 441.87,-48.05 448.76,-46.82"/>
</g>
<!-- (val: 1 rnd:[0.60035614]) -->
<g id="node35" class="node">
<title>(val: 1 rnd:[0.60035614])</title>
<ellipse fill="none" stroke="black" cx="494.5" cy="-19.5" rx="18" ry="18"/>
<text text-anchor="middle" x="494.5" y="-15.8" font-family="Times,serif" font-size="14.00">1</text>
</g>
<!-- (val: 0.0, idx: 103, rnd:[0.50409955])&#45;&gt;(val: 1 rnd:[0.60035614]) -->
<g id="edge34" class="edge">
<title>(val: 0.0, idx: 103, rnd:[0.50409955])&#45;&gt;(val: 1 rnd:[0.60035614])</title>
<path fill="none" stroke="black" d="M477.17,-117.4C481.41,-93.7 486.2,-66.93 489.66,-47.54"/>
<polygon fill="black" stroke="black" points="493.13,-48.05 491.44,-37.59 486.24,-46.82 493.13,-48.05"/>
</g>
<!-- (val: &#45;1 rnd:[0.19659741]) -->
<g id="node36" class="node">
<title>(val: &#45;1 rnd:[0.19659741])</title>
<ellipse fill="none" stroke="black" cx="589.5" cy="-19.5" rx="19.5" ry="19.5"/>
<text text-anchor="middle" x="589.5" y="-15.8" font-family="Times,serif" font-size="14.00">&#45;1</text>
</g>
<!-- (val: 0.0, idx: 447, rnd:[0.95184825])&#45;&gt;(val: &#45;1 rnd:[0.19659741]) -->
<g id="edge36" class="edge">
<title>(val: 0.0, idx: 447, rnd:[0.95184825])&#45;&gt;(val: &#45;1 rnd:[0.19659741])</title>
<path fill="none" stroke="black" d="M603.39,-98.2C600.25,-80.6 597.07,-62.84 594.55,-48.75"/>
<polygon fill="black" stroke="black" points="597.97,-47.98 592.76,-38.75 591.08,-49.21 597.97,-47.98"/>
</g>
<!-- (val: 1 rnd:[0.42140141]) -->
<g id="node37" class="node">
<title>(val: 1 rnd:[0.42140141])</title>
<ellipse fill="none" stroke="black" cx="644.5" cy="-19.5" rx="18" ry="18"/>
<text text-anchor="middle" x="644.5" y="-15.8" font-family="Times,serif" font-size="14.00">1</text>
</g>
<!-- (val: 0.0, idx: 447, rnd:[0.95184825])&#45;&gt;(val: 1 rnd:[0.42140141]) -->
<g id="edge35" class="edge">
<title>(val: 0.0, idx: 447, rnd:[0.95184825])&#45;&gt;(val: 1 rnd:[0.42140141])</title>
<path fill="none" stroke="black" d="M630.09,-98.2C633.46,-80 636.87,-61.63 639.52,-47.32"/>
<polygon fill="black" stroke="black" points="643.01,-47.71 641.39,-37.24 636.13,-46.44 643.01,-47.71"/>
</g>
<!-- (val: &#45;1 rnd:[0.47046259]) -->
<g id="node38" class="node">
<title>(val: &#45;1 rnd:[0.47046259])</title>
<ellipse fill="none" stroke="black" cx="740.5" cy="-19.5" rx="19.5" ry="19.5"/>
<text text-anchor="middle" x="740.5" y="-15.8" font-family="Times,serif" font-size="14.00">&#45;1</text>
</g>
<!-- (val: 0.0, idx: 252, rnd:[0.62299189])&#45;&gt;(val: &#45;1 rnd:[0.47046259]) -->
<g id="edge38" class="edge">
<title>(val: 0.0, idx: 252, rnd:[0.62299189])&#45;&gt;(val: &#45;1 rnd:[0.47046259])</title>
<path fill="none" stroke="black" d="M757.6,-116.12C753.53,-93.36 748.99,-67.97 745.61,-49.07"/>
<polygon fill="black" stroke="black" points="749.02,-48.26 743.81,-39.03 742.13,-49.49 749.02,-48.26"/>
</g>
<!-- (val: 1 rnd:[0.17294397]) -->
<g id="node39" class="node">
<title>(val: 1 rnd:[0.17294397])</title>
<ellipse fill="none" stroke="black" cx="795.5" cy="-19.5" rx="18" ry="18"/>
<text text-anchor="middle" x="795.5" y="-15.8" font-family="Times,serif" font-size="14.00">1</text>
</g>
<!-- (val: 0.0, idx: 252, rnd:[0.62299189])&#45;&gt;(val: 1 rnd:[0.17294397]) -->
<g id="edge37" class="edge">
<title>(val: 0.0, idx: 252, rnd:[0.62299189])&#45;&gt;(val: 1 rnd:[0.17294397])</title>
<path fill="none" stroke="black" d="M777.77,-116.12C782.12,-92.65 786.99,-66.39 790.52,-47.33"/>
<polygon fill="black" stroke="black" points="794,-47.75 792.39,-37.28 787.12,-46.48 794,-47.75"/>
</g>
<!-- (val: &#45;1 rnd:[0.17630718]) -->
<g id="node40" class="node">
<title>(val: &#45;1 rnd:[0.17630718])</title>
<ellipse fill="none" stroke="black" cx="890.5" cy="-19.5" rx="19.5" ry="19.5"/>
<text text-anchor="middle" x="890.5" y="-15.8" font-family="Times,serif" font-size="14.00">&#45;1</text>
</g>
<!-- (val: 5.0, idx: 0, rnd:[0.31641853])&#45;&gt;(val: &#45;1 rnd:[0.17630718]) -->
<g id="edge40" class="edge">
<title>(val: 5.0, idx: 0, rnd:[0.31641853])&#45;&gt;(val: &#45;1 rnd:[0.17630718])</title>
<path fill="none" stroke="black" d="M897.82,-112.68C896.09,-90.91 894.21,-67.19 892.78,-49.26"/>
<polygon fill="black" stroke="black" points="896.26,-48.87 891.98,-39.18 889.29,-49.42 896.26,-48.87"/>
</g>
<!-- (val: 1 rnd:[0.01500035]) -->
<g id="node41" class="node">
<title>(val: 1 rnd:[0.01500035])</title>
<ellipse fill="none" stroke="black" cx="945.5" cy="-19.5" rx="18" ry="18"/>
<text text-anchor="middle" x="945.5" y="-15.8" font-family="Times,serif" font-size="14.00">1</text>
</g>
<!-- (val: 5.0, idx: 0, rnd:[0.31641853])&#45;&gt;(val: 1 rnd:[0.01500035]) -->
<g id="edge39" class="edge">
<title>(val: 5.0, idx: 0, rnd:[0.31641853])&#45;&gt;(val: 1 rnd:[0.01500035])</title>
<path fill="none" stroke="black" d="M918.63,-114.84C925.31,-91.39 932.72,-65.36 938.07,-46.6"/>
<polygon fill="black" stroke="black" points="941.43,-47.55 940.81,-36.98 934.7,-45.64 941.43,-47.55"/>
</g>
<!-- (val: &#45;1 rnd:[0.28820267]) -->
<g id="node42" class="node">
<title>(val: &#45;1 rnd:[0.28820267])</title>
<ellipse fill="none" stroke="black" cx="1123.5" cy="-19.5" rx="19.5" ry="19.5"/>
<text text-anchor="middle" x="1123.5" y="-15.8" font-family="Times,serif" font-size="14.00">&#45;1</text>
</g>
<!-- (val: 3.0, idx: 0, rnd:[0.45418379])&#45;&gt;(val: &#45;1 rnd:[0.28820267]) -->
<g id="edge42" class="edge">
<title>(val: 3.0, idx: 0, rnd:[0.45418379])&#45;&gt;(val: &#45;1 rnd:[0.28820267])</title>
<path fill="none" stroke="black" d="M1140.14,-113.54C1136.18,-91.44 1131.85,-67.2 1128.6,-49.01"/>
<polygon fill="black" stroke="black" points="1132.02,-48.29 1126.82,-39.06 1125.13,-49.52 1132.02,-48.29"/>
</g>
<!-- (val: 1 rnd:[0.80146086]) -->
<g id="node43" class="node">
<title>(val: 1 rnd:[0.80146086])</title>
<ellipse fill="none" stroke="black" cx="1178.5" cy="-19.5" rx="18" ry="18"/>
<text text-anchor="middle" x="1178.5" y="-15.8" font-family="Times,serif" font-size="14.00">1</text>
</g>
<!-- (val: 3.0, idx: 0, rnd:[0.45418379])&#45;&gt;(val: 1 rnd:[0.80146086]) -->
<g id="edge41" class="edge">
<title>(val: 3.0, idx: 0, rnd:[0.45418379])&#45;&gt;(val: 1 rnd:[0.80146086])</title>
<path fill="none" stroke="black" d="M1161.24,-113.54C1165.47,-90.74 1170.12,-65.68 1173.53,-47.31"/>
<polygon fill="black" stroke="black" points="1176.99,-47.81 1175.37,-37.34 1170.11,-46.54 1176.99,-47.81"/>
</g>
<!-- (val: &#45;1 rnd:[0.63218745]) -->
<g id="node44" class="node">
<title>(val: &#45;1 rnd:[0.63218745])</title>
<ellipse fill="none" stroke="black" cx="1267.5" cy="-19.5" rx="19.5" ry="19.5"/>
<text text-anchor="middle" x="1267.5" y="-15.8" font-family="Times,serif" font-size="14.00">&#45;1</text>
</g>
<!-- (val: 0.0, idx: 4, rnd:[0.54176102])&#45;&gt;(val: &#45;1 rnd:[0.63218745]) -->
<g id="edge43" class="edge">
<title>(val: 0.0, idx: 4, rnd:[0.54176102])&#45;&gt;(val: &#45;1 rnd:[0.63218745])</title>
<path fill="none" stroke="black" d="M1282.97,-107.02C1279.35,-86.77 1275.53,-65.43 1272.6,-49.02"/>
<polygon fill="black" stroke="black" points="1276.01,-48.23 1270.81,-39 1269.12,-49.46 1276.01,-48.23"/>
</g>
<!-- (val: 1 rnd:[0.24662136]) -->
<g id="node45" class="node">
<title>(val: 1 rnd:[0.24662136])</title>
<ellipse fill="none" stroke="black" cx="1322.5" cy="-19.5" rx="18" ry="18"/>
<text text-anchor="middle" x="1322.5" y="-15.8" font-family="Times,serif" font-size="14.00">1</text>
</g>
<!-- (val: 0.0, idx: 4, rnd:[0.54176102])&#45;&gt;(val: 1 rnd:[0.24662136]) -->
<g id="edge44" class="edge">
<title>(val: 0.0, idx: 4, rnd:[0.54176102])&#45;&gt;(val: 1 rnd:[0.24662136])</title>
<path fill="none" stroke="black" d="M1306.45,-107.02C1310.33,-86.11 1314.42,-64.05 1317.5,-47.43"/>
<polygon fill="black" stroke="black" points="1320.99,-47.84 1319.37,-37.37 1314.1,-46.57 1320.99,-47.84"/>
</g>
<!-- (val: 1 rnd:[0.13822644]) -->
<g id="node46" class="node">
<title>(val: 1 rnd:[0.13822644])</title>
<ellipse fill="none" stroke="black" cx="1427.5" cy="-19.5" rx="18" ry="18"/>
<text text-anchor="middle" x="1427.5" y="-15.8" font-family="Times,serif" font-size="14.00">1</text>
</g>
<!-- (val: 0.0, idx: 313, rnd:[0.98886285])&#45;&gt;(val: 1 rnd:[0.13822644]) -->
<g id="edge45" class="edge">
<title>(val: 0.0, idx: 313, rnd:[0.98886285])&#45;&gt;(val: 1 rnd:[0.13822644])</title>
<path fill="none" stroke="black" d="M1439.74,-100.86C1436.84,-81.83 1433.88,-62.4 1431.6,-47.41"/>
<polygon fill="black" stroke="black" points="1435.03,-46.7 1430.06,-37.35 1428.11,-47.76 1435.03,-46.7"/>
</g>
<!-- (val: 1 rnd:[0.29534956]) -->
<g id="node47" class="node">
<title>(val: 1 rnd:[0.29534956])</title>
<ellipse fill="none" stroke="black" cx="1481.5" cy="-19.5" rx="18" ry="18"/>
<text text-anchor="middle" x="1481.5" y="-15.8" font-family="Times,serif" font-size="14.00">1</text>
</g>
<!-- (val: 0.0, idx: 313, rnd:[0.98886285])&#45;&gt;(val: 1 rnd:[0.29534956]) -->
<g id="edge46" class="edge">
<title>(val: 0.0, idx: 313, rnd:[0.98886285])&#45;&gt;(val: 1 rnd:[0.29534956])</title>
<path fill="none" stroke="black" d="M1464.82,-101.74C1468.78,-82.46 1472.84,-62.69 1475.96,-47.47"/>
<polygon fill="black" stroke="black" points="1479.47,-47.77 1478.05,-37.27 1472.61,-46.36 1479.47,-47.77"/>
</g>
<!-- (val: &#45;1 rnd:[0.02234763]) -->
<g id="node48" class="node">
<title>(val: &#45;1 rnd:[0.02234763])</title>
<ellipse fill="none" stroke="black" cx="1610.5" cy="-19.5" rx="19.5" ry="19.5"/>
<text text-anchor="middle" x="1610.5" y="-15.8" font-family="Times,serif" font-size="14.00">&#45;1</text>
</g>
<!-- (val: 0.0, idx: 285, rnd:[0.08510738])&#45;&gt;(val: &#45;1 rnd:[0.02234763]) -->
<g id="edge47" class="edge">
<title>(val: 0.0, idx: 285, rnd:[0.08510738])&#45;&gt;(val: &#45;1 rnd:[0.02234763])</title>
<path fill="none" stroke="black" d="M1620.84,-76.29C1619.02,-66.47 1617.29,-57.12 1615.78,-48.98"/>
<polygon fill="black" stroke="black" points="1619.2,-48.24 1613.94,-39.04 1612.32,-49.51 1619.2,-48.24"/>
</g>
<!-- (val: 1 rnd:[0.2171702]) -->
<g id="node49" class="node">
<title>(val: 1 rnd:[0.2171702])</title>
<ellipse fill="none" stroke="black" cx="1665.5" cy="-19.5" rx="18" ry="18"/>
<text text-anchor="middle" x="1665.5" y="-15.8" font-family="Times,serif" font-size="14.00">1</text>
</g>
<!-- (val: 0.0, idx: 285, rnd:[0.08510738])&#45;&gt;(val: 1 rnd:[0.2171702]) -->
<g id="edge48" class="edge">
<title>(val: 0.0, idx: 285, rnd:[0.08510738])&#45;&gt;(val: 1 rnd:[0.2171702])</title>
<path fill="none" stroke="black" d="M1655.52,-76.29C1657.39,-65.86 1659.16,-55.96 1660.67,-47.49"/>
<polygon fill="black" stroke="black" points="1664.13,-48.03 1662.45,-37.57 1657.24,-46.8 1664.13,-48.03"/>
</g>
</g>
</svg>
