<?xml version="1.0" encoding="UTF-8" standalone="no"?>
<!DOCTYPE svg PUBLIC "-//W3C//DTD SVG 1.1//EN"
 "http://www.w3.org/Graphics/SVG/1.1/DTD/svg11.dtd">
<!-- Generated by graphviz version 2.43.0 (0)
 -->
<!-- Title: tree Pages: 1 -->
<svg width="1199pt" height="816pt"
 viewBox="0.00 0.00 1199.14 816.24" xmlns="http://www.w3.org/2000/svg" xmlns:xlink="http://www.w3.org/1999/xlink">
<g id="graph0" class="graph" transform="scale(1 1) rotate(0) translate(4 812.24)">
<title>tree</title>
<polygon fill="white" stroke="transparent" points="-4,4 -4,-812.24 1195.14,-812.24 1195.14,4 -4,4"/>
<!-- (val: 0.0, idx: 101, rnd:[0.0871293]) -->
<g id="node1" class="node">
<title>(val: 0.0, idx: 101, rnd:[0.0871293])</title>
<ellipse fill="none" stroke="black" cx="572.19" cy="-733.5" rx="74.99" ry="74.99"/>
<text text-anchor="middle" x="572.19" y="-729.8" font-family="Times,serif" font-size="14.00">subject&lt;=0.0</text>
</g>
<!-- (val: 0.0, idx: 2, rnd:[0.0202184]) -->
<g id="node2" class="node">
<title>(val: 0.0, idx: 2, rnd:[0.0202184])</title>
<ellipse fill="none" stroke="black" cx="489.19" cy="-561.66" rx="60.39" ry="60.39"/>
<text text-anchor="middle" x="489.19" y="-557.96" font-family="Times,serif" font-size="14.00">http&lt;=0.0</text>
</g>
<!-- (val: 0.0, idx: 101, rnd:[0.0871293])&#45;&gt;(val: 0.0, idx: 2, rnd:[0.0202184]) -->
<g id="edge1" class="edge">
<title>(val: 0.0, idx: 101, rnd:[0.0871293])&#45;&gt;(val: 0.0, idx: 2, rnd:[0.0202184])</title>
<path fill="none" stroke="black" d="M539.63,-665.86C533.1,-652.5 526.26,-638.5 519.79,-625.27"/>
<polygon fill="black" stroke="black" points="522.93,-623.71 515.39,-616.26 516.64,-626.78 522.93,-623.71"/>
</g>
<!-- (val: 0.0, idx: 115, rnd:[0.77423369]) -->
<g id="node3" class="node">
<title>(val: 0.0, idx: 115, rnd:[0.77423369])</title>
<ellipse fill="none" stroke="black" cx="710.19" cy="-561.66" rx="61.19" ry="61.19"/>
<text text-anchor="middle" x="710.19" y="-557.96" font-family="Times,serif" font-size="14.00">stop&lt;=0.0</text>
</g>
<!-- (val: 0.0, idx: 101, rnd:[0.0871293])&#45;&gt;(val: 0.0, idx: 115, rnd:[0.77423369]) -->
<g id="edge2" class="edge">
<title>(val: 0.0, idx: 101, rnd:[0.0871293])&#45;&gt;(val: 0.0, idx: 115, rnd:[0.77423369])</title>
<path fill="none" stroke="black" d="M618.92,-675C633.9,-656.56 650.46,-636.18 665.31,-617.9"/>
<polygon fill="black" stroke="black" points="668.41,-619.63 672,-609.67 662.98,-615.22 668.41,-619.63"/>
</g>
<!-- (val: 0.0, idx: 161, rnd:[0.11827443]) -->
<g id="node4" class="node">
<title>(val: 0.0, idx: 161, rnd:[0.11827443])</title>
<ellipse fill="none" stroke="black" cx="234.19" cy="-389.17" rx="73.39" ry="73.39"/>
<text text-anchor="middle" x="234.19" y="-385.47" font-family="Times,serif" font-size="14.00">energy&lt;=0.0</text>
</g>
<!-- (val: 0.0, idx: 2, rnd:[0.0202184])&#45;&gt;(val: 0.0, idx: 161, rnd:[0.11827443]) -->
<g id="edge4" class="edge">
<title>(val: 0.0, idx: 2, rnd:[0.0202184])&#45;&gt;(val: 0.0, idx: 161, rnd:[0.11827443])</title>
<path fill="none" stroke="black" d="M439.12,-527.18C400.37,-501.27 346.25,-465.09 303.36,-436.42"/>
<polygon fill="black" stroke="black" points="305.2,-433.44 294.94,-430.79 301.31,-439.26 305.2,-433.44"/>
</g>
<!-- (val: 0.0, idx: 226, rnd:[0.83261985]) -->
<g id="node5" class="node">
<title>(val: 0.0, idx: 226, rnd:[0.83261985])</title>
<ellipse fill="none" stroke="black" cx="489.19" cy="-389.17" rx="72.29" ry="72.29"/>
<text text-anchor="middle" x="489.19" y="-385.47" font-family="Times,serif" font-size="14.00">thanks&lt;=0.0</text>
</g>
<!-- (val: 0.0, idx: 2, rnd:[0.0202184])&#45;&gt;(val: 0.0, idx: 226, rnd:[0.83261985]) -->
<g id="edge3" class="edge">
<title>(val: 0.0, idx: 2, rnd:[0.0202184])&#45;&gt;(val: 0.0, idx: 226, rnd:[0.83261985])</title>
<path fill="none" stroke="black" d="M489.19,-501.03C489.19,-491.55 489.19,-481.61 489.19,-471.73"/>
<polygon fill="black" stroke="black" points="492.7,-471.48 489.19,-461.48 485.7,-471.48 492.7,-471.48"/>
</g>
<!-- (val: 0.0, idx: 162, rnd:[0.45615033]) -->
<g id="node6" class="node">
<title>(val: 0.0, idx: 162, rnd:[0.45615033])</title>
<ellipse fill="none" stroke="black" cx="710.19" cy="-389.17" rx="75.29" ry="75.29"/>
<text text-anchor="middle" x="710.19" y="-385.47" font-family="Times,serif" font-size="14.00">remove&lt;=0.0</text>
</g>
<!-- (val: 0.0, idx: 115, rnd:[0.77423369])&#45;&gt;(val: 0.0, idx: 162, rnd:[0.45615033]) -->
<g id="edge5" class="edge">
<title>(val: 0.0, idx: 115, rnd:[0.77423369])&#45;&gt;(val: 0.0, idx: 162, rnd:[0.45615033])</title>
<path fill="none" stroke="black" d="M710.19,-500.55C710.19,-492.21 710.19,-483.52 710.19,-474.84"/>
<polygon fill="black" stroke="black" points="713.7,-474.68 710.19,-464.68 706.7,-474.68 713.7,-474.68"/>
</g>
<!-- (val: 0.0, idx: 61, rnd:[0.6818203]) -->
<g id="node7" class="node">
<title>(val: 0.0, idx: 61, rnd:[0.6818203])</title>
<ellipse fill="none" stroke="black" cx="951.19" cy="-389.17" rx="63.09" ry="63.09"/>
<text text-anchor="middle" x="951.19" y="-385.47" font-family="Times,serif" font-size="14.00">send&lt;=0.0</text>
</g>
<!-- (val: 0.0, idx: 115, rnd:[0.77423369])&#45;&gt;(val: 0.0, idx: 61, rnd:[0.6818203]) -->
<g id="edge6" class="edge">
<title>(val: 0.0, idx: 115, rnd:[0.77423369])&#45;&gt;(val: 0.0, idx: 61, rnd:[0.6818203])</title>
<path fill="none" stroke="black" d="M759.84,-525.54C798.12,-498.46 851.21,-460.9 891.76,-432.22"/>
<polygon fill="black" stroke="black" points="893.81,-435.05 899.95,-426.42 889.77,-429.34 893.81,-435.05"/>
</g>
<!-- (val: 0.0, idx: 73, rnd:[0.52184832]) -->
<g id="node8" class="node">
<title>(val: 0.0, idx: 73, rnd:[0.52184832])</title>
<ellipse fill="none" stroke="black" cx="57.19" cy="-176.39" rx="57.39" ry="57.39"/>
<text text-anchor="middle" x="57.19" y="-172.69" font-family="Times,serif" font-size="14.00">gas&lt;=0.0</text>
</g>
<!-- (val: 0.0, idx: 161, rnd:[0.11827443])&#45;&gt;(val: 0.0, idx: 73, rnd:[0.52184832]) -->
<g id="edge8" class="edge">
<title>(val: 0.0, idx: 161, rnd:[0.11827443])&#45;&gt;(val: 0.0, idx: 73, rnd:[0.52184832])</title>
<path fill="none" stroke="black" d="M180.53,-338.47C161.87,-320.14 141.33,-298.71 124.19,-277.78 113.04,-264.16 101.99,-248.66 92.18,-234"/>
<polygon fill="black" stroke="black" points="94.99,-231.89 86.56,-225.47 89.15,-235.75 94.99,-231.89"/>
</g>
<!-- (val: 0.0, idx: 222, rnd:[0.63992102]) -->
<g id="node9" class="node">
<title>(val: 0.0, idx: 222, rnd:[0.63992102])</title>
<ellipse fill="none" stroke="black" cx="234.19" cy="-176.39" rx="101.28" ry="101.28"/>
<text text-anchor="middle" x="234.19" y="-172.69" font-family="Times,serif" font-size="14.00">management&lt;=0.0</text>
</g>
<!-- (val: 0.0, idx: 161, rnd:[0.11827443])&#45;&gt;(val: 0.0, idx: 222, rnd:[0.63992102]) -->
<g id="edge7" class="edge">
<title>(val: 0.0, idx: 161, rnd:[0.11827443])&#45;&gt;(val: 0.0, idx: 222, rnd:[0.63992102])</title>
<path fill="none" stroke="black" d="M234.19,-315.63C234.19,-306.71 234.19,-297.44 234.19,-288.12"/>
<polygon fill="black" stroke="black" points="237.7,-287.99 234.19,-277.99 230.7,-287.99 237.7,-287.99"/>
</g>
<!-- (val: 4.0, idx: 284, rnd:[0.77815675]) -->
<g id="node10" class="node">
<title>(val: 4.0, idx: 284, rnd:[0.77815675])</title>
<ellipse fill="none" stroke="black" cx="394.19" cy="-176.39" rx="40.89" ry="40.89"/>
<text text-anchor="middle" x="394.19" y="-172.69" font-family="Times,serif" font-size="14.00">&lt;=4.0</text>
</g>
<!-- (val: 0.0, idx: 226, rnd:[0.83261985])&#45;&gt;(val: 4.0, idx: 284, rnd:[0.77815675]) -->
<g id="edge9" class="edge">
<title>(val: 0.0, idx: 226, rnd:[0.83261985])&#45;&gt;(val: 4.0, idx: 284, rnd:[0.77815675])</title>
<path fill="none" stroke="black" d="M459.92,-323.21C445.31,-290.79 427.98,-252.36 414.79,-223.09"/>
<polygon fill="black" stroke="black" points="417.96,-221.61 410.66,-213.93 411.58,-224.48 417.96,-221.61"/>
</g>
<!-- (val: 0.0, idx: 108, rnd:[0.79915856]) -->
<g id="node11" class="node">
<title>(val: 0.0, idx: 108, rnd:[0.79915856])</title>
<ellipse fill="none" stroke="black" cx="526.19" cy="-176.39" rx="72.59" ry="72.59"/>
<text text-anchor="middle" x="526.19" y="-172.69" font-family="Times,serif" font-size="14.00">dollars&lt;=0.0</text>
</g>
<!-- (val: 0.0, idx: 226, rnd:[0.83261985])&#45;&gt;(val: 0.0, idx: 108, rnd:[0.79915856]) -->
<g id="edge10" class="edge">
<title>(val: 0.0, idx: 226, rnd:[0.83261985])&#45;&gt;(val: 0.0, idx: 108, rnd:[0.79915856])</title>
<path fill="none" stroke="black" d="M501.52,-317.98C504.88,-298.83 508.55,-277.91 512.01,-258.21"/>
<polygon fill="black" stroke="black" points="515.46,-258.8 513.74,-248.35 508.56,-257.59 515.46,-258.8"/>
</g>
<!-- (val: 0.0, idx: 73, rnd:[0.61209572]) -->
<g id="node12" class="node">
<title>(val: 0.0, idx: 73, rnd:[0.61209572])</title>
<ellipse fill="none" stroke="black" cx="674.19" cy="-176.39" rx="57.39" ry="57.39"/>
<text text-anchor="middle" x="674.19" y="-172.69" font-family="Times,serif" font-size="14.00">gas&lt;=0.0</text>
</g>
<!-- (val: 0.0, idx: 162, rnd:[0.45615033])&#45;&gt;(val: 0.0, idx: 73, rnd:[0.61209572]) -->
<g id="edge12" class="edge">
<title>(val: 0.0, idx: 162, rnd:[0.45615033])&#45;&gt;(val: 0.0, idx: 73, rnd:[0.61209572])</title>
<path fill="none" stroke="black" d="M697.65,-314.75C693.66,-291.36 689.27,-265.64 685.38,-242.86"/>
<polygon fill="black" stroke="black" points="688.82,-242.22 683.68,-232.95 681.92,-243.39 688.82,-242.22"/>
</g>
<!-- (val: 0.0, idx: 2, rnd:[0.56843395]) -->
<g id="node13" class="node">
<title>(val: 0.0, idx: 2, rnd:[0.56843395])</title>
<ellipse fill="none" stroke="black" cx="810.19" cy="-176.39" rx="60.39" ry="60.39"/>
<text text-anchor="middle" x="810.19" y="-172.69" font-family="Times,serif" font-size="14.00">http&lt;=0.0</text>
</g>
<!-- (val: 0.0, idx: 162, rnd:[0.45615033])&#45;&gt;(val: 0.0, idx: 2, rnd:[0.56843395]) -->
<g id="edge11" class="edge">
<title>(val: 0.0, idx: 162, rnd:[0.45615033])&#45;&gt;(val: 0.0, idx: 2, rnd:[0.56843395])</title>
<path fill="none" stroke="black" d="M742.25,-320.61C754.46,-294.87 768.32,-265.66 780.32,-240.36"/>
<polygon fill="black" stroke="black" points="783.53,-241.77 784.65,-231.23 777.2,-238.77 783.53,-241.77"/>
</g>
<!-- (val: 0.0, idx: 174, rnd:[0.06022547]) -->
<g id="node14" class="node">
<title>(val: 0.0, idx: 174, rnd:[0.06022547])</title>
<ellipse fill="none" stroke="black" cx="951.19" cy="-176.39" rx="62.29" ry="62.29"/>
<text text-anchor="middle" x="951.19" y="-172.69" font-family="Times,serif" font-size="14.00">back&lt;=0.0</text>
</g>
<!-- (val: 0.0, idx: 61, rnd:[0.6818203])&#45;&gt;(val: 0.0, idx: 174, rnd:[0.06022547]) -->
<g id="edge14" class="edge">
<title>(val: 0.0, idx: 61, rnd:[0.6818203])&#45;&gt;(val: 0.0, idx: 174, rnd:[0.06022547])</title>
<path fill="none" stroke="black" d="M951.19,-326.07C951.19,-301.95 951.19,-274.16 951.19,-249.19"/>
<polygon fill="black" stroke="black" points="954.7,-249.05 951.19,-239.05 947.7,-249.05 954.7,-249.05"/>
</g>
<!-- (val: 0.0, idx: 333, rnd:[0.3595079]) -->
<g id="node15" class="node">
<title>(val: 0.0, idx: 333, rnd:[0.3595079])</title>
<ellipse fill="none" stroke="black" cx="1111.19" cy="-176.39" rx="79.89" ry="79.89"/>
<text text-anchor="middle" x="1111.19" y="-172.69" font-family="Times,serif" font-size="14.00">contains&lt;=0.0</text>
</g>
<!-- (val: 0.0, idx: 61, rnd:[0.6818203])&#45;&gt;(val: 0.0, idx: 333, rnd:[0.3595079]) -->
<g id="edge13" class="edge">
<title>(val: 0.0, idx: 61, rnd:[0.6818203])&#45;&gt;(val: 0.0, idx: 333, rnd:[0.3595079])</title>
<path fill="none" stroke="black" d="M988.91,-338.49C1009.18,-311.79 1034.53,-278.39 1056.88,-248.94"/>
<polygon fill="black" stroke="black" points="1059.84,-250.83 1063.1,-240.75 1054.27,-246.59 1059.84,-250.83"/>
</g>
<!-- (val: &#45;1 rnd:[0.41466194]) -->
<g id="node16" class="node">
<title>(val: &#45;1 rnd:[0.41466194])</title>
<ellipse fill="none" stroke="black" cx="29.19" cy="-19.5" rx="19.5" ry="19.5"/>
<text text-anchor="middle" x="29.19" y="-15.8" font-family="Times,serif" font-size="14.00">&#45;1</text>
</g>
<!-- (val: 0.0, idx: 73, rnd:[0.52184832])&#45;&gt;(val: &#45;1 rnd:[0.41466194]) -->
<g id="edge15" class="edge">
<title>(val: 0.0, idx: 73, rnd:[0.52184832])&#45;&gt;(val: &#45;1 rnd:[0.41466194])</title>
<path fill="none" stroke="black" d="M47.17,-119.91C42.8,-95.77 37.88,-68.54 34.29,-48.68"/>
<polygon fill="black" stroke="black" points="37.72,-47.97 32.5,-38.75 30.83,-49.22 37.72,-47.97"/>
</g>
<!-- (val: &#45;1 rnd:[0.26455561]) -->
<g id="node17" class="node">
<title>(val: &#45;1 rnd:[0.26455561])</title>
<ellipse fill="none" stroke="black" cx="86.19" cy="-19.5" rx="19.5" ry="19.5"/>
<text text-anchor="middle" x="86.19" y="-15.8" font-family="Times,serif" font-size="14.00">&#45;1</text>
</g>
<!-- (val: 0.0, idx: 73, rnd:[0.52184832])&#45;&gt;(val: &#45;1 rnd:[0.26455561]) -->
<g id="edge16" class="edge">
<title>(val: 0.0, idx: 73, rnd:[0.52184832])&#45;&gt;(val: &#45;1 rnd:[0.26455561])</title>
<path fill="none" stroke="black" d="M67.58,-119.91C72.1,-95.77 77.2,-68.54 80.92,-48.68"/>
<polygon fill="black" stroke="black" points="84.38,-49.23 82.78,-38.75 77.5,-47.94 84.38,-49.23"/>
</g>
<!-- (val: &#45;1 rnd:[0.94466892]) -->
<g id="node18" class="node">
<title>(val: &#45;1 rnd:[0.94466892])</title>
<ellipse fill="none" stroke="black" cx="204.19" cy="-19.5" rx="19.5" ry="19.5"/>
<text text-anchor="middle" x="204.19" y="-15.8" font-family="Times,serif" font-size="14.00">&#45;1</text>
</g>
<!-- (val: 0.0, idx: 222, rnd:[0.63992102])&#45;&gt;(val: &#45;1 rnd:[0.94466892]) -->
<g id="edge18" class="edge">
<title>(val: 0.0, idx: 222, rnd:[0.63992102])&#45;&gt;(val: &#45;1 rnd:[0.94466892])</title>
<path fill="none" stroke="black" d="M215.03,-76.42C213.11,-66.52 211.29,-57.14 209.71,-48.98"/>
<polygon fill="black" stroke="black" points="213.12,-48.18 207.78,-39.03 206.25,-49.51 213.12,-48.18"/>
</g>
<!-- (val: 1 rnd:[0.14335329]) -->
<g id="node19" class="node">
<title>(val: 1 rnd:[0.14335329])</title>
<ellipse fill="none" stroke="black" cx="259.19" cy="-19.5" rx="18" ry="18"/>
<text text-anchor="middle" x="259.19" y="-15.8" font-family="Times,serif" font-size="14.00">1</text>
</g>
<!-- (val: 0.0, idx: 222, rnd:[0.63992102])&#45;&gt;(val: 1 rnd:[0.14335329]) -->
<g id="edge17" class="edge">
<title>(val: 0.0, idx: 222, rnd:[0.63992102])&#45;&gt;(val: 1 rnd:[0.14335329])</title>
<path fill="none" stroke="black" d="M250.24,-75.98C251.91,-65.66 253.48,-55.9 254.83,-47.53"/>
<polygon fill="black" stroke="black" points="258.33,-47.83 256.47,-37.4 251.42,-46.72 258.33,-47.83"/>
</g>
<!-- (val: &#45;1 rnd:[0.97861834]) -->
<g id="node20" class="node">
<title>(val: &#45;1 rnd:[0.97861834])</title>
<ellipse fill="none" stroke="black" cx="350.19" cy="-19.5" rx="19.5" ry="19.5"/>
<text text-anchor="middle" x="350.19" y="-15.8" font-family="Times,serif" font-size="14.00">&#45;1</text>
</g>
<!-- (val: 4.0, idx: 284, rnd:[0.77815675])&#45;&gt;(val: &#45;1 rnd:[0.97861834]) -->
<g id="edge20" class="edge">
<title>(val: 4.0, idx: 284, rnd:[0.77815675])&#45;&gt;(val: &#45;1 rnd:[0.97861834])</title>
<path fill="none" stroke="black" d="M383.21,-136.7C375.41,-109.26 365.13,-73.07 358.13,-48.42"/>
<polygon fill="black" stroke="black" points="361.44,-47.28 355.34,-38.62 354.71,-49.19 361.44,-47.28"/>
</g>
<!-- (val: 1 rnd:[0.87001215]) -->
<g id="node21" class="node">
<title>(val: 1 rnd:[0.87001215])</title>
<ellipse fill="none" stroke="black" cx="405.19" cy="-19.5" rx="18" ry="18"/>
<text text-anchor="middle" x="405.19" y="-15.8" font-family="Times,serif" font-size="14.00">1</text>
</g>
<!-- (val: 4.0, idx: 284, rnd:[0.77815675])&#45;&gt;(val: 1 rnd:[0.87001215]) -->
<g id="edge19" class="edge">
<title>(val: 4.0, idx: 284, rnd:[0.77815675])&#45;&gt;(val: 1 rnd:[0.87001215])</title>
<path fill="none" stroke="black" d="M397.03,-135.5C398.98,-107.98 401.53,-72.12 403.26,-47.81"/>
<polygon fill="black" stroke="black" points="406.77,-47.75 403.99,-37.53 399.79,-47.26 406.77,-47.75"/>
</g>
<!-- (val: &#45;1 rnd:[0.46147936]) -->
<g id="node22" class="node">
<title>(val: &#45;1 rnd:[0.46147936])</title>
<ellipse fill="none" stroke="black" cx="490.19" cy="-19.5" rx="19.5" ry="19.5"/>
<text text-anchor="middle" x="490.19" y="-15.8" font-family="Times,serif" font-size="14.00">&#45;1</text>
</g>
<!-- (val: 0.0, idx: 108, rnd:[0.79915856])&#45;&gt;(val: &#45;1 rnd:[0.46147936]) -->
<g id="edge21" class="edge">
<title>(val: 0.0, idx: 108, rnd:[0.79915856])&#45;&gt;(val: &#45;1 rnd:[0.46147936])</title>
<path fill="none" stroke="black" d="M509.88,-105.19C505.25,-85.29 500.48,-64.75 496.79,-48.88"/>
<polygon fill="black" stroke="black" points="500.1,-47.65 494.43,-38.7 493.28,-49.24 500.1,-47.65"/>
</g>
<!-- (val: 1 rnd:[0.78052918]) -->
<g id="node23" class="node">
<title>(val: 1 rnd:[0.78052918])</title>
<ellipse fill="none" stroke="black" cx="545.19" cy="-19.5" rx="18" ry="18"/>
<text text-anchor="middle" x="545.19" y="-15.8" font-family="Times,serif" font-size="14.00">1</text>
</g>
<!-- (val: 0.0, idx: 108, rnd:[0.79915856])&#45;&gt;(val: 1 rnd:[0.78052918]) -->
<g id="edge22" class="edge">
<title>(val: 0.0, idx: 108, rnd:[0.79915856])&#45;&gt;(val: 1 rnd:[0.78052918])</title>
<path fill="none" stroke="black" d="M534.97,-103.84C537.44,-83.74 539.97,-63.12 541.89,-47.41"/>
<polygon fill="black" stroke="black" points="545.38,-47.74 543.12,-37.39 538.43,-46.89 545.38,-47.74"/>
</g>
<!-- (val: &#45;1 rnd:[0.94374808]) -->
<g id="node24" class="node">
<title>(val: &#45;1 rnd:[0.94374808])</title>
<ellipse fill="none" stroke="black" cx="631.19" cy="-19.5" rx="19.5" ry="19.5"/>
<text text-anchor="middle" x="631.19" y="-15.8" font-family="Times,serif" font-size="14.00">&#45;1</text>
</g>
<!-- (val: 0.0, idx: 73, rnd:[0.61209572])&#45;&gt;(val: &#45;1 rnd:[0.94374808]) -->
<g id="edge24" class="edge">
<title>(val: 0.0, idx: 73, rnd:[0.61209572])&#45;&gt;(val: &#45;1 rnd:[0.94374808])</title>
<path fill="none" stroke="black" d="M659.03,-120.78C652.24,-96.3 644.52,-68.49 638.93,-48.37"/>
<polygon fill="black" stroke="black" points="642.27,-47.31 636.22,-38.61 635.53,-49.18 642.27,-47.31"/>
</g>
<!-- (val: 1 rnd:[0.616934]) -->
<g id="node25" class="node">
<title>(val: 1 rnd:[0.616934])</title>
<ellipse fill="none" stroke="black" cx="686.19" cy="-19.5" rx="18" ry="18"/>
<text text-anchor="middle" x="686.19" y="-15.8" font-family="Times,serif" font-size="14.00">1</text>
</g>
<!-- (val: 0.0, idx: 73, rnd:[0.61209572])&#45;&gt;(val: 1 rnd:[0.616934]) -->
<g id="edge23" class="edge">
<title>(val: 0.0, idx: 73, rnd:[0.61209572])&#45;&gt;(val: 1 rnd:[0.616934])</title>
<path fill="none" stroke="black" d="M678.56,-119.03C680.45,-94.65 682.57,-67.26 684.1,-47.56"/>
<polygon fill="black" stroke="black" points="687.6,-47.71 684.88,-37.47 680.62,-47.17 687.6,-47.71"/>
</g>
<!-- (val: &#45;1 rnd:[0.0187898]) -->
<g id="node26" class="node">
<title>(val: &#45;1 rnd:[0.0187898])</title>
<ellipse fill="none" stroke="black" cx="769.19" cy="-19.5" rx="19.5" ry="19.5"/>
<text text-anchor="middle" x="769.19" y="-15.8" font-family="Times,serif" font-size="14.00">&#45;1</text>
</g>
<!-- (val: 0.0, idx: 2, rnd:[0.56843395])&#45;&gt;(val: &#45;1 rnd:[0.0187898]) -->
<g id="edge25" class="edge">
<title>(val: 0.0, idx: 2, rnd:[0.56843395])&#45;&gt;(val: &#45;1 rnd:[0.0187898])</title>
<path fill="none" stroke="black" d="M794.93,-117.71C788.67,-94.05 781.7,-67.76 776.6,-48.49"/>
<polygon fill="black" stroke="black" points="779.92,-47.34 773.98,-38.56 773.15,-49.13 779.92,-47.34"/>
</g>
<!-- (val: &#45;1 rnd:[0.6176355]) -->
<g id="node27" class="node">
<title>(val: &#45;1 rnd:[0.6176355])</title>
<ellipse fill="none" stroke="black" cx="826.19" cy="-19.5" rx="19.5" ry="19.5"/>
<text text-anchor="middle" x="826.19" y="-15.8" font-family="Times,serif" font-size="14.00">&#45;1</text>
</g>
<!-- (val: 0.0, idx: 2, rnd:[0.56843395])&#45;&gt;(val: &#45;1 rnd:[0.6176355]) -->
<g id="edge26" class="edge">
<title>(val: 0.0, idx: 2, rnd:[0.56843395])&#45;&gt;(val: &#45;1 rnd:[0.6176355])</title>
<path fill="none" stroke="black" d="M816.34,-115.95C818.7,-93.02 821.3,-67.86 823.24,-49.13"/>
<polygon fill="black" stroke="black" points="826.72,-49.49 824.26,-39.18 819.76,-48.77 826.72,-49.49"/>
</g>
<!-- (val: 1 rnd:[0.66676672]) -->
<g id="node28" class="node">
<title>(val: 1 rnd:[0.66676672])</title>
<ellipse fill="none" stroke="black" cx="924.19" cy="-19.5" rx="18" ry="18"/>
<text text-anchor="middle" x="924.19" y="-15.8" font-family="Times,serif" font-size="14.00">1</text>
</g>
<!-- (val: 0.0, idx: 174, rnd:[0.06022547])&#45;&gt;(val: 1 rnd:[0.66676672]) -->
<g id="edge27" class="edge">
<title>(val: 0.0, idx: 174, rnd:[0.06022547])&#45;&gt;(val: 1 rnd:[0.66676672])</title>
<path fill="none" stroke="black" d="M940.6,-114.62C936.55,-91.38 932.13,-66.04 928.9,-47.51"/>
<polygon fill="black" stroke="black" points="932.32,-46.71 927.15,-37.46 925.42,-47.91 932.32,-46.71"/>
</g>
<!-- (val: 1 rnd:[0.67063787]) -->
<g id="node29" class="node">
<title>(val: 1 rnd:[0.67063787])</title>
<ellipse fill="none" stroke="black" cx="978.19" cy="-19.5" rx="18" ry="18"/>
<text text-anchor="middle" x="978.19" y="-15.8" font-family="Times,serif" font-size="14.00">1</text>
</g>
<!-- (val: 0.0, idx: 174, rnd:[0.06022547])&#45;&gt;(val: 1 rnd:[0.67063787]) -->
<g id="edge28" class="edge">
<title>(val: 0.0, idx: 174, rnd:[0.06022547])&#45;&gt;(val: 1 rnd:[0.67063787])</title>
<path fill="none" stroke="black" d="M961.79,-114.62C965.84,-91.38 970.26,-66.04 973.49,-47.51"/>
<polygon fill="black" stroke="black" points="976.97,-47.91 975.24,-37.46 970.07,-46.71 976.97,-47.91"/>
</g>
<!-- (val: &#45;1 rnd:[0.43703195]) -->
<g id="node30" class="node">
<title>(val: &#45;1 rnd:[0.43703195])</title>
<ellipse fill="none" stroke="black" cx="1083.19" cy="-19.5" rx="19.5" ry="19.5"/>
<text text-anchor="middle" x="1083.19" y="-15.8" font-family="Times,serif" font-size="14.00">&#45;1</text>
</g>
<!-- (val: 0.0, idx: 333, rnd:[0.3595079])&#45;&gt;(val: &#45;1 rnd:[0.43703195]) -->
<g id="edge29" class="edge">
<title>(val: 0.0, idx: 333, rnd:[0.3595079])&#45;&gt;(val: &#45;1 rnd:[0.43703195])</title>
<path fill="none" stroke="black" d="M1097.11,-97.49C1093.94,-79.96 1090.78,-62.46 1088.27,-48.59"/>
<polygon fill="black" stroke="black" points="1091.72,-47.96 1086.49,-38.74 1084.83,-49.21 1091.72,-47.96"/>
</g>
<!-- (val: 1 rnd:[0.6976312]) -->
<g id="node31" class="node">
<title>(val: 1 rnd:[0.6976312])</title>
<ellipse fill="none" stroke="black" cx="1138.19" cy="-19.5" rx="18" ry="18"/>
<text text-anchor="middle" x="1138.19" y="-15.8" font-family="Times,serif" font-size="14.00">1</text>
</g>
<!-- (val: 0.0, idx: 333, rnd:[0.3595079])&#45;&gt;(val: 1 rnd:[0.6976312]) -->
<g id="edge30" class="edge">
<title>(val: 0.0, idx: 333, rnd:[0.3595079])&#45;&gt;(val: 1 rnd:[0.6976312])</title>
<path fill="none" stroke="black" d="M1124.77,-97.49C1127.91,-79.48 1131.05,-61.5 1133.5,-47.46"/>
<polygon fill="black" stroke="black" points="1136.95,-48 1135.22,-37.54 1130.06,-46.79 1136.95,-48"/>
</g>
</g>
</svg>
