<?xml version="1.0" encoding="UTF-8" standalone="no"?>
<!DOCTYPE svg PUBLIC "-//W3C//DTD SVG 1.1//EN"
 "http://www.w3.org/Graphics/SVG/1.1/DTD/svg11.dtd">
<!-- Generated by graphviz version 2.43.0 (0)
 -->
<!-- Title: tree Pages: 1 -->
<svg width="2167pt" height="1038pt"
 viewBox="0.00 0.00 2167.49 1038.12" xmlns="http://www.w3.org/2000/svg" xmlns:xlink="http://www.w3.org/1999/xlink">
<g id="graph0" class="graph" transform="scale(1 1) rotate(0) translate(4 1034.12)">
<title>tree</title>
<polygon fill="white" stroke="transparent" points="-4,4 -4,-1034.12 2163.49,-1034.12 2163.49,4 -4,4"/>
<!-- (val: 0.0, idx: 101, rnd:[0.21038256]) -->
<g id="node1" class="node">
<title>(val: 0.0, idx: 101, rnd:[0.21038256])</title>
<ellipse fill="none" stroke="black" cx="1050.5" cy="-955.38" rx="74.99" ry="74.99"/>
<text text-anchor="middle" x="1050.5" y="-951.68" font-family="Times,serif" font-size="14.00">subject&lt;=0.0</text>
</g>
<!-- (val: 0.0, idx: 2, rnd:[0.1289263]) -->
<g id="node2" class="node">
<title>(val: 0.0, idx: 2, rnd:[0.1289263])</title>
<ellipse fill="none" stroke="black" cx="756.5" cy="-783.54" rx="60.39" ry="60.39"/>
<text text-anchor="middle" x="756.5" y="-779.84" font-family="Times,serif" font-size="14.00">http&lt;=0.0</text>
</g>
<!-- (val: 0.0, idx: 101, rnd:[0.21038256])&#45;&gt;(val: 0.0, idx: 2, rnd:[0.1289263]) -->
<g id="edge1" class="edge">
<title>(val: 0.0, idx: 101, rnd:[0.21038256])&#45;&gt;(val: 0.0, idx: 2, rnd:[0.1289263])</title>
<path fill="none" stroke="black" d="M985.98,-917.11C935.85,-888.15 866.81,-848.27 817.58,-819.83"/>
<polygon fill="black" stroke="black" points="819.04,-816.63 808.63,-814.66 815.54,-822.69 819.04,-816.63"/>
</g>
<!-- (val: 0.0, idx: 115, rnd:[0.28280696]) -->
<g id="node3" class="node">
<title>(val: 0.0, idx: 115, rnd:[0.28280696])</title>
<ellipse fill="none" stroke="black" cx="1344.5" cy="-783.54" rx="61.19" ry="61.19"/>
<text text-anchor="middle" x="1344.5" y="-779.84" font-family="Times,serif" font-size="14.00">stop&lt;=0.0</text>
</g>
<!-- (val: 0.0, idx: 101, rnd:[0.21038256])&#45;&gt;(val: 0.0, idx: 115, rnd:[0.28280696]) -->
<g id="edge2" class="edge">
<title>(val: 0.0, idx: 101, rnd:[0.21038256])&#45;&gt;(val: 0.0, idx: 115, rnd:[0.28280696])</title>
<path fill="none" stroke="black" d="M1115.02,-917.11C1164.98,-888.25 1233.75,-848.52 1282.95,-820.1"/>
<polygon fill="black" stroke="black" points="1284.99,-822.96 1291.9,-814.93 1281.49,-816.9 1284.99,-822.96"/>
</g>
<!-- (val: 0.0, idx: 161, rnd:[0.13818295]) -->
<g id="node4" class="node">
<title>(val: 0.0, idx: 161, rnd:[0.13818295])</title>
<ellipse fill="none" stroke="black" cx="351.5" cy="-611.06" rx="73.39" ry="73.39"/>
<text text-anchor="middle" x="351.5" y="-607.36" font-family="Times,serif" font-size="14.00">energy&lt;=0.0</text>
</g>
<!-- (val: 0.0, idx: 2, rnd:[0.1289263])&#45;&gt;(val: 0.0, idx: 161, rnd:[0.13818295]) -->
<g id="edge4" class="edge">
<title>(val: 0.0, idx: 2, rnd:[0.1289263])&#45;&gt;(val: 0.0, idx: 161, rnd:[0.13818295])</title>
<path fill="none" stroke="black" d="M701.03,-759.2C630.46,-729.49 508.2,-678.02 428.59,-644.51"/>
<polygon fill="black" stroke="black" points="429.67,-641.17 419.1,-640.51 426.95,-647.62 429.67,-641.17"/>
</g>
<!-- (val: 0.0, idx: 226, rnd:[0.31542835]) -->
<g id="node5" class="node">
<title>(val: 0.0, idx: 226, rnd:[0.31542835])</title>
<ellipse fill="none" stroke="black" cx="756.5" cy="-611.06" rx="72.29" ry="72.29"/>
<text text-anchor="middle" x="756.5" y="-607.36" font-family="Times,serif" font-size="14.00">thanks&lt;=0.0</text>
</g>
<!-- (val: 0.0, idx: 2, rnd:[0.1289263])&#45;&gt;(val: 0.0, idx: 226, rnd:[0.31542835]) -->
<g id="edge3" class="edge">
<title>(val: 0.0, idx: 2, rnd:[0.1289263])&#45;&gt;(val: 0.0, idx: 226, rnd:[0.31542835])</title>
<path fill="none" stroke="black" d="M756.5,-722.91C756.5,-713.44 756.5,-703.49 756.5,-693.61"/>
<polygon fill="black" stroke="black" points="760,-693.37 756.5,-683.37 753,-693.37 760,-693.37"/>
</g>
<!-- (val: 0.0, idx: 162, rnd:[0.12019656]) -->
<g id="node6" class="node">
<title>(val: 0.0, idx: 162, rnd:[0.12019656])</title>
<ellipse fill="none" stroke="black" cx="1344.5" cy="-611.06" rx="75.29" ry="75.29"/>
<text text-anchor="middle" x="1344.5" y="-607.36" font-family="Times,serif" font-size="14.00">remove&lt;=0.0</text>
</g>
<!-- (val: 0.0, idx: 115, rnd:[0.28280696])&#45;&gt;(val: 0.0, idx: 162, rnd:[0.12019656]) -->
<g id="edge5" class="edge">
<title>(val: 0.0, idx: 115, rnd:[0.28280696])&#45;&gt;(val: 0.0, idx: 162, rnd:[0.12019656])</title>
<path fill="none" stroke="black" d="M1344.5,-722.44C1344.5,-714.1 1344.5,-705.41 1344.5,-696.73"/>
<polygon fill="black" stroke="black" points="1348,-696.56 1344.5,-686.56 1341,-696.56 1348,-696.56"/>
</g>
<!-- (val: 0.0, idx: 61, rnd:[0.13179786]) -->
<g id="node7" class="node">
<title>(val: 0.0, idx: 61, rnd:[0.13179786])</title>
<ellipse fill="none" stroke="black" cx="1792.5" cy="-611.06" rx="63.09" ry="63.09"/>
<text text-anchor="middle" x="1792.5" y="-607.36" font-family="Times,serif" font-size="14.00">send&lt;=0.0</text>
</g>
<!-- (val: 0.0, idx: 115, rnd:[0.28280696])&#45;&gt;(val: 0.0, idx: 61, rnd:[0.13179786]) -->
<g id="edge6" class="edge">
<title>(val: 0.0, idx: 115, rnd:[0.28280696])&#45;&gt;(val: 0.0, idx: 61, rnd:[0.13179786])</title>
<path fill="none" stroke="black" d="M1401.69,-760.78C1484.2,-729.38 1636.35,-671.48 1724.49,-637.93"/>
<polygon fill="black" stroke="black" points="1725.77,-641.2 1733.87,-634.37 1723.28,-634.65 1725.77,-641.2"/>
</g>
<!-- (val: 0.0, idx: 73, rnd:[0.4686512]) -->
<g id="node8" class="node">
<title>(val: 0.0, idx: 73, rnd:[0.4686512])</title>
<ellipse fill="none" stroke="black" cx="114.5" cy="-398.27" rx="57.39" ry="57.39"/>
<text text-anchor="middle" x="114.5" y="-394.57" font-family="Times,serif" font-size="14.00">gas&lt;=0.0</text>
</g>
<!-- (val: 0.0, idx: 161, rnd:[0.13818295])&#45;&gt;(val: 0.0, idx: 73, rnd:[0.4686512]) -->
<g id="edge8" class="edge">
<title>(val: 0.0, idx: 161, rnd:[0.13818295])&#45;&gt;(val: 0.0, idx: 73, rnd:[0.4686512])</title>
<path fill="none" stroke="black" d="M296.83,-561.43C256.97,-525.98 203.38,-478.32 164.62,-443.85"/>
<polygon fill="black" stroke="black" points="166.88,-441.17 157.08,-437.14 162.23,-446.4 166.88,-441.17"/>
</g>
<!-- (val: 0.0, idx: 222, rnd:[0.19658236]) -->
<g id="node9" class="node">
<title>(val: 0.0, idx: 222, rnd:[0.19658236])</title>
<ellipse fill="none" stroke="black" cx="351.5" cy="-398.27" rx="101.28" ry="101.28"/>
<text text-anchor="middle" x="351.5" y="-394.57" font-family="Times,serif" font-size="14.00">management&lt;=0.0</text>
</g>
<!-- (val: 0.0, idx: 161, rnd:[0.13818295])&#45;&gt;(val: 0.0, idx: 222, rnd:[0.19658236]) -->
<g id="edge7" class="edge">
<title>(val: 0.0, idx: 161, rnd:[0.13818295])&#45;&gt;(val: 0.0, idx: 222, rnd:[0.19658236])</title>
<path fill="none" stroke="black" d="M351.5,-537.52C351.5,-528.6 351.5,-519.33 351.5,-510"/>
<polygon fill="black" stroke="black" points="355,-509.87 351.5,-499.87 348,-509.87 355,-509.87"/>
</g>
<!-- (val: 4.0, idx: 284, rnd:[0.36371077]) -->
<g id="node10" class="node">
<title>(val: 4.0, idx: 284, rnd:[0.36371077])</title>
<ellipse fill="none" stroke="black" cx="687.5" cy="-398.27" rx="40.89" ry="40.89"/>
<text text-anchor="middle" x="687.5" y="-394.57" font-family="Times,serif" font-size="14.00">&lt;=4.0</text>
</g>
<!-- (val: 0.0, idx: 226, rnd:[0.31542835])&#45;&gt;(val: 4.0, idx: 284, rnd:[0.36371077]) -->
<g id="edge9" class="edge">
<title>(val: 0.0, idx: 226, rnd:[0.31542835])&#45;&gt;(val: 4.0, idx: 284, rnd:[0.36371077])</title>
<path fill="none" stroke="black" d="M734.29,-542.2C724.14,-511.2 712.36,-475.21 703.15,-447.1"/>
<polygon fill="black" stroke="black" points="706.45,-445.92 700.01,-437.5 699.8,-448.1 706.45,-445.92"/>
</g>
<!-- (val: 0.0, idx: 108, rnd:[0.65310833]) -->
<g id="node11" class="node">
<title>(val: 0.0, idx: 108, rnd:[0.65310833])</title>
<ellipse fill="none" stroke="black" cx="826.5" cy="-398.27" rx="72.59" ry="72.59"/>
<text text-anchor="middle" x="826.5" y="-394.57" font-family="Times,serif" font-size="14.00">dollars&lt;=0.0</text>
</g>
<!-- (val: 0.0, idx: 226, rnd:[0.31542835])&#45;&gt;(val: 0.0, idx: 108, rnd:[0.65310833]) -->
<g id="edge10" class="edge">
<title>(val: 0.0, idx: 226, rnd:[0.31542835])&#45;&gt;(val: 0.0, idx: 108, rnd:[0.65310833])</title>
<path fill="none" stroke="black" d="M779.03,-542.2C785.89,-521.54 793.49,-498.66 800.56,-477.37"/>
<polygon fill="black" stroke="black" points="803.94,-478.31 803.77,-467.72 797.29,-476.11 803.94,-478.31"/>
</g>
<!-- (val: 0.0, idx: 73, rnd:[0.26538949]) -->
<g id="node12" class="node">
<title>(val: 0.0, idx: 73, rnd:[0.26538949])</title>
<ellipse fill="none" stroke="black" cx="1275.5" cy="-398.27" rx="57.39" ry="57.39"/>
<text text-anchor="middle" x="1275.5" y="-394.57" font-family="Times,serif" font-size="14.00">gas&lt;=0.0</text>
</g>
<!-- (val: 0.0, idx: 162, rnd:[0.12019656])&#45;&gt;(val: 0.0, idx: 73, rnd:[0.26538949]) -->
<g id="edge12" class="edge">
<title>(val: 0.0, idx: 162, rnd:[0.12019656])&#45;&gt;(val: 0.0, idx: 73, rnd:[0.26538949])</title>
<path fill="none" stroke="black" d="M1321.33,-539.28C1313.21,-514.47 1304.15,-486.79 1296.24,-462.63"/>
<polygon fill="black" stroke="black" points="1299.48,-461.27 1293.04,-452.86 1292.82,-463.45 1299.48,-461.27"/>
</g>
<!-- (val: 0.0, idx: 2, rnd:[0.2961402]) -->
<g id="node13" class="node">
<title>(val: 0.0, idx: 2, rnd:[0.2961402])</title>
<ellipse fill="none" stroke="black" cx="1414.5" cy="-398.27" rx="60.39" ry="60.39"/>
<text text-anchor="middle" x="1414.5" y="-394.57" font-family="Times,serif" font-size="14.00">http&lt;=0.0</text>
</g>
<!-- (val: 0.0, idx: 162, rnd:[0.12019656])&#45;&gt;(val: 0.0, idx: 2, rnd:[0.2961402]) -->
<g id="edge11" class="edge">
<title>(val: 0.0, idx: 162, rnd:[0.12019656])&#45;&gt;(val: 0.0, idx: 2, rnd:[0.2961402])</title>
<path fill="none" stroke="black" d="M1368,-539.28C1375.93,-515.42 1384.73,-488.89 1392.54,-465.41"/>
<polygon fill="black" stroke="black" points="1395.87,-466.48 1395.7,-455.88 1389.22,-464.27 1395.87,-466.48"/>
</g>
<!-- (val: 0.0, idx: 174, rnd:[0.82894003]) -->
<g id="node14" class="node">
<title>(val: 0.0, idx: 174, rnd:[0.82894003])</title>
<ellipse fill="none" stroke="black" cx="1792.5" cy="-398.27" rx="62.29" ry="62.29"/>
<text text-anchor="middle" x="1792.5" y="-394.57" font-family="Times,serif" font-size="14.00">back&lt;=0.0</text>
</g>
<!-- (val: 0.0, idx: 61, rnd:[0.13179786])&#45;&gt;(val: 0.0, idx: 174, rnd:[0.82894003]) -->
<g id="edge14" class="edge">
<title>(val: 0.0, idx: 61, rnd:[0.13179786])&#45;&gt;(val: 0.0, idx: 174, rnd:[0.82894003])</title>
<path fill="none" stroke="black" d="M1792.5,-547.95C1792.5,-523.83 1792.5,-496.05 1792.5,-471.07"/>
<polygon fill="black" stroke="black" points="1796,-470.93 1792.5,-460.93 1789,-470.93 1796,-470.93"/>
</g>
<!-- (val: 0.0, idx: 333, rnd:[0.7163272]) -->
<g id="node15" class="node">
<title>(val: 0.0, idx: 333, rnd:[0.7163272])</title>
<ellipse fill="none" stroke="black" cx="1993.5" cy="-398.27" rx="79.89" ry="79.89"/>
<text text-anchor="middle" x="1993.5" y="-394.57" font-family="Times,serif" font-size="14.00">contains&lt;=0.0</text>
</g>
<!-- (val: 0.0, idx: 61, rnd:[0.13179786])&#45;&gt;(val: 0.0, idx: 333, rnd:[0.7163272]) -->
<g id="edge13" class="edge">
<title>(val: 0.0, idx: 61, rnd:[0.13179786])&#45;&gt;(val: 0.0, idx: 333, rnd:[0.7163272])</title>
<path fill="none" stroke="black" d="M1835.62,-564.84C1863.61,-535.48 1900.53,-496.77 1931.63,-464.15"/>
<polygon fill="black" stroke="black" points="1934.21,-466.52 1938.58,-456.87 1929.14,-461.69 1934.21,-466.52"/>
</g>
<!-- (val: &#45;1 rnd:[0.03918779]) -->
<g id="node16" class="node">
<title>(val: &#45;1 rnd:[0.03918779])</title>
<ellipse fill="none" stroke="black" cx="19.5" cy="-167.94" rx="19.5" ry="19.5"/>
<text text-anchor="middle" x="19.5" y="-164.24" font-family="Times,serif" font-size="14.00">&#45;1</text>
</g>
<!-- (val: 0.0, idx: 73, rnd:[0.4686512])&#45;&gt;(val: &#45;1 rnd:[0.03918779]) -->
<g id="edge16" class="edge">
<title>(val: 0.0, idx: 73, rnd:[0.4686512])&#45;&gt;(val: &#45;1 rnd:[0.03918779])</title>
<path fill="none" stroke="black" d="M87.71,-347.62C74.58,-322.13 59.13,-290.33 47.5,-260.88 39.21,-239.9 31.87,-215.43 26.78,-197.01"/>
<polygon fill="black" stroke="black" points="30.12,-195.94 24.13,-187.2 23.36,-197.77 30.12,-195.94"/>
</g>
<!-- (val: 0.0, idx: 267, rnd:[0.97676109]) -->
<g id="node17" class="node">
<title>(val: 0.0, idx: 267, rnd:[0.97676109])</title>
<ellipse fill="none" stroke="black" cx="114.5" cy="-167.94" rx="57.69" ry="57.69"/>
<text text-anchor="middle" x="114.5" y="-164.24" font-family="Times,serif" font-size="14.00">feel&lt;=0.0</text>
</g>
<!-- (val: 0.0, idx: 73, rnd:[0.4686512])&#45;&gt;(val: 0.0, idx: 267, rnd:[0.97676109]) -->
<g id="edge15" class="edge">
<title>(val: 0.0, idx: 73, rnd:[0.4686512])&#45;&gt;(val: 0.0, idx: 267, rnd:[0.97676109])</title>
<path fill="none" stroke="black" d="M114.5,-340.83C114.5,-309.11 114.5,-269.33 114.5,-236.03"/>
<polygon fill="black" stroke="black" points="118,-235.92 114.5,-225.92 111,-235.92 118,-235.92"/>
</g>
<!-- (val: 0.0, idx: 16, rnd:[0.83794491]) -->
<g id="node18" class="node">
<title>(val: 0.0, idx: 16, rnd:[0.83794491])</title>
<ellipse fill="none" stroke="black" cx="261.5" cy="-167.94" rx="71.49" ry="71.49"/>
<text text-anchor="middle" x="261.5" y="-164.24" font-family="Times,serif" font-size="14.00">money&lt;=0.0</text>
</g>
<!-- (val: 0.0, idx: 222, rnd:[0.19658236])&#45;&gt;(val: 0.0, idx: 16, rnd:[0.83794491]) -->
<g id="edge18" class="edge">
<title>(val: 0.0, idx: 222, rnd:[0.19658236])&#45;&gt;(val: 0.0, idx: 16, rnd:[0.83794491])</title>
<path fill="none" stroke="black" d="M314.63,-303.74C306.82,-283.93 298.68,-263.27 291.18,-244.24"/>
<polygon fill="black" stroke="black" points="294.36,-242.77 287.44,-234.75 287.85,-245.33 294.36,-242.77"/>
</g>
<!-- (val: 0.0, idx: 111, rnd:[0.36872517]) -->
<g id="node19" class="node">
<title>(val: 0.0, idx: 111, rnd:[0.36872517])</title>
<ellipse fill="none" stroke="black" cx="410.5" cy="-167.94" rx="59.59" ry="59.59"/>
<text text-anchor="middle" x="410.5" y="-164.24" font-family="Times,serif" font-size="14.00">web&lt;=0.0</text>
</g>
<!-- (val: 0.0, idx: 222, rnd:[0.19658236])&#45;&gt;(val: 0.0, idx: 111, rnd:[0.36872517]) -->
<g id="edge17" class="edge">
<title>(val: 0.0, idx: 222, rnd:[0.19658236])&#45;&gt;(val: 0.0, idx: 111, rnd:[0.36872517])</title>
<path fill="none" stroke="black" d="M376.69,-299.78C382.24,-278.31 387.99,-256.04 393.15,-236.1"/>
<polygon fill="black" stroke="black" points="396.59,-236.76 395.7,-226.2 389.81,-235 396.59,-236.76"/>
</g>
<!-- (val: 0.0, idx: 296, rnd:[0.10204481]) -->
<g id="node20" class="node">
<title>(val: 0.0, idx: 296, rnd:[0.10204481])</title>
<ellipse fill="none" stroke="black" cx="550.5" cy="-167.94" rx="61.99" ry="61.99"/>
<text text-anchor="middle" x="550.5" y="-164.24" font-family="Times,serif" font-size="14.00">date&lt;=0.0</text>
</g>
<!-- (val: 4.0, idx: 284, rnd:[0.36371077])&#45;&gt;(val: 0.0, idx: 296, rnd:[0.10204481]) -->
<g id="edge20" class="edge">
<title>(val: 4.0, idx: 284, rnd:[0.36371077])&#45;&gt;(val: 0.0, idx: 296, rnd:[0.10204481])</title>
<path fill="none" stroke="black" d="M666.69,-362.59C645.61,-327.46 612.57,-272.39 587.1,-229.95"/>
<polygon fill="black" stroke="black" points="590.1,-228.14 581.95,-221.36 584.1,-231.74 590.1,-228.14"/>
</g>
<!-- (val: 0.0, idx: 73, rnd:[0.57019677]) -->
<g id="node21" class="node">
<title>(val: 0.0, idx: 73, rnd:[0.57019677])</title>
<ellipse fill="none" stroke="black" cx="687.5" cy="-167.94" rx="57.39" ry="57.39"/>
<text text-anchor="middle" x="687.5" y="-164.24" font-family="Times,serif" font-size="14.00">gas&lt;=0.0</text>
</g>
<!-- (val: 4.0, idx: 284, rnd:[0.36371077])&#45;&gt;(val: 0.0, idx: 73, rnd:[0.57019677]) -->
<g id="edge19" class="edge">
<title>(val: 4.0, idx: 284, rnd:[0.36371077])&#45;&gt;(val: 0.0, idx: 73, rnd:[0.57019677])</title>
<path fill="none" stroke="black" d="M687.5,-357.24C687.5,-323.59 687.5,-274.8 687.5,-235.32"/>
<polygon fill="black" stroke="black" points="691,-235.23 687.5,-225.23 684,-235.23 691,-235.23"/>
</g>
<!-- (val: 0.0, idx: 350, rnd:[0.15896958]) -->
<g id="node22" class="node">
<title>(val: 0.0, idx: 350, rnd:[0.15896958])</title>
<ellipse fill="none" stroke="black" cx="826.5" cy="-167.94" rx="63.89" ry="63.89"/>
<text text-anchor="middle" x="826.5" y="-164.24" font-family="Times,serif" font-size="14.00">term&lt;=0.0</text>
</g>
<!-- (val: 0.0, idx: 108, rnd:[0.65310833])&#45;&gt;(val: 0.0, idx: 350, rnd:[0.15896958]) -->
<g id="edge22" class="edge">
<title>(val: 0.0, idx: 108, rnd:[0.65310833])&#45;&gt;(val: 0.0, idx: 350, rnd:[0.15896958])</title>
<path fill="none" stroke="black" d="M826.5,-325.34C826.5,-298.68 826.5,-268.44 826.5,-241.71"/>
<polygon fill="black" stroke="black" points="830,-241.65 826.5,-231.65 823,-241.65 830,-241.65"/>
</g>
<!-- (val: 0.0, idx: 256, rnd:[0.2532916]) -->
<g id="node23" class="node">
<title>(val: 0.0, idx: 256, rnd:[0.2532916])</title>
<ellipse fill="none" stroke="black" cx="976.5" cy="-167.94" rx="68.49" ry="68.49"/>
<text text-anchor="middle" x="976.5" y="-164.24" font-family="Times,serif" font-size="14.00">yahoo&lt;=0.0</text>
</g>
<!-- (val: 0.0, idx: 108, rnd:[0.65310833])&#45;&gt;(val: 0.0, idx: 256, rnd:[0.2532916]) -->
<g id="edge21" class="edge">
<title>(val: 0.0, idx: 108, rnd:[0.65310833])&#45;&gt;(val: 0.0, idx: 256, rnd:[0.2532916])</title>
<path fill="none" stroke="black" d="M866.11,-336.98C886.9,-305.32 912.41,-266.5 933.66,-234.14"/>
<polygon fill="black" stroke="black" points="936.69,-235.91 939.25,-225.64 930.84,-232.07 936.69,-235.91"/>
</g>
<!-- (val: 0.0, idx: 23, rnd:[0.52324805]) -->
<g id="node24" class="node">
<title>(val: 0.0, idx: 23, rnd:[0.52324805])</title>
<ellipse fill="none" stroke="black" cx="1124.5" cy="-167.94" rx="61.99" ry="61.99"/>
<text text-anchor="middle" x="1124.5" y="-164.24" font-family="Times,serif" font-size="14.00">click&lt;=0.0</text>
</g>
<!-- (val: 0.0, idx: 73, rnd:[0.26538949])&#45;&gt;(val: 0.0, idx: 23, rnd:[0.52324805]) -->
<g id="edge23" class="edge">
<title>(val: 0.0, idx: 73, rnd:[0.26538949])&#45;&gt;(val: 0.0, idx: 23, rnd:[0.52324805])</title>
<path fill="none" stroke="black" d="M1244.39,-350.24C1221.04,-314.92 1188.89,-266.31 1163.76,-228.31"/>
<polygon fill="black" stroke="black" points="1166.62,-226.29 1158.19,-219.88 1160.78,-230.15 1166.62,-226.29"/>
</g>
<!-- (val: 4.0, idx: 6, rnd:[0.9292962]) -->
<g id="node25" class="node">
<title>(val: 4.0, idx: 6, rnd:[0.9292962])</title>
<ellipse fill="none" stroke="black" cx="1275.5" cy="-167.94" rx="70.69" ry="70.69"/>
<text text-anchor="middle" x="1275.5" y="-164.24" font-family="Times,serif" font-size="14.00">please&lt;=4.0</text>
</g>
<!-- (val: 0.0, idx: 73, rnd:[0.26538949])&#45;&gt;(val: 4.0, idx: 6, rnd:[0.9292962]) -->
<g id="edge24" class="edge">
<title>(val: 0.0, idx: 73, rnd:[0.26538949])&#45;&gt;(val: 4.0, idx: 6, rnd:[0.9292962])</title>
<path fill="none" stroke="black" d="M1275.5,-340.83C1275.5,-313.18 1275.5,-279.41 1275.5,-249.14"/>
<polygon fill="black" stroke="black" points="1279,-249.02 1275.5,-239.02 1272,-249.02 1279,-249.02"/>
</g>
<!-- (val: 1.0, idx: 312, rnd:[0.0641475]) -->
<g id="node26" class="node">
<title>(val: 1.0, idx: 312, rnd:[0.0641475])</title>
<ellipse fill="none" stroke="black" cx="1414.5" cy="-167.94" rx="50.09" ry="50.09"/>
<text text-anchor="middle" x="1414.5" y="-164.24" font-family="Times,serif" font-size="14.00">id&lt;=1.0</text>
</g>
<!-- (val: 0.0, idx: 2, rnd:[0.2961402])&#45;&gt;(val: 1.0, idx: 312, rnd:[0.0641475]) -->
<g id="edge26" class="edge">
<title>(val: 0.0, idx: 2, rnd:[0.2961402])&#45;&gt;(val: 1.0, idx: 312, rnd:[0.0641475])</title>
<path fill="none" stroke="black" d="M1414.5,-337.58C1414.5,-303.93 1414.5,-262.03 1414.5,-228.42"/>
<polygon fill="black" stroke="black" points="1418,-228.27 1414.5,-218.27 1411,-228.27 1418,-228.27"/>
</g>
<!-- (val: 2.0, idx: 7, rnd:[0.11872772]) -->
<g id="node27" class="node">
<title>(val: 2.0, idx: 7, rnd:[0.11872772])</title>
<ellipse fill="none" stroke="black" cx="1575.5" cy="-167.94" rx="92.88" ry="92.88"/>
<text text-anchor="middle" x="1575.5" y="-164.24" font-family="Times,serif" font-size="14.00">statements&lt;=2.0</text>
</g>
<!-- (val: 0.0, idx: 2, rnd:[0.2961402])&#45;&gt;(val: 2.0, idx: 7, rnd:[0.11872772]) -->
<g id="edge25" class="edge">
<title>(val: 0.0, idx: 2, rnd:[0.2961402])&#45;&gt;(val: 2.0, idx: 7, rnd:[0.11872772])</title>
<path fill="none" stroke="black" d="M1449.04,-348.29C1468.63,-320.5 1493.69,-284.97 1516.32,-252.87"/>
<polygon fill="black" stroke="black" points="1519.42,-254.54 1522.32,-244.35 1513.7,-250.51 1519.42,-254.54"/>
</g>
<!-- (val: 0.0, idx: 4, rnd:[0.73519402]) -->
<g id="node28" class="node">
<title>(val: 0.0, idx: 4, rnd:[0.73519402])</title>
<ellipse fill="none" stroke="black" cx="1752.5" cy="-167.94" rx="66.09" ry="66.09"/>
<text text-anchor="middle" x="1752.5" y="-164.24" font-family="Times,serif" font-size="14.00">email&lt;=0.0</text>
</g>
<!-- (val: 0.0, idx: 174, rnd:[0.82894003])&#45;&gt;(val: 0.0, idx: 4, rnd:[0.73519402]) -->
<g id="edge28" class="edge">
<title>(val: 0.0, idx: 174, rnd:[0.82894003])&#45;&gt;(val: 0.0, idx: 4, rnd:[0.73519402])</title>
<path fill="none" stroke="black" d="M1781.88,-336.68C1776.87,-308.07 1770.84,-273.66 1765.56,-243.47"/>
<polygon fill="black" stroke="black" points="1768.97,-242.66 1763.79,-233.41 1762.07,-243.87 1768.97,-242.66"/>
</g>
<!-- (val: 0.0, idx: 9, rnd:[0.00469548]) -->
<g id="node29" class="node">
<title>(val: 0.0, idx: 9, rnd:[0.00469548])</title>
<ellipse fill="none" stroke="black" cx="1897.5" cy="-167.94" rx="60.39" ry="60.39"/>
<text text-anchor="middle" x="1897.5" y="-164.24" font-family="Times,serif" font-size="14.00">may&lt;=0.0</text>
</g>
<!-- (val: 0.0, idx: 174, rnd:[0.82894003])&#45;&gt;(val: 0.0, idx: 9, rnd:[0.00469548]) -->
<g id="edge27" class="edge">
<title>(val: 0.0, idx: 174, rnd:[0.82894003])&#45;&gt;(val: 0.0, idx: 9, rnd:[0.00469548])</title>
<path fill="none" stroke="black" d="M1818.32,-341.12C1833.42,-308.29 1852.52,-266.75 1868.18,-232.69"/>
<polygon fill="black" stroke="black" points="1871.5,-233.84 1872.5,-223.29 1865.14,-230.92 1871.5,-233.84"/>
</g>
<!-- (val: 1 rnd:[0.02010755]) -->
<g id="node30" class="node">
<title>(val: 1 rnd:[0.02010755])</title>
<ellipse fill="none" stroke="black" cx="1993.5" cy="-167.94" rx="18" ry="18"/>
<text text-anchor="middle" x="1993.5" y="-164.24" font-family="Times,serif" font-size="14.00">1</text>
</g>
<!-- (val: 0.0, idx: 333, rnd:[0.7163272])&#45;&gt;(val: 1 rnd:[0.02010755]) -->
<g id="edge30" class="edge">
<title>(val: 0.0, idx: 333, rnd:[0.7163272])&#45;&gt;(val: 1 rnd:[0.02010755])</title>
<path fill="none" stroke="black" d="M1993.5,-318.05C1993.5,-275.61 1993.5,-226.03 1993.5,-196.08"/>
<polygon fill="black" stroke="black" points="1997,-195.99 1993.5,-185.99 1990,-195.99 1997,-195.99"/>
</g>
<!-- (val: 0.0, idx: 118, rnd:[0.28940609]) -->
<g id="node31" class="node">
<title>(val: 0.0, idx: 118, rnd:[0.28940609])</title>
<ellipse fill="none" stroke="black" cx="2094.5" cy="-167.94" rx="64.99" ry="64.99"/>
<text text-anchor="middle" x="2094.5" y="-164.24" font-family="Times,serif" font-size="14.00">reply&lt;=0.0</text>
</g>
<!-- (val: 0.0, idx: 333, rnd:[0.7163272])&#45;&gt;(val: 0.0, idx: 118, rnd:[0.28940609]) -->
<g id="edge29" class="edge">
<title>(val: 0.0, idx: 333, rnd:[0.7163272])&#45;&gt;(val: 0.0, idx: 118, rnd:[0.28940609])</title>
<path fill="none" stroke="black" d="M2025.59,-324.71C2038.05,-296.55 2052.23,-264.49 2064.48,-236.79"/>
<polygon fill="black" stroke="black" points="2067.71,-238.14 2068.56,-227.58 2061.31,-235.31 2067.71,-238.14"/>
</g>
<!-- (val: &#45;1 rnd:[0.60484552]) -->
<g id="node32" class="node">
<title>(val: &#45;1 rnd:[0.60484552])</title>
<ellipse fill="none" stroke="black" cx="87.5" cy="-19.5" rx="19.5" ry="19.5"/>
<text text-anchor="middle" x="87.5" y="-15.8" font-family="Times,serif" font-size="14.00">&#45;1</text>
</g>
<!-- (val: 0.0, idx: 267, rnd:[0.97676109])&#45;&gt;(val: &#45;1 rnd:[0.60484552]) -->
<g id="edge31" class="edge">
<title>(val: 0.0, idx: 267, rnd:[0.97676109])&#45;&gt;(val: &#45;1 rnd:[0.60484552])</title>
<path fill="none" stroke="black" d="M104.14,-110.74C100.24,-89.63 95.98,-66.53 92.75,-48.98"/>
<polygon fill="black" stroke="black" points="96.14,-48.04 90.88,-38.84 89.25,-49.31 96.14,-48.04"/>
</g>
<!-- (val: 1 rnd:[0.73926358]) -->
<g id="node33" class="node">
<title>(val: 1 rnd:[0.73926358])</title>
<ellipse fill="none" stroke="black" cx="142.5" cy="-19.5" rx="18" ry="18"/>
<text text-anchor="middle" x="142.5" y="-15.8" font-family="Times,serif" font-size="14.00">1</text>
</g>
<!-- (val: 0.0, idx: 267, rnd:[0.97676109])&#45;&gt;(val: 1 rnd:[0.73926358]) -->
<g id="edge32" class="edge">
<title>(val: 0.0, idx: 267, rnd:[0.97676109])&#45;&gt;(val: 1 rnd:[0.73926358])</title>
<path fill="none" stroke="black" d="M125.24,-110.74C129.38,-89.1 133.92,-65.36 137.31,-47.66"/>
<polygon fill="black" stroke="black" points="140.81,-47.97 139.25,-37.49 133.93,-46.66 140.81,-47.97"/>
</g>
<!-- (val: &#45;1 rnd:[0.09609841]) -->
<g id="node34" class="node">
<title>(val: &#45;1 rnd:[0.09609841])</title>
<ellipse fill="none" stroke="black" cx="234.5" cy="-19.5" rx="19.5" ry="19.5"/>
<text text-anchor="middle" x="234.5" y="-15.8" font-family="Times,serif" font-size="14.00">&#45;1</text>
</g>
<!-- (val: 0.0, idx: 16, rnd:[0.83794491])&#45;&gt;(val: &#45;1 rnd:[0.09609841]) -->
<g id="edge33" class="edge">
<title>(val: 0.0, idx: 16, rnd:[0.83794491])&#45;&gt;(val: &#45;1 rnd:[0.09609841])</title>
<path fill="none" stroke="black" d="M248.71,-97.58C245.54,-80.38 242.31,-62.89 239.74,-48.93"/>
<polygon fill="black" stroke="black" points="243.17,-48.21 237.91,-39.01 236.28,-49.47 243.17,-48.21"/>
</g>
<!-- (val: 1 rnd:[0.97645947]) -->
<g id="node35" class="node">
<title>(val: 1 rnd:[0.97645947])</title>
<ellipse fill="none" stroke="black" cx="289.5" cy="-19.5" rx="18" ry="18"/>
<text text-anchor="middle" x="289.5" y="-15.8" font-family="Times,serif" font-size="14.00">1</text>
</g>
<!-- (val: 0.0, idx: 16, rnd:[0.83794491])&#45;&gt;(val: 1 rnd:[0.97645947]) -->
<g id="edge34" class="edge">
<title>(val: 0.0, idx: 16, rnd:[0.83794491])&#45;&gt;(val: 1 rnd:[0.97645947])</title>
<path fill="none" stroke="black" d="M274.76,-97.58C278.16,-79.79 281.62,-61.69 284.33,-47.51"/>
<polygon fill="black" stroke="black" points="287.81,-47.97 286.25,-37.49 280.93,-46.66 287.81,-47.97"/>
</g>
<!-- (val: 1 rnd:[0.82099323]) -->
<g id="node36" class="node">
<title>(val: 1 rnd:[0.82099323])</title>
<ellipse fill="none" stroke="black" cx="383.5" cy="-19.5" rx="18" ry="18"/>
<text text-anchor="middle" x="383.5" y="-15.8" font-family="Times,serif" font-size="14.00">1</text>
</g>
<!-- (val: 0.0, idx: 111, rnd:[0.36872517])&#45;&gt;(val: 1 rnd:[0.82099323]) -->
<g id="edge35" class="edge">
<title>(val: 0.0, idx: 111, rnd:[0.36872517])&#45;&gt;(val: 1 rnd:[0.82099323])</title>
<path fill="none" stroke="black" d="M399.83,-109.06C395.9,-87.74 391.63,-64.61 388.45,-47.33"/>
<polygon fill="black" stroke="black" points="391.87,-46.6 386.61,-37.4 384.99,-47.87 391.87,-46.6"/>
</g>
<!-- (val: 1 rnd:[0.09710128]) -->
<g id="node37" class="node">
<title>(val: 1 rnd:[0.09710128])</title>
<ellipse fill="none" stroke="black" cx="437.5" cy="-19.5" rx="18" ry="18"/>
<text text-anchor="middle" x="437.5" y="-15.8" font-family="Times,serif" font-size="14.00">1</text>
</g>
<!-- (val: 0.0, idx: 111, rnd:[0.36872517])&#45;&gt;(val: 1 rnd:[0.09710128]) -->
<g id="edge36" class="edge">
<title>(val: 0.0, idx: 111, rnd:[0.36872517])&#45;&gt;(val: 1 rnd:[0.09710128])</title>
<path fill="none" stroke="black" d="M421.17,-109.06C425.1,-87.74 429.37,-64.61 432.55,-47.33"/>
<polygon fill="black" stroke="black" points="436.01,-47.87 434.38,-37.4 429.13,-46.6 436.01,-47.87"/>
</g>
<!-- (val: &#45;1 rnd:[0.16130952]) -->
<g id="node38" class="node">
<title>(val: &#45;1 rnd:[0.16130952])</title>
<ellipse fill="none" stroke="black" cx="535.5" cy="-19.5" rx="19.5" ry="19.5"/>
<text text-anchor="middle" x="535.5" y="-15.8" font-family="Times,serif" font-size="14.00">&#45;1</text>
</g>
<!-- (val: 0.0, idx: 296, rnd:[0.10204481])&#45;&gt;(val: &#45;1 rnd:[0.16130952]) -->
<g id="edge38" class="edge">
<title>(val: 0.0, idx: 296, rnd:[0.10204481])&#45;&gt;(val: &#45;1 rnd:[0.16130952])</title>
<path fill="none" stroke="black" d="M544.27,-106.11C542.25,-86.44 540.11,-65.55 538.45,-49.33"/>
<polygon fill="black" stroke="black" points="541.89,-48.5 537.38,-38.91 534.92,-49.22 541.89,-48.5"/>
</g>
<!-- (val: 1 rnd:[0.20887676]) -->
<g id="node39" class="node">
<title>(val: 1 rnd:[0.20887676])</title>
<ellipse fill="none" stroke="black" cx="590.5" cy="-19.5" rx="18" ry="18"/>
<text text-anchor="middle" x="590.5" y="-15.8" font-family="Times,serif" font-size="14.00">1</text>
</g>
<!-- (val: 0.0, idx: 296, rnd:[0.10204481])&#45;&gt;(val: 1 rnd:[0.20887676]) -->
<g id="edge37" class="edge">
<title>(val: 0.0, idx: 296, rnd:[0.10204481])&#45;&gt;(val: 1 rnd:[0.20887676])</title>
<path fill="none" stroke="black" d="M566.54,-108.22C572.33,-87 578.59,-64.09 583.26,-47.01"/>
<polygon fill="black" stroke="black" points="586.68,-47.76 585.94,-37.19 579.93,-45.91 586.68,-47.76"/>
</g>
<!-- (val: &#45;1 rnd:[0.98837384]) -->
<g id="node40" class="node">
<title>(val: &#45;1 rnd:[0.98837384])</title>
<ellipse fill="none" stroke="black" cx="646.5" cy="-19.5" rx="19.5" ry="19.5"/>
<text text-anchor="middle" x="646.5" y="-15.8" font-family="Times,serif" font-size="14.00">&#45;1</text>
</g>
<!-- (val: 0.0, idx: 73, rnd:[0.57019677])&#45;&gt;(val: &#45;1 rnd:[0.98837384]) -->
<g id="edge40" class="edge">
<title>(val: 0.0, idx: 73, rnd:[0.57019677])&#45;&gt;(val: &#45;1 rnd:[0.98837384])</title>
<path fill="none" stroke="black" d="M672.23,-112.41C666.14,-90.66 659.39,-66.55 654.33,-48.48"/>
<polygon fill="black" stroke="black" points="657.63,-47.29 651.57,-38.6 650.89,-49.17 657.63,-47.29"/>
</g>
<!-- (val: 1 rnd:[0.43860151]) -->
<g id="node41" class="node">
<title>(val: 1 rnd:[0.43860151])</title>
<ellipse fill="none" stroke="black" cx="701.5" cy="-19.5" rx="18" ry="18"/>
<text text-anchor="middle" x="701.5" y="-15.8" font-family="Times,serif" font-size="14.00">1</text>
</g>
<!-- (val: 0.0, idx: 73, rnd:[0.57019677])&#45;&gt;(val: 1 rnd:[0.43860151]) -->
<g id="edge39" class="edge">
<title>(val: 0.0, idx: 73, rnd:[0.57019677])&#45;&gt;(val: 1 rnd:[0.43860151])</title>
<path fill="none" stroke="black" d="M692.87,-110.74C694.94,-89.1 697.21,-65.36 698.9,-47.66"/>
<polygon fill="black" stroke="black" points="702.41,-47.78 699.87,-37.49 695.44,-47.12 702.41,-47.78"/>
</g>
<!-- (val: &#45;1 rnd:[0.65632959]) -->
<g id="node42" class="node">
<title>(val: &#45;1 rnd:[0.65632959])</title>
<ellipse fill="none" stroke="black" cx="799.5" cy="-19.5" rx="19.5" ry="19.5"/>
<text text-anchor="middle" x="799.5" y="-15.8" font-family="Times,serif" font-size="14.00">&#45;1</text>
</g>
<!-- (val: 0.0, idx: 350, rnd:[0.15896958])&#45;&gt;(val: &#45;1 rnd:[0.65632959]) -->
<g id="edge42" class="edge">
<title>(val: 0.0, idx: 350, rnd:[0.15896958])&#45;&gt;(val: &#45;1 rnd:[0.65632959])</title>
<path fill="none" stroke="black" d="M815.13,-105.26C811.54,-85.82 807.75,-65.28 804.81,-49.28"/>
<polygon fill="black" stroke="black" points="808.17,-48.2 802.91,-39 801.28,-49.47 808.17,-48.2"/>
</g>
<!-- (val: 1 rnd:[0.11037514]) -->
<g id="node43" class="node">
<title>(val: 1 rnd:[0.11037514])</title>
<ellipse fill="none" stroke="black" cx="854.5" cy="-19.5" rx="18" ry="18"/>
<text text-anchor="middle" x="854.5" y="-15.8" font-family="Times,serif" font-size="14.00">1</text>
</g>
<!-- (val: 0.0, idx: 350, rnd:[0.15896958])&#45;&gt;(val: 1 rnd:[0.11037514]) -->
<g id="edge41" class="edge">
<title>(val: 0.0, idx: 350, rnd:[0.15896958])&#45;&gt;(val: 1 rnd:[0.11037514])</title>
<path fill="none" stroke="black" d="M838.29,-105.26C842.17,-85 846.27,-63.53 849.38,-47.26"/>
<polygon fill="black" stroke="black" points="852.83,-47.87 851.27,-37.39 845.95,-46.56 852.83,-47.87"/>
</g>
<!-- (val: &#45;1 rnd:[0.46631077]) -->
<g id="node44" class="node">
<title>(val: &#45;1 rnd:[0.46631077])</title>
<ellipse fill="none" stroke="black" cx="949.5" cy="-19.5" rx="19.5" ry="19.5"/>
<text text-anchor="middle" x="949.5" y="-15.8" font-family="Times,serif" font-size="14.00">&#45;1</text>
</g>
<!-- (val: 0.0, idx: 256, rnd:[0.2532916])&#45;&gt;(val: &#45;1 rnd:[0.46631077]) -->
<g id="edge43" class="edge">
<title>(val: 0.0, idx: 256, rnd:[0.2532916])&#45;&gt;(val: &#45;1 rnd:[0.46631077])</title>
<path fill="none" stroke="black" d="M964.26,-100.57C960.92,-82.43 957.47,-63.71 954.74,-48.94"/>
<polygon fill="black" stroke="black" points="958.16,-48.15 952.9,-38.95 951.27,-49.42 958.16,-48.15"/>
</g>
<!-- (val: 1 rnd:[0.24442559]) -->
<g id="node45" class="node">
<title>(val: 1 rnd:[0.24442559])</title>
<ellipse fill="none" stroke="black" cx="1004.5" cy="-19.5" rx="18" ry="18"/>
<text text-anchor="middle" x="1004.5" y="-15.8" font-family="Times,serif" font-size="14.00">1</text>
</g>
<!-- (val: 0.0, idx: 256, rnd:[0.2532916])&#45;&gt;(val: 1 rnd:[0.24442559]) -->
<g id="edge44" class="edge">
<title>(val: 0.0, idx: 256, rnd:[0.2532916])&#45;&gt;(val: 1 rnd:[0.24442559])</title>
<path fill="none" stroke="black" d="M989.19,-100.57C992.77,-81.82 996.48,-62.46 999.34,-47.47"/>
<polygon fill="black" stroke="black" points="1002.83,-47.88 1001.27,-37.4 995.95,-46.57 1002.83,-47.88"/>
</g>
<!-- (val: 1 rnd:[0.09394051]) -->
<g id="node46" class="node">
<title>(val: 1 rnd:[0.09394051])</title>
<ellipse fill="none" stroke="black" cx="1097.5" cy="-19.5" rx="18" ry="18"/>
<text text-anchor="middle" x="1097.5" y="-15.8" font-family="Times,serif" font-size="14.00">1</text>
</g>
<!-- (val: 0.0, idx: 23, rnd:[0.52324805])&#45;&gt;(val: 1 rnd:[0.09394051]) -->
<g id="edge45" class="edge">
<title>(val: 0.0, idx: 23, rnd:[0.52324805])&#45;&gt;(val: 1 rnd:[0.09394051])</title>
<path fill="none" stroke="black" d="M1113.44,-106.95C1109.64,-86.35 1105.57,-64.3 1102.5,-47.62"/>
<polygon fill="black" stroke="black" points="1105.89,-46.71 1100.63,-37.51 1099.01,-47.98 1105.89,-46.71"/>
</g>
<!-- (val: 1 rnd:[0.5759465]) -->
<g id="node47" class="node">
<title>(val: 1 rnd:[0.5759465])</title>
<ellipse fill="none" stroke="black" cx="1151.5" cy="-19.5" rx="18" ry="18"/>
<text text-anchor="middle" x="1151.5" y="-15.8" font-family="Times,serif" font-size="14.00">1</text>
</g>
<!-- (val: 0.0, idx: 23, rnd:[0.52324805])&#45;&gt;(val: 1 rnd:[0.5759465]) -->
<g id="edge46" class="edge">
<title>(val: 0.0, idx: 23, rnd:[0.52324805])&#45;&gt;(val: 1 rnd:[0.5759465])</title>
<path fill="none" stroke="black" d="M1135.56,-106.95C1139.36,-86.35 1143.42,-64.3 1146.5,-47.62"/>
<polygon fill="black" stroke="black" points="1149.99,-47.98 1148.36,-37.51 1143.11,-46.71 1149.99,-47.98"/>
</g>
<!-- (val: &#45;1 rnd:[0.31856895]) -->
<g id="node48" class="node">
<title>(val: &#45;1 rnd:[0.31856895])</title>
<ellipse fill="none" stroke="black" cx="1258.5" cy="-19.5" rx="19.5" ry="19.5"/>
<text text-anchor="middle" x="1258.5" y="-15.8" font-family="Times,serif" font-size="14.00">&#45;1</text>
</g>
<!-- (val: 4.0, idx: 6, rnd:[0.9292962])&#45;&gt;(val: &#45;1 rnd:[0.31856895]) -->
<g id="edge47" class="edge">
<title>(val: 4.0, idx: 6, rnd:[0.9292962])&#45;&gt;(val: &#45;1 rnd:[0.31856895])</title>
<path fill="none" stroke="black" d="M1267.4,-97.15C1265.44,-80.29 1263.45,-63.19 1261.86,-49.43"/>
<polygon fill="black" stroke="black" points="1265.3,-48.71 1260.67,-39.18 1258.34,-49.52 1265.3,-48.71"/>
</g>
<!-- (val: 1 rnd:[0.66741038]) -->
<g id="node49" class="node">
<title>(val: 1 rnd:[0.66741038])</title>
<ellipse fill="none" stroke="black" cx="1313.5" cy="-19.5" rx="18" ry="18"/>
<text text-anchor="middle" x="1313.5" y="-15.8" font-family="Times,serif" font-size="14.00">1</text>
</g>
<!-- (val: 4.0, idx: 6, rnd:[0.9292962])&#45;&gt;(val: 1 rnd:[0.66741038]) -->
<g id="edge48" class="edge">
<title>(val: 4.0, idx: 6, rnd:[0.9292962])&#45;&gt;(val: 1 rnd:[0.66741038])</title>
<path fill="none" stroke="black" d="M1293.05,-99.29C1297.87,-80.72 1302.82,-61.66 1306.64,-46.94"/>
<polygon fill="black" stroke="black" points="1310.08,-47.62 1309.2,-37.06 1303.3,-45.86 1310.08,-47.62"/>
</g>
<!-- (val: &#45;1 rnd:[0.69247212]) -->
<g id="node50" class="node">
<title>(val: &#45;1 rnd:[0.69247212])</title>
<ellipse fill="none" stroke="black" cx="1376.5" cy="-19.5" rx="19.5" ry="19.5"/>
<text text-anchor="middle" x="1376.5" y="-15.8" font-family="Times,serif" font-size="14.00">&#45;1</text>
</g>
<!-- (val: 1.0, idx: 312, rnd:[0.0641475])&#45;&gt;(val: &#45;1 rnd:[0.69247212]) -->
<g id="edge49" class="edge">
<title>(val: 1.0, idx: 312, rnd:[0.0641475])&#45;&gt;(val: &#45;1 rnd:[0.69247212])</title>
<path fill="none" stroke="black" d="M1402.16,-119.39C1396.07,-95.92 1388.94,-68.43 1383.74,-48.39"/>
<polygon fill="black" stroke="black" points="1387.11,-47.46 1381.21,-38.66 1380.33,-49.21 1387.11,-47.46"/>
</g>
<!-- (val: 1 rnd:[0.56660145]) -->
<g id="node51" class="node">
<title>(val: 1 rnd:[0.56660145])</title>
<ellipse fill="none" stroke="black" cx="1431.5" cy="-19.5" rx="18" ry="18"/>
<text text-anchor="middle" x="1431.5" y="-15.8" font-family="Times,serif" font-size="14.00">1</text>
</g>
<!-- (val: 1.0, idx: 312, rnd:[0.0641475])&#45;&gt;(val: 1 rnd:[0.56660145]) -->
<g id="edge50" class="edge">
<title>(val: 1.0, idx: 312, rnd:[0.0641475])&#45;&gt;(val: 1 rnd:[0.56660145])</title>
<path fill="none" stroke="black" d="M1420.16,-118.18C1422.88,-94.73 1426.04,-67.5 1428.33,-47.76"/>
<polygon fill="black" stroke="black" points="1431.83,-47.97 1429.51,-37.63 1424.88,-47.16 1431.83,-47.97"/>
</g>
<!-- (val: &#45;1 rnd:[0.31798318]) -->
<g id="node52" class="node">
<title>(val: &#45;1 rnd:[0.31798318])</title>
<ellipse fill="none" stroke="black" cx="1547.5" cy="-19.5" rx="19.5" ry="19.5"/>
<text text-anchor="middle" x="1547.5" y="-15.8" font-family="Times,serif" font-size="14.00">&#45;1</text>
</g>
<!-- (val: 2.0, idx: 7, rnd:[0.11872772])&#45;&gt;(val: &#45;1 rnd:[0.31798318]) -->
<g id="edge51" class="edge">
<title>(val: 2.0, idx: 7, rnd:[0.11872772])&#45;&gt;(val: &#45;1 rnd:[0.31798318])</title>
<path fill="none" stroke="black" d="M1558.16,-76.28C1556.3,-66.51 1554.51,-57.19 1552.96,-49.06"/>
<polygon fill="black" stroke="black" points="1556.37,-48.27 1551.06,-39.11 1549.5,-49.59 1556.37,-48.27"/>
</g>
<!-- (val: 1 rnd:[0.41426299]) -->
<g id="node53" class="node">
<title>(val: 1 rnd:[0.41426299])</title>
<ellipse fill="none" stroke="black" cx="1602.5" cy="-19.5" rx="18" ry="18"/>
<text text-anchor="middle" x="1602.5" y="-15.8" font-family="Times,serif" font-size="14.00">1</text>
</g>
<!-- (val: 2.0, idx: 7, rnd:[0.11872772])&#45;&gt;(val: 1 rnd:[0.41426299]) -->
<g id="edge52" class="edge">
<title>(val: 2.0, idx: 7, rnd:[0.11872772])&#45;&gt;(val: 1 rnd:[0.41426299])</title>
<path fill="none" stroke="black" d="M1592.21,-76.28C1594.13,-65.91 1595.95,-56.04 1597.51,-47.56"/>
<polygon fill="black" stroke="black" points="1600.97,-48.1 1599.34,-37.64 1594.08,-46.83 1600.97,-48.1"/>
</g>
<!-- (val: &#45;1 rnd:[0.96218855]) -->
<g id="node54" class="node">
<title>(val: &#45;1 rnd:[0.96218855])</title>
<ellipse fill="none" stroke="black" cx="1715.5" cy="-19.5" rx="19.5" ry="19.5"/>
<text text-anchor="middle" x="1715.5" y="-15.8" font-family="Times,serif" font-size="14.00">&#45;1</text>
</g>
<!-- (val: 0.0, idx: 4, rnd:[0.73519402])&#45;&gt;(val: &#45;1 rnd:[0.96218855]) -->
<g id="edge53" class="edge">
<title>(val: 0.0, idx: 4, rnd:[0.73519402])&#45;&gt;(val: &#45;1 rnd:[0.96218855])</title>
<path fill="none" stroke="black" d="M1736.48,-103.56C1731.63,-84.34 1726.54,-64.2 1722.59,-48.57"/>
<polygon fill="black" stroke="black" points="1725.9,-47.37 1720.05,-38.53 1719.11,-49.08 1725.9,-47.37"/>
</g>
<!-- (val: 1 rnd:[0.24875314]) -->
<g id="node55" class="node">
<title>(val: 1 rnd:[0.24875314])</title>
<ellipse fill="none" stroke="black" cx="1770.5" cy="-19.5" rx="18" ry="18"/>
<text text-anchor="middle" x="1770.5" y="-15.8" font-family="Times,serif" font-size="14.00">1</text>
</g>
<!-- (val: 0.0, idx: 4, rnd:[0.73519402])&#45;&gt;(val: 1 rnd:[0.24875314]) -->
<g id="edge54" class="edge">
<title>(val: 0.0, idx: 4, rnd:[0.73519402])&#45;&gt;(val: 1 rnd:[0.24875314])</title>
<path fill="none" stroke="black" d="M1760.5,-101.85C1762.84,-82.8 1765.27,-63 1767.15,-47.7"/>
<polygon fill="black" stroke="black" points="1770.67,-47.79 1768.42,-37.44 1763.72,-46.94 1770.67,-47.79"/>
</g>
<!-- (val: 1 rnd:[0.67781654]) -->
<g id="node56" class="node">
<title>(val: 1 rnd:[0.67781654])</title>
<ellipse fill="none" stroke="black" cx="1870.5" cy="-19.5" rx="18" ry="18"/>
<text text-anchor="middle" x="1870.5" y="-15.8" font-family="Times,serif" font-size="14.00">1</text>
</g>
<!-- (val: 0.0, idx: 9, rnd:[0.00469548])&#45;&gt;(val: 1 rnd:[0.67781654]) -->
<g id="edge55" class="edge">
<title>(val: 0.0, idx: 9, rnd:[0.00469548])&#45;&gt;(val: 1 rnd:[0.67781654])</title>
<path fill="none" stroke="black" d="M1886.67,-108.22C1882.82,-87.33 1878.67,-64.8 1875.53,-47.81"/>
<polygon fill="black" stroke="black" points="1878.89,-46.71 1873.64,-37.51 1872.01,-47.98 1878.89,-46.71"/>
</g>
<!-- (val: 1 rnd:[0.27000797]) -->
<g id="node57" class="node">
<title>(val: 1 rnd:[0.27000797])</title>
<ellipse fill="none" stroke="black" cx="1924.5" cy="-19.5" rx="18" ry="18"/>
<text text-anchor="middle" x="1924.5" y="-15.8" font-family="Times,serif" font-size="14.00">1</text>
</g>
<!-- (val: 0.0, idx: 9, rnd:[0.00469548])&#45;&gt;(val: 1 rnd:[0.27000797]) -->
<g id="edge56" class="edge">
<title>(val: 0.0, idx: 9, rnd:[0.00469548])&#45;&gt;(val: 1 rnd:[0.27000797])</title>
<path fill="none" stroke="black" d="M1908.32,-108.22C1912.18,-87.33 1916.33,-64.8 1919.46,-47.81"/>
<polygon fill="black" stroke="black" points="1922.99,-47.98 1921.36,-37.51 1916.11,-46.71 1922.99,-47.98"/>
</g>
<!-- (val: &#45;1 rnd:[0.18319136]) -->
<g id="node58" class="node">
<title>(val: &#45;1 rnd:[0.18319136])</title>
<ellipse fill="none" stroke="black" cx="2066.5" cy="-19.5" rx="19.5" ry="19.5"/>
<text text-anchor="middle" x="2066.5" y="-15.8" font-family="Times,serif" font-size="14.00">&#45;1</text>
</g>
<!-- (val: 0.0, idx: 118, rnd:[0.28940609])&#45;&gt;(val: &#45;1 rnd:[0.18319136]) -->
<g id="edge57" class="edge">
<title>(val: 0.0, idx: 118, rnd:[0.28940609])&#45;&gt;(val: &#45;1 rnd:[0.18319136])</title>
<path fill="none" stroke="black" d="M2082.46,-103.98C2078.8,-84.84 2074.96,-64.73 2071.96,-49.05"/>
<polygon fill="black" stroke="black" points="2075.35,-48.14 2070.03,-38.97 2068.47,-49.45 2075.35,-48.14"/>
</g>
<!-- (val: 1 rnd:[0.58651293]) -->
<g id="node59" class="node">
<title>(val: 1 rnd:[0.58651293])</title>
<ellipse fill="none" stroke="black" cx="2121.5" cy="-19.5" rx="18" ry="18"/>
<text text-anchor="middle" x="2121.5" y="-15.8" font-family="Times,serif" font-size="14.00">1</text>
</g>
<!-- (val: 0.0, idx: 118, rnd:[0.28940609])&#45;&gt;(val: 1 rnd:[0.58651293]) -->
<g id="edge58" class="edge">
<title>(val: 0.0, idx: 118, rnd:[0.28940609])&#45;&gt;(val: 1 rnd:[0.58651293])</title>
<path fill="none" stroke="black" d="M2106.11,-103.98C2109.75,-84.21 2113.59,-63.41 2116.52,-47.52"/>
<polygon fill="black" stroke="black" points="2120.01,-47.85 2118.39,-37.38 2113.13,-46.58 2120.01,-47.85"/>
</g>
</g>
</svg>
